<svg width="122" height="76" viewBox="0 0 122 76" fill="none" xmlns="http://www.w3.org/2000/svg">
<g opacity="0.9">
<rect x="0.546299" y="0.546299" width="120.107" height="74.6569" rx="10.6129" fill="white" stroke="#EEEEEE" stroke-width="1.0926"/>
<rect x="89.8784" y="6.05969" width="25.4165" height="4.54497" rx="2.27248" fill="#87909F" fill-opacity="0.2"/>
<rect x="50.2378" y="6.05981" width="38.1248" height="4.54497" rx="2.27248" fill="#87909F" fill-opacity="0.2"/>
<rect x="89.8774" y="13.6344" width="25.4165" height="4.54497" rx="2.27248" fill="#87909F" fill-opacity="0.2"/>
<rect x="37.5303" y="13.6345" width="50.8331" height="4.54497" rx="2.27248" fill="#87909F" fill-opacity="0.2"/>
<rect x="89.8774" y="21.2096" width="25.4165" height="4.54497" rx="2.27248" fill="#87909F" fill-opacity="0.2"/>
<rect x="16.3486" y="21.2097" width="72.0135" height="4.54497" rx="2.27248" fill="#87909F" fill-opacity="0.2"/>
<rect x="89.8774" y="28.785" width="25.4165" height="4.54497" rx="2.27248" fill="#87909F" fill-opacity="0.2"/>
<rect x="22.7036" y="28.785" width="65.6594" height="4.54497" rx="2.27248" fill="#87909F" fill-opacity="0.2"/>
<rect x="89.8784" y="36.3597" width="25.4165" height="4.54497" rx="2.27248" fill="#87909F" fill-opacity="0.2"/>
<rect x="6.81885" y="36.3597" width="81.5447" height="4.54497" rx="2.27248" fill="#87909F" fill-opacity="0.2"/>
<rect x="6.06055" y="46.9648" width="109.079" height="22.7248" rx="5.5796" fill="#87909F" fill-opacity="0.2"/>
</g>
</svg>
