<svg width="345" height="220" viewBox="0 0 345 220" fill="none" xmlns="http://www.w3.org/2000/svg">
<g filter="url(#filter0_d_3266_30677)">
<rect x="6.17687" y="4.17687" width="332.61" height="206.999" rx="10.8231" fill="white" stroke="#EDEDF1" stroke-width="2.35374"/>
<rect x="21.7484" y="95.1152" width="66.9928" height="75.3669" rx="9.41496" fill="#E1E1E1"/>
<rect x="272.97" y="95.1152" width="50.2446" height="12.5611" rx="6.28057" fill="#E1E1E1"/>
<rect x="193.416" y="95.1152" width="75.3669" height="12.5611" rx="6.28057" fill="#E1E1E1"/>
<rect x="272.971" y="116.05" width="50.2446" height="12.5611" rx="6.28057" fill="#E1E1E1"/>
<rect x="168.295" y="116.05" width="100.489" height="12.5611" rx="6.28057" fill="#E1E1E1"/>
<rect x="272.971" y="136.986" width="50.2446" height="12.5611" rx="6.28057" fill="#E1E1E1"/>
<rect x="126.424" y="136.986" width="142.36" height="12.5611" rx="6.28057" fill="#E1E1E1"/>
<rect x="272.971" y="157.921" width="50.2446" height="12.5611" rx="6.28057" fill="#E1E1E1"/>
<rect x="138.985" y="157.921" width="129.798" height="12.5611" rx="6.28057" fill="#E1E1E1"/>
<rect x="272.97" y="178.856" width="50.2446" height="12.5611" rx="6.28057" fill="#E1E1E1"/>
<rect x="107.582" y="178.856" width="161.201" height="12.5611" rx="6.28057" fill="#E1E1E1"/>
<rect x="21.7484" y="178.856" width="66.9928" height="12.5611" rx="6.28057" fill="#E1E1E1"/>
<path d="M302.204 19.8698C303.323 15.4437 309.612 15.4437 310.73 19.8698C311.401 22.5266 314.313 23.9287 316.809 22.7971C320.966 20.9118 324.887 25.8286 322.124 29.4627C320.466 31.644 321.185 34.7945 323.626 36.0402C327.692 38.1155 326.292 44.2466 321.728 44.3521C318.989 44.4154 316.974 46.9419 317.522 49.6268C318.435 54.0999 312.769 56.8285 309.841 53.3259C308.083 51.2236 304.851 51.2236 303.094 53.3259C300.166 56.8285 294.5 54.0999 295.413 49.6268C295.96 46.9419 293.946 44.4154 291.206 44.3521C286.642 44.2466 285.243 38.1155 289.309 36.0402C291.75 34.7945 292.469 31.644 290.81 29.4627C288.047 25.8286 291.968 20.9118 296.126 22.7971C298.622 23.9287 301.533 22.5266 302.204 19.8698Z" fill="#E1E1E1"/>
</g>
<path d="M122.07 47.24C121.76 47.24 121.494 47.1333 121.27 46.92C121.056 46.696 120.95 46.4347 120.95 46.136C120.95 45.8373 121.062 45.5813 121.286 45.368C121.51 45.144 121.771 45.032 122.07 45.032C122.368 45.032 122.624 45.144 122.838 45.368C123.062 45.5813 123.174 45.8373 123.174 46.136C123.174 46.4347 123.062 46.696 122.838 46.92C122.624 47.1333 122.368 47.24 122.07 47.24ZM125.206 47.24C124.907 47.24 124.646 47.1333 124.422 46.92C124.208 46.696 124.102 46.4347 124.102 46.136C124.102 45.8373 124.208 45.5813 124.422 45.368C124.646 45.144 124.907 45.032 125.206 45.032C125.504 45.032 125.76 45.144 125.974 45.368C126.198 45.5813 126.31 45.8373 126.31 46.136C126.31 46.4347 126.203 46.696 125.99 46.92C125.776 47.1333 125.515 47.24 125.206 47.24ZM128.518 54.872V56.712H128.006C127.536 56.712 127.104 56.6213 126.71 56.44C126.315 56.248 125.984 55.9813 125.718 55.64C125.099 56.3227 124.267 56.664 123.222 56.664C122.603 56.664 122.032 56.504 121.51 56.184C120.987 55.864 120.571 55.4373 120.262 54.904C119.963 54.36 119.814 53.7733 119.814 53.144V52.04C119.814 51.3787 119.963 50.7813 120.262 50.248C120.571 49.7147 120.987 49.2933 121.51 48.984C122.043 48.6747 122.64 48.52 123.302 48.52H126.966V53.832C126.966 54.1413 127.062 54.392 127.254 54.584C127.446 54.776 127.696 54.872 128.006 54.872H128.518ZM125.126 50.36H123.302C122.811 50.36 122.411 50.5147 122.102 50.824C121.803 51.1333 121.654 51.5387 121.654 52.04V53.144C121.654 53.6027 121.803 53.9973 122.102 54.328C122.411 54.648 122.784 54.808 123.222 54.808C123.616 54.808 123.979 54.7333 124.31 54.584C124.64 54.4347 124.912 54.216 125.126 53.928V50.36Z" fill="#646363"/>
<path d="M135.632 54.872V56.712H133.984C133.632 56.712 133.291 56.632 132.96 56.472C132.63 56.312 132.336 56.0933 132.08 55.816C131.558 56.4133 130.838 56.712 129.92 56.712H128.368L127.568 56.424V55.176L128.368 54.872H129.952C130.742 54.872 131.147 54.4507 131.168 53.608L131.152 49.144H133.008V52.84C133.008 53.032 133.003 53.1813 132.992 53.288V53.56C132.992 53.9547 133.088 54.2747 133.28 54.52C133.472 54.7547 133.787 54.872 134.224 54.872H135.632ZM130.208 58.2C130.507 58.2 130.763 58.3067 130.976 58.52C131.2 58.744 131.312 59.0053 131.312 59.304C131.312 59.6027 131.2 59.864 130.976 60.088C130.763 60.312 130.507 60.424 130.208 60.424C129.91 60.424 129.648 60.312 129.424 60.088C129.2 59.8747 129.088 59.6133 129.088 59.304C129.088 59.0053 129.2 58.744 129.424 58.52C129.648 58.3067 129.91 58.2 130.208 58.2ZM133.344 58.2C133.643 58.2 133.899 58.3067 134.112 58.52C134.336 58.744 134.448 59.0053 134.448 59.304C134.448 59.6133 134.336 59.8747 134.112 60.088C133.899 60.312 133.643 60.424 133.344 60.424C133.046 60.424 132.784 60.312 132.56 60.088C132.347 59.8747 132.24 59.6133 132.24 59.304C132.24 59.0053 132.347 58.744 132.56 58.52C132.784 58.3067 133.046 58.2 133.344 58.2Z" fill="#646363"/>
<path d="M137.927 47.944C137.628 47.944 137.367 47.832 137.143 47.608C136.919 47.384 136.807 47.1227 136.807 46.824C136.807 46.5253 136.919 46.2693 137.143 46.056C137.367 45.832 137.628 45.72 137.927 45.72C138.226 45.72 138.482 45.832 138.695 46.056C138.919 46.2693 139.031 46.5253 139.031 46.824C139.031 47.1333 138.919 47.4 138.695 47.624C138.482 47.8373 138.226 47.944 137.927 47.944ZM140.759 54.872V56.712H139.991C139.639 56.712 139.298 56.632 138.967 56.472C138.636 56.312 138.348 56.0933 138.103 55.816C137.58 56.4133 136.86 56.712 135.943 56.712H135.415L134.615 56.424V55.176L135.415 54.872H135.959C136.77 54.872 137.175 54.4347 137.175 53.56V49.144H139.015V53.56C139.015 54.4347 139.426 54.872 140.247 54.872H140.759Z" fill="#646363"/>
<path d="M148.668 48.648C149.543 48.648 150.289 48.8293 150.908 49.192C151.527 49.5547 151.991 50.056 152.3 50.696C152.609 51.336 152.764 52.056 152.764 52.856C152.764 53.5493 152.588 54.1947 152.236 54.792C151.895 55.3787 151.431 55.848 150.844 56.2C150.257 56.5413 149.617 56.712 148.924 56.712H140.54V54.872H142.284V45.576H144.108V51.224C145.687 49.5067 147.207 48.648 148.668 48.648ZM149.132 54.872C149.644 54.872 150.076 54.6907 150.428 54.328C150.791 53.9653 150.972 53.5333 150.972 53.032C150.972 52.232 150.743 51.608 150.284 51.16C149.825 50.7013 149.217 50.472 148.46 50.472C146.999 50.472 145.548 51.3307 144.108 53.048V54.872H149.132Z" fill="#646363"/>
<path d="M162.701 56.712H161.853V57.432C161.853 58.3387 161.527 59.064 160.877 59.608C160.226 60.152 159.303 60.424 158.109 60.424C157.447 60.424 156.701 60.328 155.869 60.136V58.424C156.626 58.552 157.255 58.616 157.757 58.616C158.557 58.616 159.133 58.472 159.485 58.184C159.837 57.9067 160.013 57.5067 160.013 56.984V56.696H158.077C157.458 56.696 156.887 56.536 156.365 56.216C155.853 55.896 155.442 55.4693 155.133 54.936C154.834 54.392 154.685 53.8053 154.685 53.176V52.04C154.685 51.3787 154.834 50.7813 155.133 50.248C155.442 49.7147 155.863 49.2987 156.397 49C156.93 48.6907 157.527 48.536 158.189 48.536H158.365C159.026 48.536 159.618 48.6907 160.141 49C160.674 49.2987 161.09 49.7147 161.389 50.248C161.698 50.7813 161.853 51.3787 161.853 52.04V54.872H162.701V56.712ZM160.013 54.856V52.04C160.013 51.5493 159.858 51.1493 159.549 50.84C159.25 50.5307 158.855 50.376 158.365 50.376H158.189C157.698 50.376 157.298 50.5307 156.989 50.84C156.679 51.1493 156.525 51.5493 156.525 52.04V53.176C156.525 53.6347 156.679 54.0293 156.989 54.36C157.309 54.6907 157.677 54.856 158.093 54.856H160.013Z" fill="#646363"/>
<path d="M165.98 45.576V54.792C165.98 55.336 165.793 55.7947 165.42 56.168C165.057 56.5307 164.609 56.712 164.076 56.712H162.604L161.804 56.408V55.16L162.604 54.872H163.468C163.649 54.872 163.804 54.8133 163.932 54.696C164.07 54.568 164.14 54.3867 164.14 54.152V45.576H165.98Z" fill="#646363"/>
<path d="M168.177 56.712V45.576H170.017V56.712H168.177Z" fill="#646363"/>
<path d="M177.617 47.24C177.307 47.24 177.041 47.1333 176.817 46.92C176.603 46.696 176.497 46.4347 176.497 46.136C176.497 45.8373 176.609 45.5813 176.833 45.368C177.057 45.144 177.318 45.032 177.617 45.032C177.915 45.032 178.171 45.144 178.385 45.368C178.609 45.5813 178.721 45.8373 178.721 46.136C178.721 46.4347 178.609 46.696 178.385 46.92C178.171 47.1333 177.915 47.24 177.617 47.24ZM180.753 47.24C180.454 47.24 180.193 47.1333 179.969 46.92C179.755 46.696 179.649 46.4347 179.649 46.136C179.649 45.8373 179.755 45.5813 179.969 45.368C180.193 45.144 180.454 45.032 180.753 45.032C181.051 45.032 181.307 45.144 181.521 45.368C181.745 45.5813 181.857 45.8373 181.857 46.136C181.857 46.4347 181.75 46.696 181.537 46.92C181.323 47.1333 181.062 47.24 180.753 47.24ZM184.065 54.872V56.712H183.553C183.083 56.712 182.651 56.6213 182.257 56.44C181.862 56.248 181.531 55.9813 181.265 55.64C180.646 56.3227 179.814 56.664 178.769 56.664C178.15 56.664 177.579 56.504 177.057 56.184C176.534 55.864 176.118 55.4373 175.809 54.904C175.51 54.36 175.361 53.7733 175.361 53.144V52.04C175.361 51.3787 175.51 50.7813 175.809 50.248C176.118 49.7147 176.534 49.2933 177.057 48.984C177.59 48.6747 178.187 48.52 178.849 48.52H182.513V53.832C182.513 54.1413 182.609 54.392 182.801 54.584C182.993 54.776 183.243 54.872 183.553 54.872H184.065ZM180.673 50.36H178.849C178.358 50.36 177.958 50.5147 177.649 50.824C177.35 51.1333 177.201 51.5387 177.201 52.04V53.144C177.201 53.6027 177.35 53.9973 177.649 54.328C177.958 54.648 178.331 54.808 178.769 54.808C179.163 54.808 179.526 54.7333 179.857 54.584C180.187 54.4347 180.459 54.216 180.673 53.928V50.36Z" fill="#646363"/>
<path d="M186.875 47.224C186.566 47.224 186.304 47.1173 186.091 46.904C185.878 46.68 185.771 46.4133 185.771 46.104C185.771 45.8053 185.878 45.5493 186.091 45.336C186.315 45.112 186.576 45 186.875 45C187.174 45 187.43 45.112 187.643 45.336C187.867 45.5493 187.979 45.8053 187.979 46.104C187.979 46.4133 187.872 46.68 187.659 46.904C187.446 47.1173 187.184 47.224 186.875 47.224ZM190.027 47.224C189.718 47.224 189.451 47.1173 189.227 46.904C189.014 46.68 188.907 46.4133 188.907 46.104C188.907 45.8053 189.019 45.5493 189.243 45.336C189.467 45.112 189.728 45 190.027 45C190.326 45 190.582 45.112 190.795 45.336C191.019 45.5493 191.131 45.8053 191.131 46.104C191.131 46.4133 191.019 46.68 190.795 46.904C190.582 47.1173 190.326 47.224 190.027 47.224ZM188.587 48.536C189.238 48.536 189.83 48.6907 190.363 49C190.896 49.3093 191.318 49.736 191.627 50.28C191.936 50.8133 192.091 51.4053 192.091 52.056V53.448C192.091 54.0347 191.942 54.5787 191.643 55.08C191.355 55.5813 190.96 55.9813 190.459 56.28C189.958 56.568 189.414 56.712 188.827 56.712H183.963L183.163 56.408V55.16L183.963 54.856H185.563C185.36 54.6427 185.2 54.392 185.083 54.104C184.966 53.8053 184.907 53.496 184.907 53.176V52.056C184.907 51.4053 185.062 50.8133 185.371 50.28C185.68 49.736 186.102 49.3093 186.635 49C187.168 48.6907 187.76 48.536 188.411 48.536H188.587ZM190.251 52.056C190.251 51.5653 190.091 51.1653 189.771 50.856C189.462 50.5467 189.067 50.392 188.587 50.392H188.411C187.931 50.392 187.536 50.5467 187.227 50.856C186.918 51.1653 186.763 51.5653 186.763 52.056V53.176C186.763 53.6347 186.918 54.0293 187.227 54.36C187.536 54.6907 187.899 54.856 188.315 54.856H188.651C189.088 54.856 189.462 54.7013 189.771 54.392C190.091 54.0827 190.251 53.7093 190.251 53.272V52.056Z" fill="#646363"/>
<path d="M195.938 54.152C195.938 54.3867 196.002 54.568 196.13 54.696C196.269 54.8133 196.429 54.872 196.61 54.872H197.474V56.712H196.018C195.485 56.712 195.031 56.5307 194.658 56.168C194.285 55.7947 194.098 55.336 194.098 54.792V45.576H195.938V54.152Z" fill="#646363"/>
<path d="M211.291 54.872V56.712H197.323V56.696L196.539 56.408V55.16L197.323 54.888V54.872H199.051V45.576H200.891V51.288C202.437 49.528 203.957 48.648 205.451 48.648C206.816 48.648 207.835 49.0427 208.507 49.832C209.189 50.6213 209.531 51.832 209.531 53.464V54.872H211.291ZM207.755 53.464C207.755 52.44 207.531 51.688 207.083 51.208C206.635 50.7173 206.021 50.472 205.243 50.472C203.781 50.472 202.331 51.3307 200.891 53.048V54.872H207.755V53.464Z" fill="#646363"/>
<path d="M217.229 54.872V56.712H216.109C215.757 56.712 215.416 56.632 215.085 56.472C214.754 56.312 214.461 56.0933 214.205 55.816C213.682 56.4133 212.962 56.712 212.045 56.712H211.165L210.365 56.424V55.176L211.165 54.872H212.077C212.866 54.872 213.272 54.4507 213.293 53.608L213.277 49.144H215.133V52.84C215.133 53.032 215.128 53.1813 215.117 53.288V53.56C215.117 53.9547 215.213 54.2747 215.405 54.52C215.597 54.7547 215.912 54.872 216.349 54.872H217.229ZM214.189 58.52C214.488 58.52 214.744 58.6267 214.957 58.84C215.181 59.064 215.293 59.3253 215.293 59.624C215.293 59.9227 215.181 60.184 214.957 60.408C214.744 60.632 214.488 60.744 214.189 60.744C213.89 60.744 213.629 60.632 213.405 60.408C213.181 60.1947 213.069 59.9333 213.069 59.624C213.069 59.3253 213.181 59.064 213.405 58.84C213.629 58.6267 213.89 58.52 214.189 58.52Z" fill="#646363"/>
<path d="M220.277 45.576V54.792C220.277 55.336 220.09 55.7947 219.717 56.168C219.354 56.5307 218.906 56.712 218.373 56.712H216.901L216.101 56.408V55.16L216.901 54.872H217.765C217.946 54.872 218.101 54.8133 218.229 54.696C218.367 54.568 218.437 54.3867 218.437 54.152V45.576H220.277Z" fill="#646363"/>
<path d="M222.474 56.712V45.576H224.314V56.712H222.474Z" fill="#646363"/>
<line x1="228.128" y1="76.2441" x2="116" y2="76.2441" stroke="#E1E1E1" stroke-dasharray="2 2"/>
<rect x="111.5" y="64.5" width="121" height="24" rx="11.5" fill="#1FA35E" fill-opacity="0.17" stroke="url(#paint0_linear_3266_30677)"/>
<defs>
<filter id="filter0_d_3266_30677" x="0.292519" y="0.646259" width="344.379" height="218.768" filterUnits="userSpaceOnUse" color-interpolation-filters="sRGB">
<feFlood flood-opacity="0" result="BackgroundImageFix"/>
<feColorMatrix in="SourceAlpha" type="matrix" values="0 0 0 0 0 0 0 0 0 0 0 0 0 0 0 0 0 0 127 0" result="hardAlpha"/>
<feOffset dy="2.35374"/>
<feGaussianBlur stdDeviation="2.35374"/>
<feComposite in2="hardAlpha" operator="out"/>
<feColorMatrix type="matrix" values="0 0 0 0 0 0 0 0 0 0 0 0 0 0 0 0 0 0 0.08 0"/>
<feBlend mode="normal" in2="BackgroundImageFix" result="effect1_dropShadow_3266_30677"/>
<feBlend mode="normal" in="SourceGraphic" in2="effect1_dropShadow_3266_30677" result="shape"/>
</filter>
<linearGradient id="paint0_linear_3266_30677" x1="63.9898" y1="94.476" x2="121.572" y2="-2.2291" gradientUnits="userSpaceOnUse">
<stop stop-color="#1FA35E"/>
<stop offset="1" stop-color="#74CBA1"/>
</linearGradient>
</defs>
</svg>
