<svg width="59" height="68" viewBox="0 0 59 68" fill="none" xmlns="http://www.w3.org/2000/svg">
<path fill-rule="evenodd" clip-rule="evenodd" d="M26.3473 0.218779C18.75 1.55662 14.857 7.15356 15.2031 16.2411C15.2556 17.6186 15.3391 19.0871 15.3887 19.5045L15.479 20.2635L14.6703 20.7947C13.4657 21.5861 12.96 22.5006 12.8912 24.0115C12.8436 25.0618 12.8858 25.3024 13.2478 26.0422C13.747 27.0627 14.5351 27.6396 15.5675 27.7403L16.2847 27.8102L16.9351 29.8047C17.9396 32.8856 19.688 36.0821 21.137 37.4864L21.6731 38.006V41.3126C21.6731 44.617 21.6728 44.6193 21.3316 44.6988C21.1437 44.7427 20.0338 44.9514 18.8651 45.1627C11.9099 46.4204 8.56123 47.8379 5.85671 50.6686C2.83754 53.8287 1.31088 58.5827 0.790563 66.4443L0.6875 68.0001H29.5646H58.4415L58.3359 66.3684C58.1001 62.7275 57.4842 59.0606 56.7107 56.692C55.7827 53.8501 54.645 51.9569 52.8148 50.2082C50.254 47.7617 47.1843 46.4899 40.9745 45.3025C39.4165 45.0047 37.9882 44.729 37.8003 44.69L37.4588 44.6193V41.3126V38.006L37.9949 37.4864C39.4589 36.0675 41.1826 32.9165 42.1969 29.8047L42.8472 27.8102L43.5644 27.7403C44.5968 27.6396 45.3849 27.0627 45.8841 26.0422C46.2461 25.3024 46.2883 25.0618 46.2407 24.0115C46.1721 22.5041 45.6663 21.5873 44.4661 20.7955C43.7323 20.3111 43.6694 20.225 43.7455 19.8089C43.9838 18.5035 44.1172 15.1018 43.9926 13.509C43.6623 9.28858 42.5494 6.40283 40.3444 4.04909C38.662 2.25347 36.8441 1.20948 34.1834 0.51127C32.909 0.176886 32.2808 0.108279 30.0972 0.0645644C28.379 0.030109 27.1261 0.0815648 26.3473 0.218779Z" fill="#EDEDED"/>
<path fill-rule="evenodd" clip-rule="evenodd" d="M3.50424 0.398134C2.98392 0.657384 2.56332 1.01074 2.29815 1.4113L1.89091 2.02634L1.84735 7.40805C1.80788 12.2877 1.82777 12.816 2.06061 13.0735C2.38573 13.4326 3.05981 13.4391 3.37932 13.0861C3.59304 12.85 3.63022 12.1565 3.66847 7.70297C3.70854 3.0345 3.73587 2.5673 3.98312 2.32004C4.22917 2.07385 4.72369 2.04212 9.39383 1.97321C14.1751 1.90263 14.5559 1.87713 14.853 1.60817C15.2553 1.24373 15.2619 0.696848 14.8686 0.303571C14.577 0.0119911 14.3627 0 9.43405 0H4.30324L3.50424 0.398134ZM26.7838 0.168331C19.0122 1.28821 14.8115 7.1825 15.2212 16.3929C15.3447 19.1713 16.0991 24.2857 16.3854 24.2857C16.5759 24.2857 17.8173 22.2199 18.5127 20.7456C19.2135 19.2602 20.138 16.7394 20.4845 15.3698C20.6164 14.8487 20.7257 14.7105 21.0593 14.6429C23.0793 14.234 24.4364 13.6502 26.0846 12.4812L27.0553 11.7927L26.9797 13.2201C26.9246 14.2639 26.8011 14.9022 26.5201 15.596C26.3088 16.1178 26.2005 16.5446 26.2792 16.5446C26.358 16.5446 27.1722 16.2437 28.0884 15.8757C29.9766 15.1176 31.5895 14.2071 32.402 13.4409L32.9549 12.9194L34.9866 13.9731C37.0383 15.0373 37.6299 15.1948 38.43 14.8908C38.7841 14.7562 38.7897 14.7701 38.964 16.2189C39.3326 19.2848 40.5327 22.3216 41.8694 23.5722C42.2891 23.9645 42.6982 24.2857 42.7785 24.2857C42.9465 24.2857 43.3084 22.7847 43.6728 20.577C43.8598 19.4437 43.9246 18.0883 43.9234 15.3304C43.9219 11.7956 43.9022 11.5392 43.5245 10.1498C42.6923 7.08627 41.9031 5.63732 40.065 3.79646C38.066 1.79471 35.9126 0.743295 32.7666 0.232991C31.2382 -0.014875 28.2769 -0.0469016 26.7838 0.168331ZM44.315 0.303571C43.9217 0.696848 43.9283 1.24373 44.3307 1.60817C44.6277 1.87713 45.0085 1.90263 49.7898 1.97321C54.4599 2.04212 54.9544 2.07385 55.2005 2.32004C55.4477 2.5673 55.4751 3.0345 55.5151 7.70297C55.5534 12.1565 55.5906 12.85 55.8043 13.0861C56.1238 13.4391 56.7979 13.4326 57.123 13.0735C57.3558 12.816 57.3757 12.2877 57.3363 7.40805L57.2927 2.02634L56.8855 1.4113C56.6203 1.01074 56.1997 0.657384 55.6794 0.398134L54.8804 0H49.7495C44.8209 0 44.6066 0.0119911 44.315 0.303571ZM2.06622 30.483C1.84264 30.7299 1.81502 31.3375 1.81502 35.9992C1.81502 41.1904 1.81821 41.244 2.16822 41.907C2.36236 42.2749 2.81225 42.7808 3.16758 43.0312L3.81388 43.4866L9.20926 43.5302C14.1018 43.5696 14.631 43.5497 14.8885 43.3169C15.2476 42.9918 15.2541 42.3177 14.9011 41.9982C14.665 41.7845 13.9714 41.7473 9.51678 41.709C4.42649 41.6653 4.4019 41.6637 4.05796 41.3196C3.71386 40.9756 3.71219 40.951 3.66847 35.8607C3.63022 31.4061 3.59304 30.7125 3.37932 30.4764C3.06194 30.1257 2.38649 30.129 2.06622 30.483ZM55.8043 30.4764C55.5906 30.7125 55.5534 31.4061 55.5151 35.8607C55.4714 40.951 55.4697 40.9756 55.1256 41.3196C54.7817 41.6637 54.7571 41.6653 49.6668 41.709C45.2122 41.7473 44.5186 41.7845 44.2825 41.9982C43.9295 42.3177 43.936 42.9918 44.2951 43.3169C44.5526 43.5497 45.0818 43.5696 49.9743 43.5302L55.3697 43.4866L56.016 43.0312C56.3714 42.7808 56.8213 42.2749 57.0154 41.907C57.3656 41.2438 57.3686 41.1916 57.3686 35.9729C57.3686 31.0649 57.3498 30.6908 57.091 30.4566C56.727 30.1272 56.1118 30.1366 55.8043 30.4764ZM21.6989 39.7522V41.2837L22.344 41.7588C23.2335 42.4138 25.5337 43.5066 26.632 43.7963C30.0185 44.6891 34.0699 43.8468 36.9914 41.6424L37.4847 41.2702V39.7405V38.2107L36.8396 38.7603C35.7649 39.676 34.0602 40.6856 32.895 41.0961C31.5529 41.5691 29.0548 41.732 27.5796 41.4424C25.887 41.1103 23.9387 40.1041 22.2681 38.6993L21.6989 38.2206V39.7522ZM21.0159 44.7885C20.682 44.8545 19.2924 45.1213 17.928 45.3815C11.9129 46.5284 8.30234 48.1077 5.90519 50.6407C2.8593 53.859 1.53027 58.0904 0.822035 66.8237L0.726562 68H29.5851H58.4437L58.3535 66.8237C57.8803 60.6569 57.091 56.9612 55.6199 54.0228C53.5943 49.9771 50.2995 47.5904 44.7456 46.1459C43.7991 45.8997 41.7954 45.4642 40.2927 45.1781L37.5606 44.6579L36.9534 45.0275C34.3265 46.6264 32.3265 47.2225 29.5918 47.2218C26.9093 47.221 24.8415 46.6066 22.2302 45.0341C21.7249 44.7299 21.5212 44.6886 21.0159 44.7885Z" fill="#D7D9DC"/>
</svg>
