<svg width="335" height="210" viewBox="0 0 335 210" fill="none" xmlns="http://www.w3.org/2000/svg">
<rect y="0.101074" width="334.964" height="209.352" rx="18.8299" fill="black" fill-opacity="0.04"/>
<rect x="1.17687" y="1.17687" width="332.61" height="206.999" rx="10.8231" fill="white" stroke="#EDEDF1" stroke-width="2.35374"/>
<rect x="248.398" y="16.7485" width="70.2448" height="12.5611" rx="6.28057" fill="#E1E1E1"/>
<rect x="138.844" y="16.7485" width="105.367" height="12.5611" rx="6.28057" fill="#E1E1E1"/>
<rect x="248.398" y="37.6826" width="70.2448" height="12.5611" rx="6.28057" fill="#E1E1E1"/>
<rect x="103.721" y="37.6826" width="140.49" height="12.5611" rx="6.28057" fill="#E1E1E1"/>
<rect x="248.398" y="58.6191" width="70.2448" height="12.5611" rx="6.28057" fill="#E1E1E1"/>
<rect x="45.1837" y="58.6191" width="199.027" height="12.5611" rx="6.28057" fill="#E1E1E1"/>
<rect x="248.397" y="79.5547" width="70.2448" height="12.5611" rx="6.28057" fill="#E1E1E1"/>
<rect x="62.7448" y="79.5547" width="181.466" height="12.5611" rx="6.28057" fill="#E1E1E1"/>
<rect x="16.7483" y="129.799" width="301.467" height="62.8057" rx="9.41496" fill="#E1E1E1"/>
<line x1="237.128" y1="110.874" x2="125" y2="110.874" stroke="#E1E1E1" stroke-dasharray="2 2"/>
<path d="M263.972 110.968V112.348H261.224V107.632H260.396C260.052 107.632 259.772 107.744 259.556 107.968C259.34 108.184 259.232 108.464 259.232 108.808V111.976C259.232 112.632 259.076 113.228 258.764 113.764C258.46 114.3 258.036 114.72 257.492 115.024C256.956 115.328 256.36 115.48 255.704 115.48H255.632C254.976 115.48 254.38 115.328 253.844 115.024C253.308 114.72 252.888 114.3 252.584 113.764C252.28 113.228 252.128 112.632 252.128 111.976V109.612H253.496V111.976C253.496 112.608 253.692 113.12 254.084 113.512C254.484 113.904 255 114.1 255.632 114.1H255.704C256.336 114.1 256.848 113.904 257.24 113.512C257.64 113.12 257.84 112.608 257.84 111.976V108.808C257.84 108.328 257.952 107.896 258.176 107.512C258.4 107.12 258.704 106.812 259.088 106.588C259.48 106.364 259.916 106.252 260.396 106.252H262.604V110.968H263.972ZM254.336 116.08C254.56 116.08 254.752 116.16 254.912 116.32C255.08 116.488 255.164 116.684 255.164 116.908C255.164 117.14 255.084 117.336 254.924 117.496C254.764 117.664 254.568 117.748 254.336 117.748C254.112 117.748 253.916 117.664 253.748 117.496C253.588 117.336 253.508 117.14 253.508 116.908C253.508 116.684 253.588 116.488 253.748 116.32C253.916 116.16 254.112 116.08 254.336 116.08ZM256.7 116.08C256.924 116.08 257.116 116.16 257.276 116.32C257.444 116.488 257.528 116.684 257.528 116.908C257.528 117.14 257.444 117.336 257.276 117.496C257.116 117.664 256.924 117.748 256.7 117.748C256.468 117.748 256.268 117.664 256.1 117.496C255.94 117.336 255.86 117.14 255.86 116.908C255.86 116.684 255.944 116.488 256.112 116.32C256.28 116.16 256.476 116.08 256.7 116.08Z" fill="#646363"/>
<path d="M267.827 110.968V112.348H267.251C266.987 112.348 266.731 112.288 266.483 112.168C266.235 112.048 266.019 111.884 265.835 111.676C265.443 112.124 264.903 112.348 264.215 112.348H263.891L263.303 112.12V111.184L263.891 110.968H264.227C264.835 110.968 265.139 110.64 265.139 109.984V103.996H266.519V109.984C266.519 110.64 266.827 110.968 267.443 110.968H267.827Z" fill="#646363"/>
<path d="M271.166 104.896V105.676H268.598V104.896H269.03C268.83 104.68 268.73 104.424 268.73 104.128C268.73 103.784 268.83 103.512 269.03 103.312C269.238 103.104 269.518 103 269.87 103C270.23 103 270.514 103.108 270.722 103.324C270.938 103.54 271.062 103.856 271.094 104.272H270.398C270.374 104.112 270.318 103.988 270.23 103.9C270.142 103.812 270.03 103.768 269.894 103.768C269.758 103.768 269.65 103.808 269.57 103.888C269.498 103.96 269.462 104.068 269.462 104.212C269.462 104.332 269.494 104.456 269.558 104.584C269.63 104.704 269.746 104.808 269.906 104.896H271.166ZM269.258 106.66H270.626V110.56C270.626 110.896 270.546 111.2 270.386 111.472C270.234 111.744 270.022 111.96 269.75 112.12C269.478 112.272 269.178 112.348 268.85 112.348H267.77L267.17 112.132V111.184L267.77 110.968H268.334C268.662 110.968 268.898 110.88 269.042 110.704C269.186 110.52 269.258 110.28 269.258 109.984V106.66Z" fill="#646363"/>
<path d="M273.517 110.428C273.517 110.604 273.565 110.74 273.661 110.836C273.765 110.924 273.885 110.968 274.021 110.968H274.669V112.348H273.577C273.177 112.348 272.837 112.212 272.557 111.94C272.277 111.66 272.137 111.316 272.137 110.908V103.996H273.517V110.428Z" fill="#646363"/>
<path d="M282.283 110.968V112.348H279.907C279.259 112.348 278.751 112.116 278.383 111.652C278.135 111.892 277.867 112.068 277.579 112.18C277.299 112.292 277.023 112.348 276.751 112.348H274.555L273.967 112.12V111.184L274.555 110.968H276.403C276.531 110.968 276.719 110.944 276.967 110.896C277.223 110.848 277.395 110.792 277.483 110.728L275.407 107.896V106.876C276.471 106.46 277.491 106.252 278.467 106.252C279.323 106.252 280.007 106.412 280.519 106.732C281.031 107.044 281.287 107.48 281.287 108.04C281.287 108.272 281.239 108.516 281.143 108.772C281.007 109.164 280.835 109.488 280.627 109.744C280.427 109.992 280.115 110.324 279.691 110.74C280.035 110.892 280.403 110.968 280.795 110.968H282.283ZM279.583 108.568C279.647 108.408 279.679 108.272 279.679 108.16C279.679 107.744 279.263 107.536 278.431 107.536C277.887 107.536 277.367 107.632 276.871 107.824V107.884L278.515 110.116C278.811 109.804 279.035 109.544 279.187 109.336C279.347 109.12 279.479 108.864 279.583 108.568Z" fill="#646363"/>
<path d="M284.751 103.996V110.908C284.751 111.316 284.611 111.66 284.331 111.94C284.059 112.212 283.723 112.348 283.323 112.348H282.219L281.619 112.12V111.184L282.219 110.968H282.867C283.003 110.968 283.119 110.924 283.215 110.836C283.319 110.74 283.371 110.604 283.371 110.428V103.996H284.751Z" fill="#646363"/>
<path d="M286.399 112.348V103.996H287.779V112.348H286.399Z" fill="#646363"/>
<path d="M299.803 112.348H299.419C299.107 112.348 298.823 112.288 298.567 112.168C298.319 112.04 298.111 111.868 297.943 111.652C297.719 111.932 297.439 112.152 297.103 112.312C296.775 112.464 296.411 112.54 296.011 112.54C295.523 112.54 295.099 112.476 294.739 112.348C294.379 112.212 294.059 112 293.779 111.712C293.523 111.736 293.323 111.832 293.179 112C293.043 112.16 292.975 112.364 292.975 112.612V115.432H291.583V112.612C291.583 112.06 291.747 111.58 292.075 111.172C292.403 110.764 292.827 110.504 293.347 110.392L293.359 108.832C293.359 108.328 293.471 107.876 293.695 107.476C293.927 107.068 294.243 106.748 294.643 106.516C295.051 106.284 295.507 106.168 296.011 106.168C296.515 106.168 296.967 106.284 297.367 106.516C297.775 106.748 298.095 107.068 298.327 107.476C298.559 107.876 298.675 108.328 298.675 108.832V110.212C298.675 110.436 298.743 110.62 298.879 110.764C299.015 110.9 299.195 110.968 299.419 110.968H299.803V112.348ZM296.011 111.16C296.395 111.16 296.703 111.044 296.935 110.812C297.175 110.572 297.295 110.26 297.295 109.876V108.832C297.295 108.456 297.175 108.148 296.935 107.908C296.703 107.668 296.395 107.548 296.011 107.548C295.635 107.548 295.327 107.668 295.087 107.908C294.855 108.148 294.739 108.456 294.739 108.832V110.704C294.883 110.864 295.051 110.98 295.243 111.052C295.443 111.124 295.699 111.16 296.011 111.16Z" fill="#646363"/>
<path d="M301.923 105.232C301.691 105.232 301.495 105.152 301.335 104.992C301.175 104.824 301.095 104.624 301.095 104.392C301.095 104.168 301.175 103.976 301.335 103.816C301.503 103.648 301.699 103.564 301.923 103.564C302.147 103.564 302.339 103.648 302.499 103.816C302.667 103.976 302.751 104.168 302.751 104.392C302.751 104.624 302.671 104.824 302.511 104.992C302.351 105.152 302.155 105.232 301.923 105.232ZM304.287 105.232C304.055 105.232 303.855 105.152 303.687 104.992C303.527 104.824 303.447 104.624 303.447 104.392C303.447 104.168 303.531 103.976 303.699 103.816C303.867 103.648 304.063 103.564 304.287 103.564C304.511 103.564 304.703 103.648 304.863 103.816C305.031 103.976 305.115 104.168 305.115 104.392C305.115 104.624 305.031 104.824 304.863 104.992C304.703 105.152 304.511 105.232 304.287 105.232ZM303.207 106.216C303.695 106.216 304.139 106.332 304.539 106.564C304.939 106.796 305.255 107.116 305.487 107.524C305.719 107.924 305.835 108.368 305.835 108.856V109.9C305.835 110.34 305.723 110.748 305.499 111.124C305.283 111.5 304.987 111.8 304.611 112.024C304.235 112.24 303.827 112.348 303.387 112.348H299.739L299.139 112.12V111.184L299.739 110.956H300.939C300.787 110.796 300.667 110.608 300.579 110.392C300.491 110.168 300.447 109.936 300.447 109.696V108.856C300.447 108.368 300.563 107.924 300.795 107.524C301.027 107.116 301.343 106.796 301.743 106.564C302.143 106.332 302.587 106.216 303.075 106.216H303.207ZM304.455 108.856C304.455 108.488 304.335 108.188 304.095 107.956C303.863 107.724 303.567 107.608 303.207 107.608H303.075C302.715 107.608 302.419 107.724 302.187 107.956C301.955 108.188 301.839 108.488 301.839 108.856V109.696C301.839 110.04 301.955 110.336 302.187 110.584C302.419 110.832 302.691 110.956 303.003 110.956H303.255C303.583 110.956 303.863 110.84 304.095 110.608C304.335 110.376 304.455 110.096 304.455 109.768V108.856Z" fill="#646363"/>
<path d="M310.772 112.348H309.692V112.492C309.692 112.98 309.576 113.42 309.344 113.812C309.12 114.204 308.812 114.512 308.42 114.736C308.028 114.968 307.588 115.084 307.1 115.084H306.5V113.704H307.1C307.452 113.704 307.74 113.592 307.964 113.368C308.188 113.144 308.3 112.852 308.3 112.492V106.564H309.692V110.968H310.772V112.348Z" fill="#646363"/>
<path d="M313.169 103.996V110.908C313.169 111.316 313.029 111.66 312.749 111.94C312.477 112.212 312.141 112.348 311.741 112.348H310.637L310.037 112.12V111.184L310.637 110.968H311.285C311.421 110.968 311.537 110.924 311.633 110.836C311.737 110.74 311.789 110.604 311.789 110.428V103.996H313.169Z" fill="#646363"/>
<path d="M314.817 112.348V103.996H316.197V112.348H314.817Z" fill="#646363"/>
<rect x="122.5" y="98.5" width="121" height="24" rx="11.5" fill="#1FA35E" fill-opacity="0.17" stroke="url(#paint0_linear_3266_30678)"/>
<defs>
<linearGradient id="paint0_linear_3266_30678" x1="74.9898" y1="128.476" x2="132.572" y2="31.7709" gradientUnits="userSpaceOnUse">
<stop stop-color="#1FA35E"/>
<stop offset="1" stop-color="#74CBA1"/>
</linearGradient>
</defs>
</svg>
