<svg width="41" height="24" viewBox="0 0 41 24" fill="none" xmlns="http://www.w3.org/2000/svg">
<path d="M11.72 22.7L25.72 8.70001C26.11 8.30001 26.11 7.67001 25.72 7.28001C25.32 6.88001 24.69 6.88001 24.3 7.28001L10.3 21.28C9.9 21.67 9.9 22.3 10.3 22.69C10.69 23.08 11.32 23.08 11.71 22.69L11.72 22.7Z" fill="#1FA35E"/>
<path d="M13.19 13.23L14.72 11.7H13.3L14.83 13.23C15.8 14.2 15.8 15.78 14.82 16.75L13.29 18.27H14.7L13.17 16.74C12.19 15.76 12.19 14.18 13.17 13.21L13.19 13.23ZM11.77 11.81C10.02 13.56 10.02 16.4 11.77 18.16L13.3 19.69C13.69 20.08 14.32 20.08 14.71 19.69L16.24 18.16C17.99 16.4 17.99 13.56 16.24 11.8L14.7 10.26C14.3 9.85999 13.67 9.85999 13.28 10.26L11.75 11.79L11.77 11.81Z" fill="#1FA35E"/>
<path d="M17.19 9.22999L18.72 7.69999H17.3L18.83 9.22999C19.8 10.2 19.8 11.78 18.82 12.75L17.29 14.27H18.7L17.17 12.74C16.19 11.76 16.19 10.18 17.17 9.20999L17.19 9.22999ZM15.77 7.80999C14.02 9.55999 14.02 12.4 15.769 14.16L17.299 15.69C17.689 16.08 18.319 16.08 18.709 15.69L20.239 14.16C21.989 12.4 21.989 9.55999 20.239 7.79999L18.69 6.25999C18.29 5.85999 17.66 5.85999 17.27 6.25999L15.74 7.78999L15.77 7.80999Z" fill="#1FA35E"/>
<path d="M21.19 5.22999L22.72 3.69999H21.3L22.83 5.22999C23.8 6.19999 23.8 7.77999 22.82 8.74999L21.29 10.27H22.7L21.17 8.73999C20.19 7.75999 20.19 6.17999 21.17 5.20999L21.19 5.22999ZM19.77 3.80999C18.02 5.55999 18.02 8.39999 19.769 10.16L21.299 11.69C21.689 12.08 22.319 12.08 22.709 11.69L24.239 10.16C25.989 8.39999 25.989 5.55999 24.239 3.79999L22.699 2.25999C22.299 1.85999 21.669 1.85999 21.279 2.25999L19.749 3.78999L19.77 3.80999Z" fill="#1FA35E"/>
<path d="M29.02 3H31.02L30.02 2V4C30.02 5.65 28.67 7 27.02 7H25.02L26.02 8V6C26.02 4.34 27.36 3 29.02 3ZM29.02 1C26.25 1 24.02 3.23 24.02 6V8C24.02 8.55 24.46 9 25.02 9H27.02C29.78 9 32.02 6.76 32.02 4V2C32.02 1.44 31.57 1 31.02 1H29.02Z" fill="#1FA35E"/>
<path d="M19.78 18.17L21.31 19.7V18.28L19.78 19.81C18.8 20.78 17.22 20.78 16.25 19.8L14.72 18.27V19.68L16.25 18.15C17.22 17.17 18.8 17.17 19.77 18.15L19.78 18.17ZM21.19 16.75C19.43 15 16.59 15 14.83 16.75L13.29 18.28C12.89 18.67 12.89 19.3 13.29 19.69L14.82 21.22C16.57 22.97 19.41 22.97 21.17 21.22L22.7 19.68C23.09 19.28 23.09 18.65 22.7 18.26L21.17 16.73L21.19 16.75Z" fill="#1FA35E"/>
<path d="M23.78 14.17L25.31 15.7V14.28L23.78 15.81C22.8 16.78 21.22 16.78 20.25 15.8L18.72 14.27V15.68L20.25 14.15C21.22 13.17 22.8 13.17 23.77 14.15L23.78 14.17ZM25.19 12.75C23.43 11 20.59 11 18.83 12.75L17.29 14.28C16.89 14.67 16.89 15.3 17.29 15.69L18.82 17.22C20.57 18.97 23.41 18.97 25.17 17.22L26.7 15.68C27.09 15.28 27.09 14.65 26.7 14.26L25.17 12.73L25.19 12.75Z" fill="#1FA35E"/>
<path d="M27.78 10.17L29.31 11.7V10.28L27.78 11.81C26.8 12.78 25.22 12.78 24.25 11.8L22.72 10.27V11.68L24.25 10.15C25.22 9.17 26.8 9.17 27.77 10.15L27.78 10.17ZM29.19 8.75C27.43 7 24.59 7 22.83 8.75L21.29 10.28C20.89 10.67 20.89 11.3 21.29 11.69L22.82 13.22C24.57 14.97 27.41 14.97 29.17 13.22L30.7 11.68C31.09 11.28 31.09 10.65 30.7 10.26L29.17 8.73L29.19 8.75Z" fill="#1FA35E"/>
</svg>
