<?xml version="1.0" encoding="UTF-8"?>
<svg id="Layer_2" data-name="Layer 2" xmlns="http://www.w3.org/2000/svg" xmlns:xlink="http://www.w3.org/1999/xlink" viewBox="0 0 1016.05 1755.1">
  <defs>
    <style>
      .cls-1 {
        fill: none;
      }

      .cls-2 {
        clip-path: url(#clippath);
      }

      .cls-3 {
        fill: #007a3d;
      }

      .cls-4 {
        fill: #f6c314;
      }

      .cls-5 {
        fill: #fef7f4;
      }

      .cls-6 {
        fill: #fffcfa;
      }

      .cls-7 {
        fill: #fffcfb;
      }

      .cls-8 {
        fill: #fff;
      }

      .cls-9 {
        fill: #fffdfc;
      }

      .cls-10 {
        fill: #fffefd;
      }

      .cls-11 {
        fill: #fefbf8;
      }

      .cls-12 {
        fill: #fefaf7;
      }

      .cls-13 {
        fill: #ffc000;
      }

      .cls-14 {
        fill: #fef8f5;
      }

      .cls-15 {
        fill: #fef9f6;
      }

      .cls-16 {
        fill: #ee9b21;
      }

      .cls-17 {
        fill: #fdf6f2;
      }

      .cls-18 {
        fill: #fdf4f0;
      }

      .cls-19 {
        fill: #fdf5f1;
      }

      .cls-20 {
        fill: #ce2028;
      }

      .cls-21 {
        fill: #1fa35e;
      }

      .cls-22 {
        fill: #201b17;
      }

      .cls-23 {
        clip-path: url(#clippath-483);
      }

      .cls-24 {
        clip-path: url(#clippath-226);
      }

      .cls-25 {
        clip-path: url(#clippath-227);
      }

      .cls-26 {
        clip-path: url(#clippath-225);
      }

      .cls-27 {
        clip-path: url(#clippath-220);
      }

      .cls-28 {
        clip-path: url(#clippath-222);
      }

      .cls-29 {
        clip-path: url(#clippath-221);
      }

      .cls-30 {
        clip-path: url(#clippath-224);
      }

      .cls-31 {
        clip-path: url(#clippath-223);
      }

      .cls-32 {
        clip-path: url(#clippath-218);
      }

      .cls-33 {
        clip-path: url(#clippath-219);
      }

      .cls-34 {
        clip-path: url(#clippath-213);
      }

      .cls-35 {
        clip-path: url(#clippath-217);
      }

      .cls-36 {
        clip-path: url(#clippath-216);
      }

      .cls-37 {
        clip-path: url(#clippath-214);
      }

      .cls-38 {
        clip-path: url(#clippath-215);
      }
    </style>
    <clipPath id="clippath">
      <path class="cls-1" d="m587.13,751.36c-.79,0-1.59.11-2.49.11-18.02,0-59.95-9.29-76.16-23.12-16.89,12.81-59.61,23.12-77.29,23.12-.79,0-1.7-.11-2.49-.23,0,4.08.23,8.27.45,12.01.91,14.28,3.4,28.56,7.25,42.39,11.9,43.29,36.38,80.12,71.51,108.12,35.13-27.99,59.61-64.82,71.62-108.23,3.85-13.71,6.35-28.11,7.25-42.39.23-3.74.45-7.82.34-11.79h0Z"/>
    </clipPath>
    <clipPath id="clippath-213">
      <path class="cls-1" d="m587.13,751.36c-.79,0-1.59.11-2.49.11-18.02,0-59.95-9.29-76.16-23.12-16.89,12.81-59.61,23.12-77.29,23.12-.79,0-1.7-.11-2.49-.23,0,4.08.23,8.27.45,12.01.91,14.28,3.4,28.56,7.25,42.39,11.9,43.29,36.38,80.12,71.51,108.12,35.13-27.99,59.61-64.82,71.62-108.23,3.85-13.71,6.35-28.11,7.25-42.39.23-3.74.45-7.82.34-11.79h0Z"/>
    </clipPath>
    <clipPath id="clippath-214">
      <path class="cls-1" d="m587.13,751.36c-.79,0-1.59.11-2.49.11-18.02,0-59.95-9.29-76.16-23.12-16.89,12.81-59.61,23.12-77.29,23.12-.79,0-1.7-.11-2.49-.23,0,4.08.23,8.27.45,12.01.91,14.28,3.4,28.56,7.25,42.39,11.9,43.29,36.38,80.12,71.51,108.12,35.13-27.99,59.61-64.82,71.62-108.23,3.85-13.71,6.35-28.11,7.25-42.39.23-3.74.45-7.82.34-11.79h0Z"/>
    </clipPath>
    <clipPath id="clippath-215">
      <path class="cls-1" d="m587.13,751.36c-.79,0-1.59.11-2.49.11-18.02,0-59.95-9.29-76.16-23.12-16.89,12.81-59.61,23.12-77.29,23.12-.79,0-1.7-.11-2.49-.23,0,4.08.23,8.27.45,12.01.91,14.28,3.4,28.56,7.25,42.39,11.9,43.29,36.38,80.12,71.51,108.12,35.13-27.99,59.61-64.82,71.62-108.23,3.85-13.71,6.35-28.11,7.25-42.39.23-3.74.45-7.82.34-11.79h0Z"/>
    </clipPath>
    <clipPath id="clippath-216">
      <path class="cls-1" d="m587.13,751.36c-.79,0-1.59.11-2.49.11-18.02,0-59.95-9.29-76.16-23.12-16.89,12.81-59.61,23.12-77.29,23.12-.79,0-1.7-.11-2.49-.23,0,4.08.23,8.27.45,12.01.91,14.28,3.4,28.56,7.25,42.39,11.9,43.29,36.38,80.12,71.51,108.12,35.13-27.99,59.61-64.82,71.62-108.23,3.85-13.71,6.35-28.11,7.25-42.39.23-3.74.45-7.82.34-11.79h0Z"/>
    </clipPath>
    <clipPath id="clippath-217">
      <path class="cls-1" d="m587.13,751.36c-.79,0-1.59.11-2.49.11-18.02,0-59.95-9.29-76.16-23.12-16.89,12.81-59.61,23.12-77.29,23.12-.79,0-1.7-.11-2.49-.23,0,4.08.23,8.27.45,12.01.91,14.28,3.4,28.56,7.25,42.39,11.9,43.29,36.38,80.12,71.51,108.12,35.13-27.99,59.61-64.82,71.62-108.23,3.85-13.71,6.35-28.11,7.25-42.39.23-3.74.45-7.82.34-11.79h0Z"/>
    </clipPath>
    <clipPath id="clippath-218">
      <path class="cls-1" d="m587.13,751.36c-.79,0-1.59.11-2.49.11-18.02,0-59.95-9.29-76.16-23.12-16.89,12.81-59.61,23.12-77.29,23.12-.79,0-1.7-.11-2.49-.23,0,4.08.23,8.27.45,12.01.91,14.28,3.4,28.56,7.25,42.39,11.9,43.29,36.38,80.12,71.51,108.12,35.13-27.99,59.61-64.82,71.62-108.23,3.85-13.71,6.35-28.11,7.25-42.39.23-3.74.45-7.82.34-11.79h0Z"/>
    </clipPath>
    <clipPath id="clippath-219">
      <path class="cls-1" d="m587.13,751.36c-.79,0-1.59.11-2.49.11-18.02,0-59.95-9.29-76.16-23.12-16.89,12.81-59.61,23.12-77.29,23.12-.79,0-1.7-.11-2.49-.23,0,4.08.23,8.27.45,12.01.91,14.28,3.4,28.56,7.25,42.39,11.9,43.29,36.38,80.12,71.51,108.12,35.13-27.99,59.61-64.82,71.62-108.23,3.85-13.71,6.35-28.11,7.25-42.39.23-3.74.45-7.82.34-11.79h0Z"/>
    </clipPath>
    <clipPath id="clippath-220">
      <path class="cls-1" d="m587.13,751.36c-.79,0-1.59.11-2.49.11-18.02,0-59.95-9.29-76.16-23.12-16.89,12.81-59.61,23.12-77.29,23.12-.79,0-1.7-.11-2.49-.23,0,4.08.23,8.27.45,12.01.91,14.28,3.4,28.56,7.25,42.39,11.9,43.29,36.38,80.12,71.51,108.12,35.13-27.99,59.61-64.82,71.62-108.23,3.85-13.71,6.35-28.11,7.25-42.39.23-3.74.45-7.82.34-11.79h0Z"/>
    </clipPath>
    <clipPath id="clippath-221">
      <path class="cls-1" d="m587.13,751.36c-.79,0-1.59.11-2.49.11-18.02,0-59.95-9.29-76.16-23.12-16.89,12.81-59.61,23.12-77.29,23.12-.79,0-1.7-.11-2.49-.23,0,4.08.23,8.27.45,12.01.91,14.28,3.4,28.56,7.25,42.39,11.9,43.29,36.38,80.12,71.51,108.12,35.13-27.99,59.61-64.82,71.62-108.23,3.85-13.71,6.35-28.11,7.25-42.39.23-3.74.45-7.82.34-11.79h0Z"/>
    </clipPath>
    <clipPath id="clippath-222">
      <path class="cls-1" d="m587.13,751.36c-.79,0-1.59.11-2.49.11-18.02,0-59.95-9.29-76.16-23.12-16.89,12.81-59.61,23.12-77.29,23.12-.79,0-1.7-.11-2.49-.23,0,4.08.23,8.27.45,12.01.91,14.28,3.4,28.56,7.25,42.39,11.9,43.29,36.38,80.12,71.51,108.12,35.13-27.99,59.61-64.82,71.62-108.23,3.85-13.71,6.35-28.11,7.25-42.39.23-3.74.45-7.82.34-11.79h0Z"/>
    </clipPath>
    <clipPath id="clippath-223">
      <path class="cls-1" d="m587.13,751.36c-.79,0-1.59.11-2.49.11-18.02,0-59.95-9.29-76.16-23.12-16.89,12.81-59.61,23.12-77.29,23.12-.79,0-1.7-.11-2.49-.23,0,4.08.23,8.27.45,12.01.91,14.28,3.4,28.56,7.25,42.39,11.9,43.29,36.38,80.12,71.51,108.12,35.13-27.99,59.61-64.82,71.62-108.23,3.85-13.71,6.35-28.11,7.25-42.39.23-3.74.45-7.82.34-11.79h0Z"/>
    </clipPath>
    <clipPath id="clippath-224">
      <path class="cls-1" d="m587.13,751.36c-.79,0-1.59.11-2.49.11-18.02,0-59.95-9.29-76.16-23.12-16.89,12.81-59.61,23.12-77.29,23.12-.79,0-1.7-.11-2.49-.23,0,4.08.23,8.27.45,12.01.91,14.28,3.4,28.56,7.25,42.39,11.9,43.29,36.38,80.12,71.51,108.12,35.13-27.99,59.61-64.82,71.62-108.23,3.85-13.71,6.35-28.11,7.25-42.39.23-3.74.45-7.82.34-11.79h0Z"/>
    </clipPath>
    <clipPath id="clippath-225">
      <path class="cls-1" d="m587.13,751.36c-.79,0-1.59.11-2.49.11-18.02,0-59.95-9.29-76.16-23.12-16.89,12.81-59.61,23.12-77.29,23.12-.79,0-1.7-.11-2.49-.23,0,4.08.23,8.27.45,12.01.91,14.28,3.4,28.56,7.25,42.39,11.9,43.29,36.38,80.12,71.51,108.12,35.13-27.99,59.61-64.82,71.62-108.23,3.85-13.71,6.35-28.11,7.25-42.39.23-3.74.45-7.82.34-11.79h0Z"/>
    </clipPath>
    <clipPath id="clippath-226">
      <path class="cls-1" d="m587.13,751.36c-.79,0-1.59.11-2.49.11-18.02,0-59.95-9.29-76.16-23.12-16.89,12.81-59.61,23.12-77.29,23.12-.79,0-1.7-.11-2.49-.23,0,4.08.23,8.27.45,12.01.91,14.28,3.4,28.56,7.25,42.39,11.9,43.29,36.38,80.12,71.51,108.12,35.13-27.99,59.61-64.82,71.62-108.23,3.85-13.71,6.35-28.11,7.25-42.39.23-3.74.45-7.82.34-11.79h0Z"/>
    </clipPath>
    <clipPath id="clippath-227">
      <path class="cls-1" d="m587.13,751.36c-.79,0-1.59.11-2.49.11-18.02,0-59.95-9.29-76.16-23.12-16.89,12.81-59.61,23.12-77.29,23.12-.79,0-1.7-.11-2.49-.23,0,4.08.23,8.27.45,12.01.91,14.28,3.4,28.56,7.25,42.39,11.9,43.29,36.38,80.12,71.51,108.12,35.13-27.99,59.61-64.82,71.62-108.23,3.85-13.71,6.35-28.11,7.25-42.39.23-3.74.45-7.82.34-11.79h0Z"/>
    </clipPath>
    <clipPath id="clippath-483">
      <path class="cls-1" d="m587.13,751.36c-.79,0-1.59.11-2.49.11-18.02,0-59.95-9.29-76.16-23.12-16.89,12.81-59.61,23.12-77.29,23.12-.79,0-1.7-.11-2.49-.23,0,4.08.23,8.27.45,12.01.91,14.28,3.4,28.56,7.25,42.39,11.9,43.29,36.38,80.12,71.51,108.12,35.13-27.99,59.61-64.82,71.62-108.23,3.85-13.71,6.35-28.11,7.25-42.39.23-3.74.45-7.82.34-11.79h0Z"/>
    </clipPath>
  </defs>
  <g id="Layer_1-2" data-name="Layer 1">
    <g>
      <g>
        <g>
          <path class="cls-21" d="m315.92,43.25l8.79-11.67c3.82,4.6,9.37,9,13.76,11.1l11.65-13.79c-4.4-2.87-11.47-8.23-15.28-13.21l-10.13,13.02c-4.2-2.87-9.37-8.23-12.23-12.44l-11.65,13.97c3.43,5.35,10.31,10.9,15.1,13.02h-.02Z"/>
          <path class="cls-21" d="m309.23,128.05c7.83,0,11.08-2.87,16.82-10.72l4.02-5.55c3.82,15.13,14.33,23.35,28.47,23.35,21.59,0,36.3-2.87,45.87-10.9,8.79-7.09,16.05-24.12,16.05-40.19,0-27.37-15.48-47.86-29.42-47.86-12.62,0-25.22,17.42-25.22,32.53s12.8,29.09,27.53,29.09c4.97,0,12.42-2.11,14.33-4.4.2,1.92.38,4.78.38,6.7-8.6,6.7-26.76,8.81-49.49,8.81-8.22,0-12.23-3.83-14.91-18.19-4.2-22.59-7.08-33.3-11.47-42.68l-13.94,16.46,2.68,7.66c-15.48,7.84-25.79,16.65-29.81,22-2.11,3.06-3.82,7.66-3.82,12.64,0,10.53,11.28,21.25,21.98,21.25l-.03.02Zm86.19-51.87c-9.56,0-16.62-4.03-19.68-9.38,1.72-4.78,7.08-8.42,12.42-8.42,7.65,0,15.28,5.93,18.54,16.45-2.29.77-7.45,1.34-11.28,1.34Zm-70.51,12.25c.77,4.21,2.29,10.15,2.86,14.74-1.91.95-4.77,2.49-9.37,2.49-8.03,0-14.33-4.03-17.39-7.27,4.02-3.26,13.37-7.66,23.88-9.95h.02Z"/>
          <path class="cls-21" d="m379.94,27.57l8.79-11.67c3.82,4.6,9.37,8.99,13.76,11.1l11.65-13.79c-4.4-2.87-11.47-8.23-15.28-13.21l-10.13,13.02c-4.2-2.87-9.37-8.23-12.23-12.44l-11.65,13.97c3.43,5.35,10.31,10.9,15.1,13.02v.02Z"/>
          <path class="cls-21" d="m616.88,175.71l12.05-15.13c-4.77-2.49-12.23-8.23-16.62-13.39l-12.05,15.13c3.83,5.75,11.66,10.9,16.62,13.39Z"/>
          <path class="cls-21" d="m673.83,14.93l-18.91,9.76c.2,2.49,1.52,6.52,2.86,8.81,0,16.08,1.54,28.32,3.43,43.45.95,7.84,1.72,18.37,2.68,29.67-2.86,1.34-10.31,2.29-18.16,2.29-15.1,0-25.42-6.7-31.33-26.8h-.77l-8.22,9.76.94,8.24c-5.74,5.93-13.94,8.81-26.18,8.81-3.63,0-9.17,0-12.23-.77,3.43-6.12,5.35-12.44,5.35-15.5,0-16.65-12.22-31.96-25.79-31.96-17.2,0-34.59,16.45-49.3,44.4h-.57c1.54-5.93,3.63-18.94,3.63-27.18v-31.58l10.89-6.52c-6.11-4.78-13.76-16.27-16.05-24.89l-17.96,9.76c.2,2.49,1.34,6.52,2.86,8.61.38,9.19.95,13.97,2.29,23.74,1.34,10.15,2.68,20.1,2.68,34.84,0,6.12,0,10.9-.2,13.21l-1.54,3.83h-11.46c-11.65,0-16.05-4.4-16.05-24.49,0-25.08-.57-48.61-2.48-66.23h-.2l-18.34,14.93c2.48,13.02,3.25,34.84,3.25,56.47s2.29,30.04,7.45,36.18c5.92,6.89,13.94,9.38,26.37,9.38h17.96c38.41,0,55.61-4.6,66.12-13.21,5.74,8.81,12.99,13.21,23.31,13.21,14.33,0,24.27-7.66,30.19-20.29h.38c7.26,12.82,17.57,20.29,34.96,20.29,12.99,0,22.16-4.6,28.66-15.13,4.02-6.32,5.92-14.55,5.92-20.29s-.38-13.39-.95-23.92c-.57-10.72-.77-20.1-.77-29.29l11.28-6.52c-6.11-4.78-13.76-16.27-16.05-25.08h.06Zm-153.06,93.98h-17.96c9.94-10.72,26.94-22,39.75-22,9.56,0,16.62,6.52,19.48,14.16-5.92,4.03-23.13,7.84-41.27,7.84Z"/>
          <path class="cls-21" d="m712.24,138.77h5.54c4.77-4.98,8.79-11.49,10.31-16.27.95-3.26,1.91-8.61,1.91-18.76,0-10.72-.76-19.34-1.34-33.69-.57-15.31-1.34-31.39-1.34-46.32v-5.55l-.2-.2-20.07,15.5c0,3.63,1.91,26.41,3.43,42.49,1.34,13.97,1.71,34.84,1.71,62.79l.03.02Z"/>
        </g>
        <g>
          <path class="cls-21" d="m255.57,205.74l8.79-11.67c3.82,4.6,9.37,9,13.76,11.1l11.65-13.79c-4.4-2.87-11.46-8.23-15.28-13.21l-10.13,13.02c-4.2-2.87-9.37-8.24-12.23-12.44l-11.65,13.97c3.43,5.35,10.31,10.9,15.1,13.02h-.01Z"/>
          <path class="cls-21" d="m340.98,309.68l-10.13,13.02c-4.2-2.87-9.37-8.23-12.23-12.44l-11.65,13.97c3.43,5.35,10.31,10.9,15.1,13.02l8.79-11.67c3.82,4.6,9.37,8.99,13.76,11.1l11.65-13.79c-4.4-2.87-11.46-8.23-15.28-13.21l-.02.02Z"/>
          <path class="cls-21" d="m387.98,177.41l-12.05,15.13c3.82,5.75,11.65,10.9,16.62,13.39l12.05-15.13c-4.77-2.49-12.23-8.23-16.62-13.39Z"/>
          <path class="cls-21" d="m443.4,242.89c6.11,4.4,14.91,15.13,17.02,22.77-4.59,4.01-18.34,5.75-31.15,5.75-16.82,0-27.71-13.39-33.07-57.81l-.95-.38-11.47,13.02c.2,10.72,1.91,24.69,3.82,32.35-5.16,8.23-13.94,12.82-23.88,12.82-15.1,0-25.42-6.7-31.33-26.8h-.77l-8.22,9.76.95,8.23c-5.74,5.93-13.94,8.81-26.19,8.81-8.22,0-12.23-3.83-14.91-18.19-4.2-22.59-7.08-33.3-11.46-42.68l-13.94,16.46,2.68,7.66c-15.48,7.84-25.79,16.65-29.81,22.01-2.11,3.06-3.82,7.66-3.82,12.64,0,10.53,11.28,21.25,21.98,21.25,7.83,0,11.08-2.87,16.82-10.72l4.02-5.55c3.82,15.13,14.33,23.35,28.47,23.35s24.27-7.66,30.19-20.29h.38c7.26,12.82,17.57,20.29,34.96,20.29,14.33,0,23.69-8.61,28.65-24.89h.77c6.11,16.27,17.57,24.89,36.11,24.89,16.43,0,28.85-5.93,35.93-17.42,5.35-9,7.83-16.27,7.83-27.57,0-12.82-7.45-26.61-15.1-35.41l-14.53,25.66.03.02Zm-185.36,25.26c-8.03,0-14.33-4.03-17.39-7.27,4.02-3.26,13.37-7.66,23.88-9.95.77,4.21,2.29,10.15,2.86,14.74-1.91.95-4.77,2.49-9.37,2.49h.01Z"/>
          <path class="cls-21" d="m447.04,309.68l-10.13,13.02c-4.2-2.87-9.37-8.23-12.23-12.44l-11.65,13.97c3.43,5.35,10.31,10.9,15.1,13.02l8.79-11.67c3.82,4.6,9.37,8.99,13.76,11.1l11.65-13.79c-4.4-2.87-11.47-8.23-15.28-13.21l-.02.02Z"/>
          <path class="cls-21" d="m645.96,210.72c3.45,5.35,10.32,10.9,15.1,13.02l8.79-11.67c3.82,4.6,9.37,9,13.76,11.1l11.66-13.79c-4.4-2.87-11.46-8.23-15.28-13.21l-10.14,13.02c-4.2-2.87-9.36-8.23-12.22-12.44l-11.65,13.97-.02.02Z"/>
          <path class="cls-21" d="m734.25,177.41l-18.91,9.76c.2,2.49,1.52,6.52,2.86,8.81,0,16.08,1.53,28.32,3.43,43.45.95,7.84,1.71,18.37,2.68,29.67-2.86,1.34-10.32,2.29-18.16,2.29-15.1,0-25.42-6.7-31.34-26.8h-.77l-8.22,9.76.95,8.23c-5.74,5.93-13.94,8.81-26.19,8.81-8.79,0-14.91-2.68-24.65-13.97-8.6-9.95-14.33-13.59-21.22-13.59-6.51,0-12.62,3.06-21.97,13.97-8.6,10.15-14.33,13.59-22.56,13.59h-4.59c-2.29-23.74-14.14-39.62-26.56-39.62s-24.45,15.31-24.45,31.21c0,19.14,16.05,33.12,36.88,34.64-4.97,8.23-23.13,18.37-55.61,24.12l4.2,6.12,36.5,8.61c18.91-14.36,25.42-27.75,28.28-38.85h5.35c6.69,0,13.76-3.06,19.11-11.1,7.26,12.82,16.82,22.2,27.9,22.2,7.26,0,16.43-10.33,19.3-22.2,5.92,6.89,14.14,11.1,24.08,11.1,14.33,0,24.26-7.66,30.19-20.29h.38c7.26,12.82,17.57,20.29,34.96,20.29,12.99,0,22.16-4.6,28.67-15.13,4.02-6.32,5.92-14.55,5.92-20.29s-.38-13.39-.95-23.92c-.57-10.72-.77-20.1-.77-29.29l11.28-6.52c-6.11-4.78-13.76-16.27-16.05-25.08l.04.02Zm-208.29,94.94c-10.51,0-19.3-4.21-22.16-9,1.72-5.35,7.08-9.38,12.42-9.38,7.83,0,15.1,5.93,18.91,17.42-1.91.57-6.11.95-9.17.95h0Zm73,13.39c-6.31,0-10.71-1.54-21.02-11.87,4.02-5.35,8.22-8.23,13.57-8.23,6.51,0,14.14,5.75,19.68,14.74-2.86,3.06-7.65,5.35-12.22,5.35v.02Z"/>
          <path class="cls-21" d="m787.74,186.22v-5.55l-.19-.2-20.07,15.5c0,3.63,1.91,26.41,3.43,42.49,1.34,13.97,1.71,34.84,1.71,62.79h5.54c4.77-4.98,8.79-11.49,10.31-16.27.95-3.26,1.92-8.61,1.92-18.76,0-10.72-.77-19.34-1.34-33.69-.58-15.31-1.34-31.39-1.34-46.32h.03Z"/>
        </g>
      </g>
      <g>
        <path class="cls-21" d="m197.41,428.4c1.55,8.3,3.73,10.38,8.82,10.38,1.87,0,3.84,2.7,3.84,6.54s-1.97,6.23-3.84,6.23c-7.99,0-13.4-4.16-15.47-12.46l-2.29,2.91c-3.11,3.94-5.09,5.29-8.94,5.29-5.81,0-11.83-5.6-11.83-10.9,0-2.49.94-5.19,2.18-6.85,1.99-2.7,7.59-7.26,16.21-11.52l-1.67-4.68,6.76-7.99c2.39,5.08,3.94,10.69,6.23,23.05Zm-22.95,3.53c1.65,2.28,5.08,4.56,9.66,4.56,2.59,0,4.47-.82,5.6-1.55-.32-2.8-1.04-6.33-1.67-8.94-6.23,1.56-11.42,4.05-13.6,5.92Zm13.18-35.83l-4.47,6.03c-2.48-1.04-6.12-3.84-7.88-6.65l5.91-7.27c1.55,2.18,4.26,4.88,6.44,6.33l5.09-6.75c1.97,2.59,5.72,5.29,7.99,6.75l-5.91,7.17c-2.29-1.04-5.2-3.32-7.17-5.61Z"/>
        <path class="cls-21" d="m224.01,424.14c3.01,10.8,8.52,14.64,16.93,14.64,1.55,0,3.11,2.7,3.11,6.54s-1.55,6.23-3.11,6.23c-9.24,0-14.75-3.84-18.59-10.8h-.1c-3.22,6.75-8.42,10.8-16,10.8-1.55,0-3.12-2.08-3.12-6.44s1.46-6.33,3.12-6.33c6.34,0,10.7-1.56,13.92-5.2l-.62-4.56,4.15-4.88h.32Zm-.32,42.15l-4.45,6.13c-2.5-1.14-6.04-3.95-7.89-6.65l6.02-7.27c1.46,2.18,4.15,4.88,6.33,6.33l5.2-6.75c1.97,2.49,5.6,5.29,7.88,6.65l-5.91,7.27c-2.29-1.14-5.19-3.32-7.17-5.72Z"/>
        <path class="cls-21" d="m266.81,429.54c-1.25,1.56-5.2,2.81-8.01,2.81-7.57,0-14.01-6.85-14.01-14.75s6.44-16.82,12.97-16.82c7.38,0,15.48,10.8,15.48,25.33,0,8.1-3.22,15.89-7.59,19.32-5.19,4.36-13.18,6.13-24.71,6.13-1.46,0-2.8-2.29-2.8-6.33,0-4.26,1.25-6.44,2.8-6.44,11.95,0,21.49-1.25,26.17-4.88,0-1.45-.21-3.22-.3-4.36Zm-10.39-39.66l-4.47,6.03c-2.48-1.04-6.02-3.84-7.88-6.65l5.91-7.27c1.55,2.18,4.26,4.88,6.44,6.33l5.09-6.75c2.08,2.59,5.72,5.29,7.99,6.75l-5.91,7.17c-2.29-1.04-5.2-3.32-7.17-5.61Zm3.43,31.88c2.18,0,5.09-.42,6.23-.94-1.55-5.71-5.6-9.03-9.66-9.03-2.9,0-5.7,2.18-6.74,4.98,1.65,2.91,5.28,4.99,10.17,4.99Z"/>
        <path class="cls-21" d="m293.28,416.25c.32,7.79.74,13.08.74,18.9,0,5.5-.42,8.2-.94,9.97-.82,2.39-2.69,5.6-4.87,8.09h-2.8c0-15.05-.42-26.06-1.15-33.95-.72-8.73-1.65-19.74-1.65-23.47l9.86-7.79.1.1v3.01c0,8.1.42,16.82.72,25.12Z"/>
        <path class="cls-21" d="m330.36,438.78c1.97,0,3.94,2.7,3.94,6.54s-1.97,6.23-3.94,6.23c-2.91,0-5.2-.73-7.8-2.39l-.21.21c.42,1.25.83,3.63.83,5.51,0,6.44-3.22,15.05-13.39,23.26l-18.17-3.95-2.08-3.01c15.68-4.47,25.75-11.43,28.46-18.38-.21-2.8-2.71-7.68-7.78-13.29l5.49-10.58c6.55,7.37,10.28,9.86,14.65,9.86Z"/>
        <path class="cls-21" d="m338.37,428.82l2.5-8.21c4.77-1.45,9.96-2.49,14.96-2.49,6.23,0,10.49,2.39,10.49,5.71,0,3.95-2.4,8.21-7.06,12.56,2.9,1.35,7.48,2.39,16.61,2.39,1.97,0,3.96,2.7,3.96,6.54s-1.99,6.23-3.96,6.23c-9.66,0-16.72-2.91-22.42-8.1-6.34,5.4-14.12,8.1-23.06,8.1-1.46,0-2.8-2.19-2.8-6.33,0-3.74,1.25-6.44,2.8-6.44,7.27,0,14.43-.94,17.23-2.39-1.02-3.11-5.49-6.23-9.24-7.57Z"/>
        <path class="cls-21" d="m398.52,399.53l-5.92,3.53c0,4.99.21,10.28.51,16.1.32,5.71.62,10.27.62,13.49,0,3.43-.93,8-3.11,11.43-3.33,5.19-8.01,7.48-14.75,7.48-1.55,0-2.8-2.49-2.8-6.33,0-4.26,1.25-6.44,2.8-6.44,4.26,0,8.1-.52,9.77-1.35-.42-6.13-.83-12.67-1.46-17.86-1.04-8.51-1.76-15.68-1.87-23.47-.72-1.24-1.25-3.22-1.35-4.46l9.34-5.3c1.15,4.57,5,10.7,8.21,13.19Z"/>
        <path class="cls-21" d="m418.97,416.25c.32,7.79.74,13.08.74,18.9,0,5.5-.42,8.2-.93,9.97-.83,2.39-2.71,5.6-4.88,8.09h-2.8c0-15.05-.42-26.06-1.15-33.95-.72-8.73-1.65-19.74-1.65-23.47l9.86-7.79.1.1v3.01c0,8.1.42,16.82.72,25.12Z"/>
        <path class="cls-21" d="m474.34,435.46c0,9.14-6.23,16.09-16.4,16.09-8.1,0-13.19-6.54-13.19-14.54s3.94-15.47,11.63-21.18l1.87-5.61c9.86,4.68,16.09,15.16,16.09,25.24Zm-16.09-35.41l-4.47,6.02c-2.48-1.14-6.12-3.84-7.89-6.65l5.92-7.26c1.46,2.18,4.15,4.88,6.33,6.33l5.2-6.75c1.97,2.59,5.7,5.29,7.99,6.75l-6.02,7.17c-2.18-1.04-5.09-3.32-7.06-5.61Zm-6.44,33.64c0,3.01,2.71,5.09,6.53,5.09s7.17-1.14,9.26-3.22c-1.87-4.57-5.3-8.62-9.35-10.7-4.05,2.28-6.44,5.6-6.44,8.82Z"/>
        <path class="cls-21" d="m505.5,445.64c0,10.07-5.6,19.94-15.77,26.99l-18.17-4.04-2.08-2.91c15.69-4.57,28.04-11.43,30.63-18.28-1.04-4.05-5.6-9.76-12.35-14.84l6.02-12.57c6.95,6.44,11.72,15.37,11.72,25.65Z"/>
        <path class="cls-21" d="m525.55,424.66c0,11.94,2.5,14.12,8.73,14.12,1.97,0,3.94,2.7,3.94,6.54s-1.97,6.23-3.94,6.23c-6.55,0-10.81-1.56-13.61-4.88-2.59-3.32-3.84-7.17-3.84-19.73,0-11.73-.42-23.47-1.65-31.35l8.92-7.48h.11c1.04,9.55,1.35,22.74,1.35,36.55Z"/>
        <path class="cls-21" d="m537.91,426.01c0-2.59,1.25-5.92,3.84-9.03,2.71-3.11,7.06-5.6,10.28-5.6,3.63,0,7.38,1.25,15.68,5.19,9.05,4.16,12.15,4.68,21.19,4.99l-4.68,10.7c-5.4,0-8.2.31-10.06,1.14-.11.31-.21.73-.21,1.14,0,3.22,4.98,4.26,17.74,4.26,1.99,0,3.12,2.59,3.12,6.33s-1.14,6.44-3.12,6.44c-15.26,0-22.53-3.63-22.53-12.15,0-1.35.32-3.11.62-4.15l-.1-.1c-2.71,1.14-4.79,2.59-12.36,8.41-8.1,6.23-14.01,7.89-22.95,8-1.76,0-3.12-2.29-3.12-6.44s1.46-6.33,3.12-6.33c13.5,0,23.06-3.01,33.32-9.86v-.21c-4.77-2.5-11.51-4.57-16.51-5.09-3.01.83-9.24,4.05-11.83,6.02-.83-.62-1.46-2.07-1.46-3.63Zm18.8,37.8l6.23-7.69c2.18,2.6,6.02,5.51,8.52,6.85l-6.23,7.69c-2.5-1.25-6.55-3.95-8.52-6.85Z"/>
        <path class="cls-21" d="m609.49,424.14c3.01,10.8,8.52,14.64,16.93,14.64,1.55,0,3.11,2.7,3.11,6.54s-1.55,6.23-3.11,6.23c-9.24,0-14.75-3.84-18.59-10.8h-.1c-3.22,6.75-8.42,10.8-16,10.8-1.55,0-3.12-2.08-3.12-6.44s1.46-6.33,3.12-6.33c6.34,0,10.7-1.56,13.92-5.2l-.62-4.56,4.15-4.88h.32Zm-2.39-16.41l-4.47,6.02c-2.5-1.04-6.02-3.84-7.89-6.65l6.02-7.27c1.46,2.19,4.16,4.88,6.34,6.33l5.19-6.75c1.97,2.6,5.6,5.3,7.89,6.75l-5.92,7.17c-2.29-1.03-5.19-3.32-7.16-5.6Z"/>
        <path class="cls-21" d="m649.08,399.53l-5.92,3.53c0,4.99.21,10.28.51,16.1.32,5.71.62,10.27.62,13.49,0,3.43-.93,8-3.11,11.43-3.33,5.19-8.01,7.48-14.75,7.48-1.55,0-2.8-2.49-2.8-6.33,0-4.26,1.25-6.44,2.8-6.44,4.26,0,8.1-.52,9.77-1.35-.42-6.13-.83-12.67-1.46-17.86-1.04-8.51-1.76-15.68-1.87-23.47-.72-1.24-1.25-3.22-1.35-4.46l9.34-5.3c1.15,4.57,5,10.7,8.21,13.19Z"/>
        <path class="cls-21" d="m669.52,416.25c.32,7.79.74,13.08.74,18.9,0,5.5-.42,8.2-.94,9.97-.82,2.39-2.69,5.6-4.87,8.09h-2.8c0-15.05-.42-26.06-1.15-33.95-.72-8.73-1.65-19.74-1.65-23.47l9.86-7.79.1.1v3.01c0,8.1.42,16.82.72,25.12Z"/>
        <path class="cls-21" d="m724.88,435.46c0,9.14-6.23,16.09-16.4,16.09-8.1,0-13.19-6.54-13.19-14.54s3.94-15.47,11.63-21.18l1.87-5.61c9.86,4.68,16.09,15.16,16.09,25.24Zm-16.09-35.41l-4.47,6.02c-2.48-1.14-6.12-3.84-7.89-6.65l5.92-7.26c1.46,2.18,4.15,4.88,6.33,6.33l5.2-6.75c1.97,2.59,5.7,5.29,7.99,6.75l-6.02,7.17c-2.18-1.04-5.09-3.32-7.06-5.61Zm-6.44,33.64c0,3.01,2.71,5.09,6.53,5.09s7.17-1.14,9.26-3.22c-1.87-4.57-5.3-8.62-9.35-10.7-4.05,2.28-6.44,5.6-6.44,8.82Z"/>
        <path class="cls-21" d="m756.04,445.64c0,10.07-5.6,19.94-15.77,26.99l-18.17-4.04-2.08-2.91c15.69-4.57,28.04-11.43,30.63-18.28-1.04-4.05-5.6-9.76-12.35-14.84l6.02-12.57c6.95,6.44,11.72,15.37,11.72,25.65Z"/>
        <path class="cls-21" d="m777.04,416.25c.32,7.79.74,13.08.74,18.9,0,5.5-.42,8.2-.94,9.97-.82,2.39-2.69,5.6-4.87,8.09h-2.8c0-15.05-.42-26.06-1.15-33.95-.72-8.73-1.65-19.74-1.65-23.47l9.86-7.79.1.1v3.01c0,8.1.42,16.82.72,25.12Z"/>
        <path class="cls-21" d="m809.54,445.64c0,10.07-5.6,19.94-15.77,26.99l-18.17-4.04-2.08-2.91c15.68-4.57,28.04-11.43,30.63-18.28-1.04-4.05-5.6-9.76-12.35-14.84l6.02-12.57c6.95,6.44,11.72,15.37,11.72,25.65Zm-20.35-38.01l6.13-7.69c2.29,2.7,6.13,5.61,8.52,6.85l-6.13,7.69c-2.59-1.25-6.53-3.84-8.52-6.85Z"/>
        <path class="cls-21" d="m843.43,447.4c-1.46.94-3.75,1.97-7.17,1.97-7.57,0-14.12-6.85-14.12-14.84s6.45-16.72,13.08-16.72c7.27,0,14.54,10.7,14.54,24.2,0,12.77-6.44,23.57-16.61,30.63l-18.17-4.04-2.08-2.91c16.83-4.16,27.62-10.7,30.54-18.28Zm-6.13-8.62c2.8,0,4.98-.52,6.23-1.04-1.55-5.71-5.6-8.93-9.66-8.93-3.01,0-5.81,2.07-6.74,4.98,1.65,2.91,5.19,4.99,10.17,4.99Z"/>
      </g>
    </g>
    <path class="cls-21" d="m844.79,1351.28c-31.43-31.48-82.44-31.48-113.87,0,0,0-83.07,83.21-83.08,83.21-28.74,28.78-68.28,42.68-108.47,43.78-17.97.49-36.36-.19-53.73-5.16-17.92-5.24-34.47-14.84-47.68-28.06,20.86,0,30.52.08,42.58,0,12.26-.04,24.47-.12,36.73-.6,8.91-.32,17.5-.44,25.93-3.43,12.06-4.3,22.28-12.47,30.01-22.64,7.71-10.16,13.37-22.99,17.14-35.67h-153.45c-38.52,0-75.48,15.34-102.7,42.6l-25.53,25.58-166.04,167.9,136.11,136.3,167.55-167.82h161.49l2.62-1.23s234.51-234.89,234.39-234.77Z"/>
    <g>
      <path class="cls-13" d="m148.88,819.56c-15.25,32.71,2.26,68.35,2.26,68.35,0,0,36.52-5.2,53.77-42.16,11.28-24.2-2.31-78.22,10.02-94.7,0,0-44.23,21.73-66.04,68.51Z"/>
      <path class="cls-13" d="m225.07,956.56c6.61-25.88-16.72-76.44-7.64-94.92,0,0-39.48,29.61-52.26,79.58-8.96,34.96,14.83,66.72,14.83,66.72,0,0,34.96-11.86,45.02-51.39h.05Z"/>
      <path class="cls-13" d="m235.86,1092.69s34.18-13.96,41.82-54.02c5.04-26.25-21.32-75.28-13.36-94.29,0,0-37.57,31.92-47.33,82.58-6.8,35.49,18.87,65.73,18.87,65.73Z"/>
      <path class="cls-13" d="m184.49,677.65c-18.91,27.67-8.22,63-8.22,63,0,0,34.23.79,55.6-30.5,13.99-20.47,9.64-72.03,23.44-85.26,0,0-43.83,13.28-70.82,52.81v-.05Z"/>
      <path class="cls-13" d="m209.83,609.46c9.08-23.89-7.7-74.39,2.89-90.98,0,0-40.61,23.89-58.12,69.98-12.21,32.29,6.96,64.99,6.96,64.99,0,0,34.44-7.51,48.27-43.99Z"/>
      <path class="cls-13" d="m176.57,1192.86c-29.98-6.09-86.42,23.68-108.07,14.33,0,0,36.17,43.52,94.03,55.28,40.51,8.19,75.47-20.95,75.47-20.95,0,0-15.62-39.37-61.43-48.67Z"/>
      <path class="cls-13" d="m157.8,1152.28s.26-42.37-38.72-68.14c-25.52-16.9-88.99-10.45-105.61-27.25,0,0,17.25,53.91,66.57,86.51,34.53,22.84,77.76,8.87,77.76,8.87Z"/>
      <path class="cls-13" d="m98.07,1023.76s8.75-34.38-17.77-63.2c-17.35-18.9-70.17-26.51-80.3-43.47,0,0,3.15,47.3,36.64,83.73,23.42,25.51,61.43,22.94,61.43,22.94Z"/>
      <path class="cls-13" d="m83.41,919.61s14.78-33.81-7.56-67.88c-14.62-22.31-67.55-39.06-75.05-58.22,0,0-4.77,49.08,23.44,92.13,19.75,30.13,59.17,33.97,59.17,33.97Z"/>
      <path class="cls-13" d="m70.52,816.82s23-28.35,10.69-66.78c-8.06-25.2-54.19-55.18-56.28-75.44,0,0-17.51,45.57-1.94,94.18,10.9,34.02,47.54,48.09,47.54,48.09v-.05Z"/>
      <path class="cls-13" d="m95.41,724.48s28.98-20.11,27.88-59.11c-.73-25.51-35.44-65.83-31.97-85.2,0,0-28.51,37.59-27.09,86.88,1,34.49,31.19,57.43,31.19,57.43Z"/>
      <path class="cls-13" d="m867.12,819.56c-21.79-46.77-66.03-68.51-66.03-68.51,12.31,16.48-1.26,70.45,10,94.7,17.25,36.96,53.78,42.16,53.78,42.16,0,0,17.49-35.59,2.24-68.35Z"/>
      <path class="cls-13" d="m790.97,956.56c10.11,39.53,45.02,51.39,45.02,51.39,0,0,23.79-31.76,14.83-66.72-12.79-49.98-52.26-79.58-52.26-79.58,9.08,18.48-14.25,69.03-7.64,94.92h.05Z"/>
      <path class="cls-13" d="m738.37,1038.68c7.7,40.05,41.82,54.02,41.82,54.02,0,0,25.68-30.24,18.87-65.73-9.74-50.66-47.33-82.58-47.33-82.58,7.92,19-18.4,68.04-13.36,94.29Z"/>
      <path class="cls-13" d="m839.75,740.65s10.7-35.28-8.22-63c-26.99-39.58-70.82-52.81-70.82-52.81,13.8,13.23,9.44,64.78,23.44,85.26,21.34,31.29,55.6,30.5,55.6,30.5v.05Z"/>
      <path class="cls-13" d="m806.2,609.46c13.83,36.43,48.27,43.99,48.27,43.99,0,0,19.17-32.71,6.96-64.99-17.46-46.09-58.12-69.98-58.12-69.98,10.58,16.59-6.19,67.09,2.89,90.98Z"/>
      <path class="cls-13" d="m839.47,1192.86c-45.81,9.29-61.43,48.67-61.43,48.67,0,0,34.91,29.14,75.47,20.95,57.91-11.71,94.03-55.28,94.03-55.28-21.71,9.35-78.09-20.42-108.07-14.33Z"/>
      <path class="cls-13" d="m858.23,1152.28s43.29,13.91,77.78-8.87c49.31-32.6,66.55-86.51,66.55-86.51-16.62,16.8-80.04,10.34-105.61,27.25-38.99,25.78-38.72,68.14-38.72,68.14Z"/>
      <path class="cls-13" d="m935.75,960.55c-26.46,28.82-17.75,63.2-17.75,63.2,0,0,37.94,2.57,61.43-22.94,33.48-36.43,36.63-83.73,36.63-83.73-10.11,17.01-62.95,24.62-80.3,43.47Z"/>
      <path class="cls-13" d="m940.21,851.73c-22.32,34.07-7.54,67.88-7.54,67.88,0,0,39.41-3.78,59.17-33.97,28.19-43.1,23.42-92.13,23.42-92.13-7.49,19.16-60.43,35.91-75.05,58.22Z"/>
      <path class="cls-13" d="m945.55,816.82s36.64-14.07,47.54-48.09c15.57-48.61-1.94-94.18-1.94-94.18-2.08,20.26-48.2,50.29-56.28,75.44-12.31,38.43,10.69,66.78,10.69,66.78v.05Z"/>
      <path class="cls-13" d="m920.66,724.48s30.19-22.89,31.19-57.43c1.42-49.29-27.09-86.88-27.09-86.88,3.46,19.37-31.24,59.64-31.97,85.2-1.1,39.01,27.88,59.11,27.88,59.11Z"/>
      <path class="cls-13" d="m916.37,959.34c20.48-106.73-2.31-211.67-55.93-296.87,36.38,76.44,49.64,164.74,32.44,254.3-36.62,190.67-199.27,324.9-384.84,333.04-185.54-8.14-348.22-142.37-384.86-333.04-17.19-89.56-3.94-177.86,32.44-254.3-53.68,85.2-76.42,190.14-55.93,296.87,38.16,198.65,213.16,336.09,408.35,333.36,195.17,2.73,370.17-134.71,408.33-333.36Z"/>
    </g>
    <g>
      <g id="polygon3">
        <polygon class="cls-4" points="472.1 1006.24 539.87 1007.48 519.58 903.22 497.6 902.54 472.1 1006.24"/>
        <path class="cls-22" d="m539.87,1007.48h0l-67.77-1.13h0l25.5-103.7h0l21.99.57h0l20.29,104.26Zm-67.77-1.25l67.77,1.13-20.29-104.26-21.99-.57-25.5,103.7Z"/>
      </g>
      <g id="path5">
        <path class="cls-4" d="m568.43,883.73c3.97,6.69,25.73,32.87,25.73,32.87,5.21,14.28,24.82,26.86,24.82,26.86,2.04,9.97,23.23,24.71,23.23,24.71,5.33,13.83,27.88,26.86,27.88,26.86,12.69,18.25,27.99,28.9,27.99,28.9l-14.73-322.2s-1.36-18.59-19.95-26.52c-18.59-7.93-30.49,0-41.25,3.97-10.54,3.97-25.5,15.98-38.53,18.59-13.26,2.72-22.55,2.72-75.7-13.26-53.04,15.98-62.33,15.98-75.59,13.26-13.03-2.61-27.99-14.51-38.65-18.59-10.54-3.97-22.55-12.01-41.14-3.97-18.7,7.93-19.95,26.52-19.95,26.52l-14.51,322.2s15.3-10.65,27.88-28.9c0,0,22.67-13.03,27.99-26.86,0,0,21.31-14.73,23.23-24.71,0,0,19.61-12.58,24.71-26.86,0,0,21.87-26.18,25.84-32.87h120.7Z"/>
        <path class="cls-22" d="m698.53,1025.05l-.91-.68c-.11-.11-15.41-10.88-27.99-28.9-1.93-1.13-22.67-13.49-27.88-26.97-2.04-1.36-21.08-14.96-23.23-24.71-2.15-1.47-19.72-13.26-24.82-26.97-1.47-1.81-21.31-25.73-25.5-32.64h-120.24c-4.31,6.91-24.14,30.71-25.61,32.64-4.87,13.71-22.44,25.5-24.71,26.97-2.27,9.75-21.31,23.23-23.35,24.71-5.21,13.49-26.07,25.84-27.99,26.97-12.47,18.02-27.77,28.79-27.88,28.9l-.91.68,14.51-323.44c0-.23,1.59-19.04,20.29-27.09,15.98-6.8,26.97-2.04,36.61,2.04,1.7.68,3.29,1.47,4.99,2.04,4.31,1.59,9.29,4.53,14.51,7.59,8.05,4.65,16.32,9.41,24.03,10.99,13.6,2.72,23.57,2.38,75.36-13.26h.23c51.9,15.64,61.88,15.98,75.48,13.26,7.82-1.59,16.43-6.57,24.14-11.11,5.21-3.06,10.09-5.89,14.28-7.48,1.7-.57,3.29-1.36,5.1-2.04,9.75-4.08,20.63-8.73,36.61-1.93,18.7,8.05,20.29,26.86,20.29,26.97l14.62,323.44Zm-251.25-142h121.49l.11.23c3.97,6.57,25.5,32.53,25.61,32.75l.11.11c4.99,13.94,24.37,26.52,24.59,26.63l.23.11v.23c1.93,9.63,22.78,24.14,23.01,24.25l.11.11.11.11c5.1,13.49,27.31,26.52,27.54,26.63l.23.11c10.65,15.3,23.35,25.39,26.86,28.11l-14.51-321.06c0-.11-1.59-18.25-19.61-26.07-15.41-6.69-26.18-2.15-35.7,1.93-1.81.79-3.4,1.47-5.1,2.04-4.19,1.59-8.95,4.42-14.17,7.37-7.71,4.53-16.55,9.63-24.48,11.22-13.71,2.83-23.8,2.38-75.82-13.26-51.9,15.64-61.99,15.98-75.7,13.26-7.93-1.59-16.66-6.69-24.37-11.11-5.21-3.06-10.09-5.89-14.39-7.48-1.59-.57-3.29-1.36-4.99-2.04-9.52-4.08-20.17-8.61-35.7-1.93-18.13,8.05-19.61,26.18-19.61,26.41l-14.51,320.95c3.51-2.61,16.21-12.69,26.75-28.11l.23-.11c.23-.11,22.55-13.15,27.65-26.63l.11-.11.11-.11c.23-.11,21.08-14.62,23.01-24.25v-.23l.23-.11c.23-.11,19.49-12.58,24.48-26.63l.11-.23c.23-.23,21.87-26.18,25.73-32.87l.23-.23Z"/>
      </g>
      <g id="path7">
        <path class="cls-22" d="m669.97,995.02c11.45,17.57,27.99,28.9,27.99,28.9l-14.62-322.2s-11.67-9.75-22.67-10.31v.11l9.29,303.5h0Z"/>
        <path class="cls-22" d="m697.85,1023.92h0s-4.19-2.83-9.75-7.82c-3.17-2.95-6.23-6.01-9.07-9.07-3.51-3.85-6.57-7.93-9.18-11.9h0l-9.18-303.72v-.11h0c2.49.11,5.33.79,8.16,1.81,2.38.91,4.76,2.04,7.25,3.51,4.19,2.49,7.14,4.87,7.14,4.99h0l14.62,322.31Zm-27.88-28.9c2.61,3.97,5.67,8.05,9.18,11.9,2.83,3.17,5.89,6.23,9.07,9.07,5.33,4.87,9.41,7.71,9.63,7.82l-14.51-322.08c-.11-.11-3.06-2.49-7.14-4.99-2.49-1.47-4.99-2.61-7.25-3.51-2.95-1.13-5.67-1.7-8.16-1.81v.11l9.18,303.5Z"/>
      </g>
      <g id="path9">
        <path class="cls-22" d="m633.25,708.07c7.59-8.95,14.96-15.07,22.89-16.89l8.61,299.53s-14.51-6.69-22.55-22.55l-8.95-260.09h0Z"/>
        <path class="cls-22" d="m664.65,990.71h0s-3.74-1.7-8.27-5.33c-2.72-2.15-5.21-4.53-7.37-7.03-2.72-3.17-5.1-6.57-6.91-10.2l-8.95-260.09h0c4.08-4.76,7.82-8.39,11.33-11.11,3.97-3.06,7.71-4.87,11.56-5.78h0l8.61,299.53Zm-31.39-282.64l8.95,260.09c1.81,3.63,4.19,7.03,6.91,10.2,2.15,2.49,4.65,4.87,7.37,7.03,4.42,3.51,8.05,5.21,8.27,5.33l-8.61-299.64c-3.85.91-7.59,2.83-11.56,5.78-3.63,2.72-7.25,6.35-11.33,11.22h0Z"/>
      </g>
      <g id="path11">
        <path class="cls-22" d="m618.86,943.45l-6.01-208.53,1.02-1.59c5.78-4.76,10.2-9.63,14.96-19.83l.57-1.36c2.49,84.09,5.21,167.95,7.71,252.04-6.35-6.12-12.47-9.97-18.25-20.74h0Z"/>
        <path class="cls-22" d="m637.11,963.96h0c-1.36-1.25-2.61-2.38-3.85-3.51-4.99-4.42-9.75-8.5-14.39-17.11h0l-6.01-208.53,1.02-1.7c6.01-4.99,10.31-9.86,14.96-19.83l.57-1.36h0c1.25,41.37,2.49,83.41,3.74,124.1,1.36,42.05,2.72,85.34,3.97,127.95h0Zm-18.25-20.51c4.65,8.5,9.41,12.69,14.39,17.11,1.25,1.13,2.61,2.27,3.85,3.4-1.25-42.73-2.61-86.02-3.85-127.84-1.25-40.69-2.49-82.62-3.74-124.1l-.57,1.36c-4.65,9.97-8.95,14.85-14.96,19.83l-1.02,1.59,5.89,208.64Z"/>
      </g>
      <g id="path13">
        <path class="cls-22" d="m594.04,916.59l-5.1-169.77.34-.68c6.8-1.36,12.13-1.93,18.02-6.12l.91-.45,5.67,198.89s-11.56-3.63-19.83-21.87h0Z"/>
        <path class="cls-22" d="m613.87,938.47h0s-2.95-.91-6.8-4.08c-2.27-1.81-4.42-4.08-6.35-6.69-2.49-3.17-4.65-7.03-6.57-11.11h0l-5.21-169.77.34-.68c1.02-.23,2.04-.45,2.95-.57,5.33-1.02,9.97-1.93,14.96-5.55l.91-.45h0l5.78,198.89Zm-19.72-21.87c1.93,4.19,4.08,7.93,6.57,11.11,1.93,2.61,4.08,4.87,6.35,6.69,3.74,3.06,6.57,4.08,6.8,4.08l-5.67-198.89-.91.45c-4.99,3.63-9.63,4.53-14.96,5.55-.91.23-1.93.34-2.95.57l-.34.68,5.1,169.77Z"/>
      </g>
      <g id="path15">
        <path class="cls-22" d="m588.72,909.23l-4.31-151.75-.34-.68c-10.54,5.44-28.22,2.04-28.22,2.04l12.58,124.78c3.97,8.05,20.29,25.61,20.29,25.61h0Z"/>
        <path class="cls-22" d="m588.72,909.34h0c-.23-.23-16.43-17.68-20.29-25.61l-12.58-124.78h0s4.42.91,10.09,1.02c3.29.11,6.46,0,9.18-.45,3.51-.45,6.46-1.36,8.84-2.61h0l.34.68,4.42,151.75Zm-32.87-150.5l12.58,124.78c3.85,7.82,19.72,24.93,20.29,25.61l-4.31-151.63-.34-.68c-2.38,1.25-5.44,2.15-8.84,2.61-2.72.34-5.89.57-9.18.45-5.67-.23-9.97-1.02-10.2-1.13Z"/>
      </g>
      <g id="_43634128" data-name=" 43634128">
        <g id="_72135048" data-name=" 72135048">
          <path class="cls-22" d="m345.85,995.02c-11.22,17.57-27.88,28.9-27.88,28.9l14.51-322.2s11.67-9.75,22.55-10.31v.11l-9.18,303.5h0Z"/>
          <path class="cls-22" d="m318.09,1023.92h0l14.62-322.2s2.95-2.49,7.14-4.99c2.49-1.47,4.87-2.61,7.25-3.51,2.95-1.13,5.67-1.7,8.16-1.81h0v.11l-9.41,303.5c-2.61,3.97-5.67,8.05-9.07,11.9-2.72,3.17-5.78,6.23-9.07,9.07-5.44,4.99-9.63,7.82-9.63,7.93h0Zm14.51-322.2l-14.51,322.2c.23-.23,4.31-2.95,9.63-7.82,3.17-2.95,6.23-6.01,9.07-9.07,3.51-3.85,6.57-7.93,9.07-11.9l9.29-303.5v-.34c-2.49.11-5.21.79-8.16,1.81-2.27.91-4.76,2.04-7.25,3.51-4.08,2.61-7.03,4.99-7.14,5.1h0Z"/>
        </g>
        <g id="_25080000" data-name=" 25080000">
          <path class="cls-22" d="m382.68,708.07c-7.59-8.95-22.67-25.16-22.89-16.89-2.95,100.18-5.89,200.25-8.84,300.44,8.95-6.57,18.93-15.41,22.78-23.35l8.95-260.2h0Z"/>
          <path class="cls-22" d="m351.06,991.5h0c1.36-45.33,2.61-90.66,3.97-136,1.59-54.85,3.17-109.59,4.76-164.44,0-1.25.34-1.93,1.02-2.15,1.59-.57,4.87,1.59,9.86,6.23,4.65,4.42,9.52,9.97,12.01,12.81h0l-8.95,260.09c-1.81,3.63-4.99,7.82-9.41,12.24-3.74,3.74-8.27,7.59-13.26,11.22h0Zm10.43-302.59c-.23,0-.34,0-.57.11-.68.23-1.02.91-1.02,2.15-1.59,54.85-3.17,109.7-4.76,164.44-1.36,45.33-2.61,90.55-3.97,135.88,5.33-3.85,18.13-13.83,22.78-23.35l8.95-260.09c-2.49-2.95-7.37-8.5-12.01-12.81-4.53-4.31-7.71-6.35-9.41-6.35Z"/>
        </g>
        <g id="_69121184" data-name=" 69121184">
          <path class="cls-22" d="m397.08,943.45l6.01-208.53-1.13-1.59c-5.67-4.76-10.2-9.63-14.85-19.83l-.68-1.36-8.05,252.5c6.8-5.89,12.01-9.41,18.7-21.19h0Z"/>
          <path class="cls-22" d="m378.26,964.53h0l8.16-252.5h0l.68,1.36c4.42,9.75,8.73,14.62,14.85,19.83l1.13,1.7-6.01,208.53c-2.72,4.87-5.33,8.5-8.27,11.79-2.61,2.95-5.33,5.1-8.16,7.48-.79.57-1.59,1.13-2.38,1.81h0Zm8.16-252.5l-8.05,252.5c.79-.68,1.47-1.25,2.27-1.81,2.83-2.38,5.55-4.53,8.16-7.48,2.95-3.17,5.55-6.91,8.27-11.79l6.01-208.53-1.13-1.59c-2.38-2.04-5.21-4.53-7.82-7.93-2.61-3.29-4.87-7.14-7.03-11.9l-.68-1.47Z"/>
        </g>
        <g id="_72114080" data-name=" 72114080">
          <path class="cls-22" d="m421.67,916.59l5.21-169.65-.23-.68c-6.8-1.36-12.13-1.93-18.13-6.12l-.91-.45-5.67,198.89c0-.11,11.67-3.74,19.72-21.99h0Z"/>
          <path class="cls-22" d="m401.95,938.47h0l5.67-198.89h0l.91.45c5.1,3.63,9.75,4.53,15.07,5.55,1.02.23,1.93.34,2.95.57h0l.23.68-5.21,169.65c-1.81,4.19-4.08,7.93-6.46,11.11-1.93,2.61-4.08,4.87-6.35,6.69-3.85,3.29-6.69,4.19-6.8,4.19h0Zm5.67-198.89l-5.67,198.89c.23-.11,3.06-1.02,6.8-4.08,2.27-1.81,4.42-4.08,6.35-6.69,2.49-3.17,4.65-7.03,6.46-11.11l5.21-169.65-.23-.68c-1.02-.23-2.04-.45-2.95-.57-5.33-1.02-9.97-1.93-15.07-5.55l-.91-.57Z"/>
        </g>
        <g id="_69112560" data-name=" 69112560">
          <path class="cls-22" d="m427.22,909.23l4.31-151.75.34-.68c10.54,5.44,28.22,2.04,28.22,2.04l-12.58,124.78c-3.97,8.05-20.29,25.61-20.29,25.61h0Z"/>
          <path class="cls-22" d="m427.22,909.34h0l4.31-151.75.34-.68h0c2.38,1.25,5.44,2.15,8.84,2.61,2.72.34,5.89.57,9.18.45,5.67-.23,10.09-1.02,10.09-1.02h0l-12.58,124.78c-3.74,7.82-19.95,25.39-20.17,25.61h0Zm4.76-152.43l-.34.68-4.42,151.63c.57-.57,16.43-17.79,20.29-25.61l12.58-124.78c-.23,0-4.53.91-10.09,1.02-3.29.11-6.46,0-9.18-.45-3.51-.45-6.46-1.36-8.84-2.49Z"/>
        </g>
      </g>
      <g id="path23">
        <path class="cls-8" d="m507.91,1108.23c100.3,0,148.8-22.55,148.8-22.55l-1.25-9.97s.79-.57,6.01-2.04c4.65-1.25,6.35-10.54,6.01-14.62-.34-3.63,3.29-12.92,5.33-14.62,0,0-8.39-2.95-11.22-6.35-4.76-5.33-9.63-10.54-17.23-6.57-2.95,1.47-1.25-12.35-1.25-12.35,0,0-45.67,22.55-134.64,21.31-88.96-1.25-135.09-21.31-135.09-21.31,0,0,1.7,13.83-1.25,12.35-7.59-3.97-12.47,1.25-17.23,6.57-3.06,3.4-11.22,6.35-11.22,6.35,2.04,1.7,5.67,10.88,5.33,14.62-.34,4.08,1.25,13.37,6.01,14.62,5.21,1.36,6.01,2.04,6.01,2.04l-1.36,9.97c-.57,0,47.94,22.55,148.23,22.55h0Z"/>
        <path class="cls-22" d="m507.91,1108.8c-98.71,0-146.99-21.65-149.03-22.55l-.34-.23v-.45l1.36-9.63c-.57-.23-2.04-.79-5.55-1.81-5.33-1.47-6.69-11.56-6.46-15.3.34-3.4-3.17-12.47-5.1-14.05l-.79-.68.91-.34c.11,0,8.16-2.95,10.99-6.23,4.87-5.33,9.97-10.88,17.91-6.69.11.11.23,0,.23,0,.91-.68.91-6.69.23-11.79l-.11-1.02.91.34c.45.23,46.92,19.95,134.86,21.19,87.83,1.25,133.96-20.97,134.41-21.19l.91-.45-.11,1.02c-.57,5.21-.68,11.11.23,11.79h.23c8.05-4.19,13.03,1.36,17.91,6.69,2.83,3.29,10.99,6.12,10.99,6.23l.91.34-.79.68c-1.93,1.59-5.44,10.65-5.1,14.05.34,3.74-1.13,13.83-6.35,15.3-3.51.91-4.99,1.47-5.55,1.81l1.25,9.97-.34.23c0,.34-49.3,22.78-148.57,22.78Zm-148.12-23.46c5.1,2.27,53.15,22.33,148.12,22.33s143.36-20.29,148.12-22.33l-1.25-9.86.23-.23c.11-.11,1.02-.68,6.12-2.04,4.08-1.13,5.89-9.75,5.55-14.05-.34-3.51,2.72-11.56,4.87-14.39-2.15-.79-8.27-3.29-10.65-6.23-4.76-5.21-9.29-10.2-16.55-6.46-.68.34-1.13.11-1.36,0-1.7-1.25-1.25-8.5-.91-11.9-6.69,3.06-49.98,20.97-126.82,20.97h-7.25c-81.48-1.13-127.5-18.25-134.41-20.97.34,3.4.91,10.65-.91,11.9-.23.11-.68.34-1.36,0-7.25-3.74-11.79,1.13-16.55,6.46-2.61,2.83-8.5,5.33-10.65,6.23,2.15,2.83,5.21,10.88,4.87,14.39-.34,4.31,1.47,12.92,5.55,14.05,5.1,1.36,6.12,2.04,6.12,2.04l.23.23-1.13,9.86Z"/>
      </g>
      <g id="path25">
        <path class="cls-3" d="m508.59,1102.45c95.54,0,143.02-20.4,143.02-20.4l-1.25-9.29s1.47-1.7,6.46-2.72c4.31-1.02,6.01-7.71,5.67-10.65-.34-2.72,2.95-12.24,5.78-13.26,0,0-6.8-.91-8.84-2.72-3.74-3.17-7.93-11.56-19.15-6.8-1.36.68-1.93-9.63-1.93-9.63,0,0-44.88,21.87-129.65,20.74-84.77-.91-129.88-19.38-129.88-19.38,0,0,1.7,8.61-1.25,7.59-10.43-3.51-13.03,1.81-18.47,6.12-1.81,1.36-8.84,4.53-8.84,4.53,2.04,1.25,2.38,4.76,3.17,7.37,1.02,3.63-.79,11.56,2.95,13.94,2.72,1.7,9.07,3.4,9.07,3.4l-1.25,10.54c0,.23,48.84,20.63,144.38,20.63h0Z"/>
        <path class="cls-22" d="m508.59,1103.02c-49.41,0-86.13-5.55-108.23-10.2-22.67-4.76-36.61-10.09-36.83-10.54l-.11-.11,1.25-10.2c-1.59-.45-6.35-1.93-8.73-3.29-2.72-1.81-2.72-5.89-2.83-9.63,0-1.81,0-3.51-.34-4.65-.23-.57-.34-1.36-.57-2.04-.57-2.04-1.02-4.19-2.38-5.1l-.91-.57.91-.45c.11,0,7.03-3.17,8.73-4.53.91-.79,1.81-1.59,2.72-2.38,3.97-3.63,7.37-6.8,16.32-3.85.34.11.45,0,.45,0,.79-.68.57-4.53.11-6.91l-.23-1.02,1.02.34c.45.23,46.01,18.36,129.65,19.38,83.64,1.02,128.97-20.51,129.42-20.74l.79-.34v.91c.23,3.85.68,8.16,1.25,9.07,9.41-3.85,14.05,1.13,17.45,4.87.79.79,1.47,1.59,2.15,2.15,1.59,1.36,6.69,2.27,8.5,2.61l.11,1.13c-2.38.91-5.78,10.09-5.44,12.69.34,3.29-1.36,10.2-6.12,11.33-3.74.79-5.44,1.93-6.01,2.38l1.36,9.41-.34.23c-.34-.23-48.51,20.06-143.13,20.06Zm-143.81-21.42c4.76,1.93,53.83,20.29,143.81,20.29s137.58-18.25,142.34-20.17l-1.25-9.07.23-.23c.11-.11,1.7-1.81,6.8-2.83,4.08-1.02,5.55-7.48,5.21-10.09-.34-2.49,2.15-10.2,4.87-13.03-2.15-.34-6.23-1.25-7.71-2.61-.68-.57-1.47-1.36-2.27-2.27-3.4-3.63-7.59-8.16-16.32-4.53-.23.11-.57.11-.79,0-1.13-.68-1.59-5.78-1.81-9.29-6.35,2.83-51.11,21.42-129.08,20.51-77.29-.91-122.17-16.43-129.08-19.04.34,1.93.68,5.89-.57,7.03-.34.23-.79.57-1.59.23-8.27-2.72-11.33,0-15.19,3.63-.91.79-1.7,1.59-2.72,2.38-1.47,1.13-6.23,3.4-8.16,4.31,1.13,1.25,1.7,3.17,2.15,5.1.23.68.34,1.36.57,1.93.34,1.36.45,3.17.45,4.99,0,3.4.11,7.14,2.27,8.61,2.61,1.59,8.84,3.29,8.84,3.29l.45.11-1.47,10.77Zm275.28-45.56s-.11,0,0,0c-.11,0,0,0,0,0Z"/>
      </g>
      <g id="path27">
        <path class="cls-4" d="m565.71,830.58l50.54,180.65s-39.78,14.62-70.38,12.01l-25.27-130.22,45.11-62.44h0Z"/>
        <path class="cls-22" d="m553.58,1024.03c-2.72,0-5.33-.11-7.82-.34h-.45l-.11-.45-25.27-130.44,45.9-63.46,51,182.23-.45.23c-.34.11-33.77,12.24-62.78,12.24Zm-7.25-1.36c28.22,2.38,64.48-10.2,69.13-11.79l-49.98-178.95-44.31,61.2,25.16,129.54Z"/>
      </g>
      <g id="path29">
        <path class="cls-22" d="m580.33,908.89h0s-3.06-3.74-6.01-8.61c-1.7-2.83-3.17-5.67-4.08-8.16-1.25-3.17-1.93-6.01-1.93-8.5h0c0,2.38.68,5.33,1.93,8.5,1.02,2.49,2.38,5.33,4.08,8.16,2.95,4.87,5.89,8.39,6.01,8.61.68-1.59,1.59-4.53,1.59-9.97,0-3.29-.34-6.01-.34-6.01h0s.34,2.72.34,6.01c.11,3.06-.23,7.25-1.59,9.97h0Z"/>
      </g>
      <g id="path31">
        <path class="cls-22" d="m580.44,909.91l-.57-.68c-.45-.57-12.13-14.85-12.13-25.61h1.13c0,8.95,8.84,21.08,11.22,24.14,2.04-5.33.91-14.73.91-14.85l1.13-.11c0,.45,1.25,10.88-1.36,16.32l-.34.79Z"/>
      </g>
      <g id="path33">
        <path class="cls-22" d="m553.81,920.9h0s-4.42-4.08-8.27-8.95c-2.27-2.95-4.08-5.55-5.21-7.82-1.36-2.95-1.81-5.33-1.25-7.14h0c-.57,1.81-.23,4.19,1.25,7.14,1.13,2.27,2.83,4.99,5.21,7.82,3.85,4.87,8.16,8.84,8.27,8.95,1.81-1.59,3.17-3.85,4.19-7.03.79-2.49,1.25-5.44,1.47-8.84.34-5.78-.34-10.65-.34-10.77h0s.68,4.99.34,10.77c-.23,3.4-.68,6.35-1.47,8.84-1.02,3.17-2.38,5.55-4.19,7.03h0Z"/>
      </g>
      <g id="path35">
        <path class="cls-22" d="m553.81,921.69l-.34-.34c-.68-.68-17.45-16.32-14.85-24.59l1.13.34c-2.27,6.91,11.67,20.63,14.17,23.01,7.03-6.69,4.76-25.5,4.76-25.73l1.13-.11c.11.79,2.49,20.17-5.44,27.09l-.57.34Z"/>
      </g>
      <g id="path37">
        <path class="cls-22" d="m530.8,936.09l-.23-.45c-.11-.23-2.61-6.69-2.61-10.77h1.13c0,3.17,1.7,8.16,2.38,9.86,3.4-2.04,5.33-17.45,5.78-27.09h1.13c-.11,2.72-1.47,26.97-7.14,28.33l-.45.11Z"/>
      </g>
      <g id="path39">
        <path class="cls-22" d="m594.95,944.81h0s-3.06-1.36-6.46-5.33c-2.04-2.38-3.74-5.1-5.21-8.16-1.81-3.85-3.17-8.27-4.08-13.15h0c.91,4.87,2.27,9.29,4.08,13.15,1.47,3.06,3.29,5.89,5.21,8.16,3.29,3.85,6.23,5.21,6.46,5.33l.68-5.44h0l-.68,5.44Z"/>
      </g>
      <g id="path41">
        <path class="cls-22" d="m595.4,945.72l-.68-.34c-.45-.23-12.24-5.78-16.21-27.09l1.13-.23c3.29,17.79,12.24,24.37,14.85,25.84l.57-4.53,1.13.11-.79,6.23Z"/>
      </g>
      <g id="path43">
        <path class="cls-22" d="m573.42,948.89c-.45,0-1.25-.23-2.04-.79-2.27-1.36-4.76-3.85-6.91-6.8-2.83-3.97-4.87-8.73-6.01-13.71h0c1.13,4.99,3.17,9.75,6.01,13.71,2.15,2.95,4.76,5.55,6.91,6.8,1.02.57,1.81.91,2.27.68,1.36-.45,2.49-2.61,3.29-6.23.68-2.95,1.13-6.91,1.36-11.79.45-8.27.11-16.43.11-16.55h0c0,.11.34,8.27-.11,16.55-.23,4.87-.68,8.84-1.36,11.79-.79,3.74-1.93,5.78-3.29,6.23,0,.11-.11.11-.23.11Z"/>
      </g>
      <g id="path45">
        <path class="cls-22" d="m573.42,949.46c-.57,0-1.36-.23-2.27-.79-3.4-2.04-10.54-8.95-13.26-20.85l1.13-.23c2.61,11.56,9.41,18.25,12.69,20.17,1.13.68,1.7.68,1.81.68,4.08-1.36,4.76-21.08,4.31-34.11h1.13c.11,3.4,1.13,33.09-5.1,35.25-.11-.11-.34-.11-.45-.11Z"/>
      </g>
      <g id="path47">
        <path class="cls-22" d="m545.08,962.26c-.23,0-.57-.11-.79-.23-1.25-.57-2.72-2.27-4.31-5.21-1.36-2.27-2.72-5.33-4.31-9.07-2.61-6.35-4.53-12.35-4.53-12.47h0c0,.11,1.93,6.12,4.53,12.47,1.47,3.74,2.95,6.69,4.31,9.07,1.7,2.83,3.06,4.65,4.31,5.1.57.23,1.02.23,1.47,0,1.25-.57,2.38-2.72,3.51-6.12.91-2.72,1.7-6.46,2.49-10.88,1.36-7.59,2.04-14.85,2.04-14.96h0c0,.11-.68,7.37-2.04,14.96-.79,4.42-1.59,8.05-2.49,10.88-1.13,3.4-2.27,5.55-3.51,6.12-.11.34-.34.34-.68.34Z"/>
      </g>
      <g id="path49">
        <path class="cls-22" d="m545.08,962.83c-.34,0-.68-.11-1.02-.23-5.67-2.49-13.15-25.95-13.49-26.97l1.13-.34c2.15,6.69,8.61,24.48,12.81,26.29.45.23.68.23,1.02,0,4.08-2.04,6.91-23.46,7.71-31.51l1.13.11c-.23,3.06-2.83,29.58-8.27,32.41-.34.11-.68.23-1.02.23Z"/>
      </g>
      <g id="path51">
        <path class="cls-22" d="m567.75,990.03c-.45,0-.91-.11-1.36-.34-4.19-2.04-10.09-12.24-11.22-15.75h0c1.13,3.51,7.14,13.6,11.22,15.64.79.34,1.47.45,2.04.23.91-.34,1.7-2.27,2.49-5.89.57-2.95,1.13-6.91,1.59-11.79.79-8.39,1.13-16.66,1.13-16.77h0c0,.11-.34,8.39-1.13,16.77-.45,4.87-1.02,8.84-1.59,11.79-.79,3.63-1.59,5.67-2.49,5.89-.23.23-.45.23-.68.23Z"/>
      </g>
      <g id="path53">
        <path class="cls-22" d="m567.75,990.6c-.45,0-1.02-.11-1.59-.45-4.42-2.15-10.31-12.35-11.56-15.98l1.13-.34c1.13,3.29,7.03,13.37,10.99,15.41.57.34,1.13.34,1.59.23,2.49-.79,4.42-20.4,4.87-34h1.13c-.23,5.67-1.47,33.66-5.67,35.02-.34.11-.57.11-.91.11Z"/>
      </g>
      <g id="path55">
        <path class="cls-22" d="m544.4,997.96l-5.33-10.54h0l5.33,10.54c1.25-.68,2.27-2.49,3.17-5.55.68-2.38,1.25-5.55,1.59-9.41.68-6.57.68-12.81.68-12.92h0c0,.11,0,6.35-.68,12.92-.34,3.85-.91,7.03-1.59,9.41-.91,3.06-1.93,4.87-3.17,5.55h0Z"/>
      </g>
      <g id="path57">
        <path class="cls-22" d="m544.18,998.64l-5.55-11.11,1.02-.45,4.99,9.97c3.74-3.17,4.65-20.4,4.65-26.97h1.13c0,2.61-.11,25.61-5.67,28.33l-.57.23Z"/>
      </g>
      <g id="path59">
        <path class="cls-22" d="m603.9,1011.22c-.23,0-.34,0-.57-.11-2.04-1.02-4.53-7.14-6.35-12.01-1.93-5.33-3.29-10.43-3.4-10.43h0s1.47,5.21,3.4,10.43c1.7,4.87,4.31,10.88,6.23,12.01.34.11.68.23.91.11.91-.34,1.7-1.36,2.27-3.29.45-1.47.91-3.51,1.13-5.89.45-4.08.45-8.16.45-8.16h0s0,4.08-.45,8.16c-.34,2.38-.68,4.42-1.13,5.89-.57,1.81-1.36,2.95-2.27,3.29h-.23Z"/>
      </g>
      <g id="path61">
        <path class="cls-22" d="m603.9,1011.79c-.23,0-.57,0-.91-.23-4.08-2.04-9.29-20.74-9.97-22.78l1.13-.34c1.59,5.67,6.35,20.51,9.29,22.1.23.11.45.11.45.11,2.61-.91,3.63-10.77,3.63-16.77h1.13c0,1.7-.11,16.43-4.42,17.79,0,.11-.23.11-.34.11Z"/>
      </g>
      <g id="path63">
        <path class="cls-22" d="m581.12,1017.91c-1.13,0-2.61-.91-4.31-2.83-2.38-2.61-5.1-7.03-7.25-11.67-2.04-4.53-3.06-8.16-2.61-9.63h0c-.45,1.36.45,5.1,2.61,9.63,2.15,4.65,4.76,8.95,7.25,11.56,1.93,2.15,3.51,3.06,4.76,2.72,1.25-.34,2.38-1.93,3.51-4.76.91-2.27,1.7-5.33,2.49-9.07,1.36-6.35,2.04-12.69,2.04-12.69h0c0,.11-.68,6.35-2.04,12.69-.79,3.74-1.59,6.8-2.49,9.07-1.13,2.83-2.27,4.42-3.51,4.76-.11.23-.23.23-.45.23Z"/>
      </g>
      <g id="path65">
        <path class="cls-22" d="m581.12,1018.48c-1.36,0-2.95-1.02-4.76-2.95-5.21-5.78-10.99-18.59-9.86-21.76l1.02.34c-.91,2.61,4.53,14.96,9.63,20.63,1.7,1.93,3.17,2.83,4.31,2.61,3.63-.91,6.46-16.09,7.59-26.07l1.13.11c-.23,2.61-2.95,25.5-8.39,26.97-.23.11-.45.11-.68.11Z"/>
      </g>
      <g id="path67">
        <path class="cls-22" d="m559.14,1020.63c-1.47,0-3.06-.57-4.65-1.59-4.31-2.72-7.82-8.16-8.61-13.15h0c.45,2.49,1.47,5.1,3.17,7.59,1.59,2.27,3.51,4.31,5.44,5.55,2.15,1.47,4.31,1.93,6.01,1.47.91-.23,1.81-1.13,2.61-2.72.57-1.25,1.13-2.95,1.59-4.99.79-3.51,1.13-6.91,1.13-6.91h0s-.34,3.4-1.13,6.91c-.45,2.04-1.02,3.74-1.59,4.99-.79,1.59-1.59,2.49-2.61,2.72-.45.11-.91.11-1.36.11Z"/>
      </g>
      <g id="path69">
        <path class="cls-22" d="m559.14,1021.2c-1.59,0-3.29-.57-4.99-1.7-4.42-2.83-8.05-8.39-8.84-13.49l1.13-.23c.79,4.76,4.19,10.09,8.27,12.69,2.04,1.36,3.97,1.81,5.55,1.36,3.06-.68,4.53-10.43,4.87-14.05l1.13.11c-.11,1.47-1.36,14.05-5.67,15.07-.57.23-1.02.23-1.47.23Z"/>
      </g>
      <g id="path71">
        <path class="cls-22" d="m594.04,983.46c-5.44,0-15.07-9.97-17.68-18.81h0c2.61,8.84,12.13,18.81,17.68,18.81.34,0,.68,0,.91-.11,1.25-.34,2.15-2.04,2.95-5.21.57-2.49.91-5.89,1.13-9.97.34-7.03,0-14.05,0-14.05h0c0,.11.34,7.03,0,14.05-.23,4.19-.57,7.48-1.13,9.97-.68,3.06-1.7,4.87-2.95,5.21-.34.11-.68.11-.91.11Z"/>
      </g>
      <g id="path73">
        <path class="cls-22" d="m594.04,984.02c-5.78,0-15.53-9.97-18.25-19.15l1.13-.34c2.61,8.84,12.92,19.49,17.91,18.25,3.63-.91,4.08-18.13,3.51-28.67l1.13-.11c.11,2.95,1.25,28.33-4.42,29.81-.34.23-.68.23-1.02.23Z"/>
      </g>
      <g id="_70127824" data-name=" 70127824">
        <g id="_44192000" data-name=" 44192000">
          <path class="cls-4" d="m646.06,1007.26c2.72,3.85-1.25,9.29-3.29,12.01-2.04,2.72-36.61,11.22-56.44,14.62-24.03,3.97-55.87,6.12-65.16,7.25-5.33.57-8.61-3.97-8.61-9.29,0-7.37,6.01-8.73,9.29-8.73,0,0,3.97-.68,3.97,2.04,0,0,3.29-3.29,6.69-3.29s6.01,1.25,6.01,3.97c0,0,2.61-4.65,5.89-5.44,3.4-.57,7.93,0,8.73,2.72,0,0,3.97-.68,7.25-2.72,3.29-2.04,7.93-2.04,10.65.68,0,0,7.25-2.72,10.54-3.29,3.29-.68,9.97-2.04,10.65.57,0,0,2.04-5.33,5.33-5.89,3.29-.68,11.22-3.97,14.62-.68,0,0,2.72-3.97,4.65-3.97s6.69-1.25,7.25.68c0,0,2.72-4.65,8.73-5.44,6.01-.45,9.97-.45,13.26,4.19h0Z"/>
          <path class="cls-22" d="m520.26,1041.71c-1.93,0-3.63-.68-4.99-1.93-2.04-1.81-3.17-4.76-3.17-8.05,0-8.61,7.48-9.29,9.86-9.29.11,0,2.49-.45,3.74.68.23.23.45.45.57.79,1.25-1.02,3.74-2.72,6.35-2.72,3.17,0,5.44,1.13,6.23,3.06,1.02-1.47,3.06-3.97,5.44-4.42,3.74-.68,8.05.11,9.18,2.61,1.13-.23,4.08-1.02,6.57-2.49,3.63-2.15,8.39-1.93,11.11.57,1.47-.57,7.37-2.72,10.31-3.17,4.19-.91,8.84-1.59,10.65,0,.79-1.59,2.61-4.76,5.33-5.21.57-.11,1.36-.34,2.27-.57,3.74-1.02,9.29-2.61,12.24-.34.91-1.13,2.95-3.74,4.76-3.74.45,0,1.13-.11,1.93-.23,1.93-.23,4.31-.57,5.44.45,1.02-1.36,3.85-4.42,8.61-4.99,6.12-.57,10.31-.57,13.83,4.19h0c2.95,4.19-1.25,9.86-3.29,12.58-2.27,3.06-37.63,11.56-56.89,14.96-16.89,2.83-37.74,4.65-51.68,6.01-6.01.57-10.77,1.02-13.6,1.36-.11-.11-.45-.11-.79-.11Zm2.72-18.02c-.45,0-.79,0-1.02.11-2.72,0-8.84.79-8.84,8.16,0,2.95,1.02,5.55,2.83,7.14,1.36,1.25,3.17,1.81,5.1,1.59,2.83-.34,7.59-.79,13.6-1.36,13.83-1.25,34.68-3.17,51.56-5.89,21.42-3.63,54.4-12.13,56.1-14.39,1.93-2.49,5.78-7.82,3.29-11.33-3.17-4.31-6.91-4.31-12.69-3.74-5.55.68-8.27,5.1-8.27,5.1l-.68,1.13-.34-1.25c-.34-1.02-2.95-.68-4.76-.45-.79.11-1.47.23-2.04.23-1.25,0-3.29,2.27-4.19,3.74l-.34.57-.45-.45c-2.38-2.38-8.05-.79-11.67.23-.91.23-1.7.45-2.38.68-2.95.57-4.87,5.44-4.87,5.55l-.57,1.59-.45-1.7c-.23-.79-1.81-1.93-9.97-.23-3.17.57-10.43,3.29-10.54,3.29l-.34.11-.23-.23c-2.61-2.61-7.14-2.38-9.97-.57-3.4,2.04-7.37,2.72-7.48,2.72l-.57.11-.11-.45c-.57-2.15-4.65-2.83-8.05-2.27-2.95.68-5.44,5.1-5.44,5.1l-1.02-.23c0-2.49-2.83-3.4-5.44-3.4-3.17,0-6.23,3.06-6.35,3.17l-1.02.91v-1.36c0-.45-.11-.79-.45-1.02-.45-.79-1.25-.91-1.93-.91Z"/>
        </g>
        <g id="_68491936" data-name=" 68491936">
          <path class="cls-16" d="m642.77,1011.9c-1.25,2.04-3.4,6.57-.68,10.54,2.72,3.97,3.29,6.69,0,9.41,0,0,9.97-2.04,9.29-13.37-.68-11.22-6.57-9.86-8.61-6.57h0Z"/>
          <path class="cls-22" d="m642.21,1032.42l-.45-1.02c2.72-2.27,2.72-4.42-.11-8.61-3.06-4.53-.23-9.75.68-11.22.91-1.59,2.95-3.06,5.1-2.49,1.47.34,4.08,2.04,4.53,9.29.79,11.79-9.63,14.05-9.75,14.05Zm4.31-22.33c-1.36,0-2.61,1.02-3.29,2.04h0c-.91,1.36-3.4,5.89-.68,9.97,2.15,3.17,3.17,5.89,1.47,8.5,2.72-1.25,7.25-4.42,6.8-12.13-.34-4.76-1.59-7.82-3.63-8.27-.23-.11-.45-.11-.68-.11Z"/>
        </g>
        <g id="_69644440" data-name=" 69644440">
          <path class="cls-16" d="m582.37,1020.52c-3.97.68-3.97,3.97-2.04,9.41,2.04,5.33,5.33,9.86,3.29,13.83,0,0,11.22-6.01,7.93-15.87-3.17-9.97-5.21-8.05-9.18-7.37h0Z"/>
          <path class="cls-22" d="m582.37,1045.11l.79-1.59c1.36-2.83,0-6.01-1.7-9.63-.57-1.25-1.13-2.49-1.59-3.74-1.47-4.08-1.7-6.57-.79-8.16.57-1.02,1.7-1.7,3.17-1.93h0c.45-.11,1.02-.23,1.47-.23,3.63-.79,5.55-.68,8.5,8.05,3.4,10.2-8.16,16.43-8.27,16.55l-1.59.68Zm.11-24.03c-1.25.23-2.04.68-2.38,1.47-.79,1.25-.45,3.63.91,7.25.45,1.25,1.02,2.49,1.59,3.74,1.47,3.17,2.83,6.23,2.27,9.07,1.02-.68,2.49-1.81,3.74-3.29,3.06-3.4,3.97-7.14,2.61-10.99-2.72-8.27-4.31-7.93-7.14-7.25-.57-.23-1.13-.11-1.59,0Z"/>
        </g>
        <g id="_72616856" data-name=" 72616856">
          <path class="cls-16" d="m521.85,1029.13c-3.06-1.25-9.29,5.1-9.29,8.61,0,6.01,3.29,12.01,9.29,13.94,0,0-2.72-12.01,0-12.58,2.72-.68,6.69-7.25,0-9.97Z"/>
          <path class="cls-22" d="m522.64,1052.59l-.91-.34c-5.78-1.93-9.63-7.71-9.63-14.51,0-2.61,2.95-6.23,5.67-8.05,1.7-1.13,3.29-1.47,4.42-1.02,3.74,1.47,4.08,4.08,3.97,5.44-.23,2.72-2.27,5.21-4.08,5.67-.11,0-.23.11-.34.23-1.13,1.81.11,8.95.79,11.67l.11.91Zm-1.7-23.01c-.79,0-1.7.34-2.72,1.02-2.72,1.81-5.1,5.21-5.1,7.14,0,4.99,2.49,10.77,7.93,13.03-.57-2.72-1.7-9.41-.34-11.45.23-.45.57-.68,1.02-.79,1.36-.34,3.06-2.49,3.17-4.65.11-1.93-1.02-3.4-3.29-4.31h0c-.11,0-.34,0-.68,0Z"/>
        </g>
      </g>
      <g id="_69129936" data-name=" 69129936">
        <g id="_72092440" data-name=" 72092440">
          <path class="cls-22" d="m632.23,1011.22l-.23-.11c-1.47-.57-2.27-1.36-2.49-2.49-.45-2.61,2.83-5.67,3.06-5.78l.79.79c-.79.79-2.95,3.17-2.72,4.76.11.68.68,1.13,1.59,1.59.79-.34,3.17-1.36,6.01-1.36v1.13c-3.06,0-5.67,1.36-5.78,1.36l-.23.11Z"/>
        </g>
        <g id="_72083592" data-name=" 72083592">
          <path class="cls-22" d="m612.63,1018.14l-1.02-.57c.68-1.25,1.47-3.63,1.02-4.65-.11-.23-.34-.45-.68-.57l.34-1.13c.68.11,1.13.57,1.36,1.13.45,1.02.23,2.38-.11,3.51,2.27-.91,5.33-.11,5.44-.11l-.23,1.13c-1.36-.23-5.1-.68-6.12,1.25Z"/>
        </g>
        <g id="_71898952" data-name=" 71898952">
          <path class="cls-22" d="m598.92,1019.16l-.34-.23c-.91-.57-1.47-1.36-1.59-2.27-.23-2.15,2.04-4.42,2.15-4.53l.79.79c-.57.57-1.93,2.27-1.81,3.63,0,.45.34.91.79,1.25,1.02-.57,4.42-2.27,6.35-.34l-.79.79c-1.59-1.59-5.21.68-5.33.68l-.23.23Z"/>
        </g>
        <g id="_70075752" data-name=" 70075752">
          <path class="cls-22" d="m557.21,1031.28v-2.15c0-.45.23-.91.57-1.25,1.81-3.29,2.95-6.23,2.72-6.91h-.11l-.23-1.13c.68-.11,1.02.11,1.25.34.79,1.02-.57,4.19-1.81,6.69,2.83-1.02,7.59-1.13,9.41-1.13v1.13c-4.31,0-8.95.57-10.31,1.59-.23.34-.34.57-.45.91l-1.02,1.93Z"/>
        </g>
        <g id="_68552720" data-name=" 68552720">
          <path class="cls-22" d="m543.95,1028.11c-1.81-3.06.57-6.12,2.15-7.37l.68.91c-.11.11-3.63,3.06-1.81,6.01l-1.02.45Z"/>
        </g>
      </g>
      <g id="path86">
        <path class="cls-4" d="m450.11,830.58l-50.43,180.65s39.89,14.62,70.49,12.01l25.27-130.22-45.33-62.44h0Z"/>
        <path class="cls-22" d="m462.35,1024.03c-28.9,0-62.44-12.24-62.9-12.35l-.45-.23.11-.45,50.77-181.67,46.01,63.46v.23l-25.27,130.67h-.45c-2.61.23-5.21.34-7.82.34Zm-61.99-13.15c4.65,1.7,41.14,14.17,69.24,11.79l25.16-129.54-44.43-61.2-49.98,178.95Z"/>
      </g>
      <g id="path88">
        <path class="cls-22" d="m456.8,885.77c-.45,0-.91-.11-1.47-.23-4.65-1.25-3.85-15.75-3.29-21.99-3.29,4.99-9.18,10.88-9.41,11.11l-.79-.79c.11-.11,7.93-7.93,10.54-13.15l1.02.34c-1.02,8.5-1.36,22.44,2.15,23.35,1.25.34,2.38.11,3.29-.45,2.04-1.36,2.72-4.42,2.72-4.53l1.13.23c0,.11-.68,3.63-3.17,5.21-.91.68-1.81.91-2.72.91Z"/>
      </g>
      <g id="path90">
        <path class="cls-22" d="m435.49,909.91l-.34-.79c-2.72-5.33-1.47-15.87-1.47-16.32l1.13.11c0,.11-1.13,9.52,1.02,14.85,2.38-3.06,11.22-15.19,11.22-24.14h1.13c0,10.77-11.56,25.05-12.13,25.61l-.57.68Z"/>
      </g>
      <g id="path92">
        <path class="cls-22" d="m462.13,921.69l-.34-.34c-8.16-6.8-5.55-26.18-5.44-27.09l1.13.11c0,.23-2.49,18.93,4.76,25.73,2.49-2.38,16.43-16.09,14.05-23.01l1.02-.34c2.83,8.39-14.51,24.37-14.73,24.59l-.45.34Z"/>
      </g>
      <g id="path94">
        <path class="cls-22" d="m485.02,936.09l-.45-.11c-5.55-1.36-6.91-25.61-7.03-28.33h1.13c.45,9.63,2.38,25.05,5.67,27.09.68-1.59,2.49-6.69,2.49-9.86h1.13c0,4.08-2.61,10.54-2.72,10.77l-.23.45Z"/>
      </g>
      <g id="path96">
        <path class="cls-22" d="m420.42,945.72l-.68-6.23,1.13-.11.45,4.53c2.61-1.59,11.56-8.16,14.96-25.84l1.13.23c-3.97,21.31-15.75,26.86-16.32,27.09l-.68.34Z"/>
      </g>
      <g id="path98">
        <path class="cls-22" d="m442.41,949.46h-.45c-6.23-2.04-5.1-31.85-4.99-35.25h1.13c-.57,12.92.11,32.75,4.19,34.11.11,0,.68,0,1.81-.68,3.29-1.93,10.09-8.61,12.69-20.17l1.13.23c-2.72,11.9-9.86,18.93-13.26,20.85-.91.57-1.7.91-2.27.91Z"/>
      </g>
      <g id="path100">
        <path class="cls-22" d="m470.74,962.83c-.34,0-.68-.11-.91-.23-5.44-2.72-8.05-29.35-8.27-32.41l1.13-.11c.79,8.05,3.63,29.35,7.71,31.51.34.11.57.11,1.02,0,4.19-1.81,10.65-19.61,12.81-26.29l1.13.34c-.34,1.02-7.82,24.59-13.37,26.97-.57.11-.91.23-1.25.23Z"/>
      </g>
      <g id="path102">
        <path class="cls-22" d="m448.19,990.6c-.34,0-.57,0-.79-.11-4.19-1.36-5.55-29.47-5.78-35.02h1.13c.57,13.6,2.49,33.21,4.99,34,1.47.45,3.97-1.7,6.91-5.78,2.61-3.51,4.87-7.93,5.55-9.86l1.02.34c-.79,2.15-3.06,6.46-5.78,10.2-2.83,4.19-5.33,6.23-7.25,6.23Z"/>
      </g>
      <g id="path104">
        <path class="cls-22" d="m471.65,998.64l-.45-.23c-5.44-2.83-5.55-25.73-5.55-28.33h1.13c0,6.57.79,23.8,4.53,26.97l4.99-9.97,1.02.45-5.67,11.11Z"/>
      </g>
      <g id="path106">
        <path class="cls-22" d="m411.92,1011.79c-.23,0-.34,0-.57-.11-4.19-1.36-4.42-16.09-4.42-17.79h1.13c0,6.01,1.02,15.87,3.63,16.77.11,0,.23.11.57-.11,3.06-1.59,7.82-16.55,9.41-22.1l1.13.34c-.57,2.15-5.89,20.63-9.97,22.78-.23.23-.57.23-.91.23Z"/>
      </g>
      <g id="path108">
        <path class="cls-22" d="m434.7,1018.48c-.23,0-.45,0-.57-.11-5.55-1.47-8.05-24.37-8.27-27.09l1.13-.11c1.02,9.97,3.85,25.05,7.48,26.07,1.02.23,2.49-.68,4.19-2.49,5.21-5.55,10.65-18.02,9.86-20.74l1.13-.34c1.13,3.4-4.87,16.21-10.09,21.87-2.04,2.04-3.63,2.95-4.87,2.95Z"/>
      </g>
      <g id="path110">
        <path class="cls-22" d="m456.69,1021.2c-.45,0-1.02-.11-1.47-.23-4.31-1.02-5.55-13.6-5.67-15.07l1.13-.11c.45,5.1,2.27,13.49,4.87,14.05,1.59.45,3.63-.11,5.67-1.47,4.08-2.72,7.48-7.93,8.27-12.69l1.13.23c-.79,5.1-4.42,10.54-8.84,13.37-1.7,1.36-3.51,1.93-5.1,1.93Z"/>
      </g>
      <g id="path112">
        <path class="cls-22" d="m421.78,984.02c-.34,0-.68,0-1.02-.11-5.55-1.47-4.53-26.97-4.42-29.81h1.13c-.45,10.54,0,27.77,3.63,28.67,5.1,1.25,15.3-9.18,18.02-18.25l1.13.34c-2.83,9.18-12.58,19.15-18.47,19.15Z"/>
      </g>
      <g id="path114">
        <path class="cls-4" d="m369.88,1007.26c-2.72,3.85,1.25,9.29,3.29,12.01,2.04,2.72,36.49,11.22,56.44,14.62,24.03,3.97,55.87,6.12,65.05,7.25,5.33.57,8.73-3.97,8.73-9.29,0-7.37-6.01-8.73-9.29-8.73,0,0-3.97-.68-3.97,2.04,0,0-3.4-3.29-6.69-3.29s-6.01,1.25-6.01,3.97c0,0-2.61-4.65-6.01-5.44-3.29-.57-7.93,0-8.61,2.72,0,0-3.97-.68-7.37-2.72-3.29-2.04-7.82-2.04-10.54.68,0,0-7.25-2.72-10.65-3.29-3.29-.68-9.86-2.04-10.54.57,0,0-2.04-5.33-5.33-5.89-3.4-.68-11.22-3.97-14.73-.68,0,0-2.61-3.97-4.53-3.97s-6.69-1.25-7.37.68c0,0-2.61-4.65-8.61-5.44-6.01-.45-9.97-.45-13.26,4.19h0Z"/>
        <path class="cls-22" d="m495.56,1041.71h-1.02c-2.72-.34-7.59-.79-13.71-1.36-13.83-1.25-34.57-3.17-51.45-5.89-19.27-3.29-54.62-11.9-56.89-14.85-2.04-2.72-6.23-8.39-3.29-12.69h0c3.51-4.87,7.71-4.87,13.83-4.19,4.87.57,7.48,3.51,8.5,4.99,1.13-1.02,3.51-.68,5.44-.45.68.11,1.36.23,1.93.23,1.81,0,3.85,2.61,4.65,3.74,3.06-2.27,8.5-.68,12.24.34.91.23,1.81.45,2.49.68,2.61.45,4.53,3.63,5.21,5.21,1.81-1.59,6.46-.79,10.54,0,3.06.57,8.95,2.61,10.43,3.17,2.72-2.49,7.37-2.72,10.99-.57,2.61,1.47,5.55,2.27,6.69,2.49,1.13-2.72,5.89-3.17,9.07-2.61,2.49.57,4.53,2.95,5.55,4.42.79-1.93,3.06-3.06,6.23-3.06,2.61,0,5.1,1.81,6.35,2.83.11-.34.34-.57.57-.79,1.25-1.13,3.63-.68,3.85-.68,2.15,0,9.75.68,9.75,9.29,0,3.17-1.13,6.12-3.17,7.93-1.13,1.25-2.83,1.81-4.76,1.81Zm-125.23-34.23c-2.49,3.51,1.36,8.84,3.29,11.33,1.7,2.27,34.79,10.77,56.1,14.39,16.77,2.83,37.51,4.65,51.34,5.89,6.12.57,10.88,1.02,13.71,1.36,1.93.23,3.74-.34,5.21-1.59,1.81-1.59,2.83-4.31,2.83-7.14,0-7.37-6.12-8.16-8.73-8.16-.68-.11-2.27-.23-3.06.45-.23.23-.45.57-.45,1.02v1.36l-.91-.91s-3.29-3.17-6.35-3.17c-2.61,0-5.44.91-5.44,3.4l-1.02.23s-2.49-4.53-5.55-5.1c-2.95-.57-7.37,0-7.93,2.27l-.11.57-.57-.11c-.11,0-4.08-.79-7.59-2.72-3.29-2.04-7.48-1.7-9.86.57l-.23.23-.34-.11c-.11,0-7.25-2.72-10.54-3.29-7.71-1.7-9.63-.79-9.97.23l-.45,1.7-.57-1.59s-1.93-4.99-4.87-5.55c-.68-.11-1.59-.34-2.49-.68-3.63-1.02-9.18-2.61-11.67-.23l-.45.45-.34-.57c-.91-1.47-2.83-3.74-4.08-3.74-.57,0-1.25-.11-2.04-.23-1.81-.23-4.42-.57-4.87.45l-.45,1.13-.57-1.13s-2.49-4.42-8.16-5.1c-5.89-.23-9.75-.23-12.81,4.08Z"/>
      </g>
      <g id="path116">
        <path class="cls-16" d="m373.16,1011.9c1.25,2.04,3.29,6.57.68,10.54-2.72,3.97-3.4,6.69,0,9.41,0,0-9.97-2.04-9.29-13.37.57-11.22,6.57-9.86,8.61-6.57h0Z"/>
        <path class="cls-22" d="m373.73,1032.42c-.11,0-10.43-2.27-9.75-13.94.34-7.25,2.95-8.95,4.42-9.29,2.15-.57,4.19.91,5.1,2.49.68,1.02,3.85,6.35.68,11.22-2.95,4.31-2.95,6.46-.11,8.61l-.34.91Zm-4.42-22.33c-.23,0-.45,0-.68.11-2.04.57-3.4,3.51-3.63,8.27-.45,7.59,3.97,10.77,6.69,12.01-1.7-2.49-.68-5.1,1.59-8.39,2.72-4.19-.11-9.07-.68-9.97h0c-.68-1.02-1.93-2.04-3.29-2.04Z"/>
      </g>
      <g id="path118">
        <path class="cls-16" d="m433.57,1020.52c3.97.68,3.97,3.97,2.04,9.41-2.04,5.33-5.33,9.86-3.29,13.83,0,0-11.45-6.01-7.93-15.87,3.17-9.97,5.21-8.05,9.18-7.37h0Z"/>
        <path class="cls-22" d="m433.57,1044.99l-1.59-.79c-.11-.11-11.79-6.35-8.27-16.55,2.83-8.73,4.87-8.84,8.5-8.05.45.11.91.23,1.47.23h0c1.59.23,2.61.91,3.17,1.93.91,1.59.68,4.19-.79,8.16-.45,1.25-1.02,2.61-1.59,3.74-1.7,3.63-3.06,6.91-1.7,9.63l.79,1.7Zm-3.4-24.48c-1.81,0-3.29,1.25-5.33,7.59-2.49,7.25,3.63,12.47,6.35,14.39-.57-2.83.79-5.89,2.27-9.07.57-1.25,1.13-2.38,1.59-3.74,1.36-3.63,1.59-5.89.91-7.25-.45-.79-1.25-1.25-2.38-1.47-.57-.11-1.02-.23-1.47-.23-.79-.11-1.36-.23-1.93-.23Z"/>
      </g>
      <g id="path120">
        <path class="cls-16" d="m494.09,1029.13c3.06-1.25,9.29,5.1,9.29,8.61,0,6.01-3.4,12.01-9.29,13.94,0,0,2.61-12.01,0-12.58-2.72-.68-6.69-7.25,0-9.97Z"/>
        <path class="cls-22" d="m493.29,1052.59l.23-1.02c1.13-5.44,1.59-11.67.45-11.9-1.81-.45-3.97-2.95-4.08-5.67-.11-1.36.34-3.97,3.97-5.44,1.13-.45,2.72-.11,4.42,1.02,2.72,1.81,5.67,5.44,5.67,8.05,0,6.69-3.85,12.58-9.63,14.51l-1.02.45Zm1.7-23.01c-.23,0-.45,0-.68.11h0c-2.27.91-3.4,2.38-3.29,4.31.11,2.15,1.93,4.31,3.29,4.65.68.11,2.83,1.59.68,12.24,4.76-2.15,7.93-7.25,7.93-13.03,0-1.93-2.49-5.33-5.1-7.14-1.25-.79-2.15-1.13-2.83-1.13Z"/>
      </g>
      <g id="_44279976" data-name=" 44279976">
        <g id="_69936256" data-name=" 69936256">
          <path class="cls-22" d="m383.7,1011.22l-.23-.11s-2.61-1.36-5.78-1.36v-1.13c2.83,0,5.21,1.02,6.01,1.36.91-.34,1.47-.91,1.59-1.59.34-1.7-1.81-3.97-2.72-4.76l.79-.79c.11.11,3.51,3.17,3.06,5.78-.23,1.13-1.02,1.93-2.49,2.49l-.23.11Z"/>
        </g>
        <g id="_45811336" data-name=" 45811336">
          <path class="cls-22" d="m403.08,1018.14h0c-1.13-2.27-5.89-1.13-5.89-1.13l-.23-1.13c.23,0,3.17-.79,5.33.11-.34-1.13-.57-2.61-.11-3.51.23-.57.68-.91,1.36-1.13l.34,1.13c-.34.11-.45.23-.57.45-.45,1.02.34,3.4.91,4.65h0l-1.13.57Z"/>
        </g>
        <g id="_69905464" data-name=" 69905464">
          <path class="cls-22" d="m416.91,1019.16l-.34-.23s-3.63-2.27-5.1-.68l-.79-.79c1.81-1.93,5.21-.34,6.23.34.45-.34.79-.79.79-1.25.11-1.36-1.25-3.06-1.81-3.51l.79-.79c.11.11,2.38,2.38,2.15,4.53-.11.91-.68,1.7-1.59,2.27l-.34.11Z"/>
        </g>
        <g id="_68862032" data-name=" 68862032">
          <path class="cls-22" d="m458.73,1031.28l-1.02-1.81c-.11-.23-.34-.57-.45-.91-1.36-.91-6.01-1.59-10.31-1.59v-1.13c1.81,0,6.57.11,9.41,1.13-1.36-2.72-2.61-5.78-1.93-6.69.11-.23.45-.45,1.13-.34l-.23,1.13h0c-.11.79,1.02,3.74,2.83,6.91.34.34.57.79.57,1.25v2.04h0Z"/>
        </g>
        <g id="_44279072" data-name=" 44279072">
          <path class="cls-22" d="m471.87,1028.11l-1.02-.57c1.7-2.95-1.81-5.89-1.81-6.01l.68-.91c1.59,1.36,3.97,4.53,2.15,7.48Z"/>
        </g>
      </g>
      <g id="_70413008" data-name=" 70413008">
        <g id="_68989816" data-name=" 68989816">
          <polygon class="cls-22" points="492.61 904.35 473.35 1007.26 481.39 1019.84 492.05 1007.94 502.59 912.97 498.62 905.6 492.61 904.35"/>
          <path class="cls-22" d="m481.39,1019.95h0l-8.05-12.69,19.27-102.9h0l6.01,1.25h0l3.97,7.25-10.54,94.97-10.65,12.13Zm11.22-115.6l-19.27,102.9,7.93,12.69,10.65-12.01,10.54-94.97-3.97-7.25-5.89-1.36Z"/>
        </g>
        <g id="_45721920" data-name=" 45721920">
          <polygon class="cls-22" points="523.21 904.35 542.48 1007.26 536.58 1019.84 523.89 1007.94 513.35 912.97 517.32 905.6 523.21 904.35"/>
          <path class="cls-22" d="m536.58,1019.95h0l-12.69-12.01-10.54-94.97,3.97-7.25,5.89-1.25h0l19.27,102.9-5.89,12.58Zm-19.27-114.35l-3.97,7.25,10.54,94.97,12.69,12.01,5.89-12.69-19.27-102.9-5.89,1.36Z"/>
        </g>
        <g id="_68989792" data-name=" 68989792">
          <polygon class="cls-22" points="496.69 1007.94 507.91 1023.92 519.13 1008.62 508.59 899.14 496.69 1007.94"/>
          <path class="cls-22" d="m507.91,1023.92h0l-11.33-15.98h0l12.01-108.68h0l10.54,109.48-11.22,15.19Zm-11.22-15.98l11.22,15.98,11.22-15.3-10.54-109.36-11.9,108.68Z"/>
        </g>
      </g>
      <g id="path132">
        <path class="cls-4" d="m543.84,720.31c2.04.11-2.72-10.65-2.72-10.65,5.33,5.44,25.27,6.69,25.27,6.69-12.01-5.33-23.91-45.22-22.55-77.06,1.25-31.96-4.53-44.54-9.29-49.18-6.01-6.01-25.27-11.22-37.97-12.01-7.14-.34-6.01,5.44-6.01,5.44-13.26-3.4-26.52-4.65-32.53-.68-5.67,3.74-6.8,22.55-2.72,19.27,9.97-7.93,18.7-.68,24.71,7.93,5.33,7.59,4.99,29.24-2.72,54.51-7.93,26.52-29.81,53.04-29.81,53.04,11.9,0,28.56-10.54,28.56-10.54l-3.97,16.55c12.58-6.01,22.55-15.3,22.55-15.3l12.01,12.58c3.97-5.33,12.01-12.58,12.01-12.58,0,0,9.86,10.65,25.16,12.01h0Z"/>
        <path class="cls-22" d="m471.31,724.61l3.97-16.43c-4.08,2.38-17.45,9.97-27.65,9.97h-1.25l.79-.91c.23-.23,21.87-26.75,29.69-52.92,7.14-23.8,8.39-46.01,2.83-53.94-4.53-6.69-9.29-10.43-13.94-11.11-3.29-.45-6.69.57-9.86,3.17-.79.57-1.36.57-1.81.45-.79-.34-1.36-1.47-1.47-3.51-.45-5.1,1.36-14.51,5.33-17.11,7.14-4.76,22.89-1.93,32.19.45,0-.91.11-2.27,1.13-3.4,1.13-1.36,2.95-1.93,5.55-1.81,13.03.68,32.19,6.12,38.31,12.13,9.63,9.52,10.09,35.25,9.41,49.64-1.36,31.17,10.2,71.17,22.21,76.5l-.23,1.13c-.79,0-16.89-1.13-23.8-5.44,1.36,3.29,2.95,7.93,2.15,9.07-.23.23-.45.45-.79.45h0c-13.6-1.25-23.23-9.86-25.27-11.79-1.7,1.59-8.05,7.59-11.56,12.13l-.45.57-12.01-12.69c-2.04,1.81-11.22,9.75-22.33,14.96l-1.13.45Zm5.67-18.81l-4.08,16.77c11.79-5.89,21.19-14.51,21.31-14.62l.45-.34,11.9,12.47c4.08-5.21,11.56-12.01,11.67-12.13l.45-.34.34.45c.11.11,9.97,10.43,24.82,11.79.23-1.02-1.36-5.78-3.17-9.86l.91-.57c3.97,4.08,17,5.78,22.44,6.35-11.56-8.84-22.1-46.58-20.74-76.27,1.36-33.21-5.1-44.77-9.07-48.73-5.78-5.78-24.93-11.11-37.51-11.79-2.15-.11-3.74.34-4.65,1.36-1.13,1.36-.79,3.29-.79,3.4l.23.91-.91-.23c-15.3-3.97-26.97-4.19-32.07-.79-3.4,2.27-5.33,11.22-4.87,16.09.11,1.7.57,2.38.79,2.49s.45-.11.57-.23c3.51-2.83,7.14-3.97,10.77-3.4,4.99.68,9.97,4.65,14.73,11.56,5.78,8.27,4.65,30.94-2.61,54.96-7.03,23.57-25.16,47.26-29.13,52.36,11.45-.68,26.86-10.31,26.97-10.43l1.25-1.25Z"/>
      </g>
      <g id="path134">
        <path class="cls-22" d="m476.52,707.5l-.79-.79c12.35-13.71,19.04-62.33,19.15-62.9l1.13.11c-.34,2.04-6.91,49.64-19.49,63.58Z"/>
      </g>
      <g id="path136">
        <path class="cls-22" d="m495.11,708.63l-1.02-.57c8.5-15.64,11.22-65.05,11.22-65.5l1.13.11c-.11,2.04-2.61,50.09-11.33,65.96Z"/>
      </g>
      <g id="path138">
        <path class="cls-22" d="m518.11,708.52c-3.29-9.29-3.29-61.76-3.29-63.92h1.13c0,.57,0,54.51,3.29,63.58l-1.13.34Z"/>
      </g>
      <g id="path140">
        <path class="cls-22" d="m540.66,709.99c-11.22-16.55-13.94-60.74-14.05-62.67l1.13-.11c0,.45,2.83,45.79,13.83,62.1l-.91.68Z"/>
      </g>
      <g id="path142">
        <path class="cls-22" d="m483.21,620.01c-.57-4.31-1.59-7.71-3.17-9.97-6.01-8.73-14.73-15.98-24.71-7.93,0,0,3.4-10.54,10.65-10.88,5.67-.34,18.47,4.19,29.69,23.46,0,0-8.39-1.93-10.31-.11-3.63,3.29-2.15,5.44-2.15,5.44h0Z"/>
        <path class="cls-22" d="m483.21,620.01s-.34-.57-.34-1.59v-.23c-.68-3.63-1.59-6.35-2.95-8.27-4.65-6.8-9.52-10.54-14.28-11.33-3.51-.57-6.91.57-10.31,3.29h0s.91-2.72,2.61-5.33c1.02-1.59,2.15-2.83,3.29-3.74,1.47-1.13,3.06-1.81,4.76-1.81,1.13-.11,2.95,0,5.44.79,2.38.79,4.87,1.93,7.25,3.63,2.83,1.93,5.67,4.31,8.39,7.25,3.06,3.29,6.01,7.37,8.61,11.9h0c-.11,0-8.39-1.81-10.31-.11-1.81,1.59-2.38,2.95-2.49,3.74.23.68.34,1.25.34,1.81h0Zm-.23-1.59h0c-.11.91.23,1.47.23,1.59,0-.57-.11-1.13-.23-1.59Zm-18.81-19.72c.57,0,1.13,0,1.59.11,4.87.68,9.63,4.53,14.28,11.33,1.25,1.93,2.27,4.65,2.95,8.16.11-.91.68-2.15,2.49-3.74,1.93-1.7,9.86,0,10.31.11-2.61-4.53-5.55-8.5-8.61-11.79-2.72-2.95-5.44-5.33-8.39-7.25-2.49-1.59-4.87-2.83-7.25-3.63-2.49-.79-4.31-.91-5.44-.79-1.7.11-3.29.68-4.76,1.81-1.13.91-2.27,2.15-3.29,3.74-1.7,2.49-2.49,4.99-2.61,5.33,2.83-2.27,5.78-3.4,8.73-3.4Z"/>
      </g>
      <g id="path144">
        <path class="cls-22" d="m454.42,589.07c.79-2.72,2.15-5.21,3.74-6.23,6.01-3.97,19.27-2.72,32.53.68,0,0-1.13-5.78,6.01-5.44,12.69.68,31.96,6.01,37.97,12.01,1.36,1.47,3.06,3.74,4.42,7.14h-.23c-2.95-4.08-11.22-3.85-13.26-3.63-3.17.34-5.21.23-9.41,1.25-2.04.45-5.1,1.02-6.69,2.38-1.25,1.02-2.38,4.99-4.31,4.99-3.17,0-2.95-.79-3.74-1.81-1.02-1.25-1.59-3.17-2.72-3.06-3.29.57-8.61-2.04-15.3-7.25-6.69-5.21-9.29-6.57-18.02-6.01-8.61.68-11.22,5.55-11.22,5.55l.23-.57h0Z"/>
        <path class="cls-22" d="m505.08,602.22c-2.49,0-2.95-.57-3.4-1.25-.11-.23-.23-.34-.45-.57-.34-.45-.68-.91-.91-1.36-.57-.91-1.02-1.7-1.7-1.7h-.11c-1.59.34-3.74-.23-6.35-1.47-2.61-1.25-5.55-3.17-8.95-5.89-3.4-2.72-5.67-4.31-8.27-5.21-2.49-.91-5.21-1.13-9.75-.79-2.49.23-6.01.91-8.84,3.06-1.7,1.25-2.38,2.49-2.38,2.49h0l.23-.57c.91-3.06,2.27-5.21,3.74-6.23,2.83-1.93,7.37-2.72,13.49-2.38,5.33.23,11.9,1.36,19.04,3.17,0-.23-.34-2.27.91-3.85,1.02-1.13,2.72-1.7,5.1-1.59,6.35.34,14.28,1.81,21.42,3.97,7.82,2.38,13.71,5.21,16.43,7.93,1.81,1.93,3.29,4.31,4.42,7.14h-.23c-1.25-1.7-3.63-2.95-7.03-3.4-2.72-.45-5.33-.34-6.23-.23-.91.11-1.7.11-2.38.23-2.04.11-3.97.34-7.03,1.02-.23,0-.45.11-.68.11-1.93.45-4.53,1.02-6.01,2.15-.45.34-.91,1.13-1.36,2.04-.57,1.59-1.47,3.17-2.72,3.17Zm-6.35-4.87c.68,0,1.13.79,1.7,1.7.23.45.57.91.91,1.36.11.23.34.34.45.57.45.68.79,1.25,3.4,1.25,1.25,0,2.15-1.59,2.95-2.95.45-.79.91-1.59,1.36-2.04,1.47-1.13,4.08-1.7,6.01-2.15.23,0,.45-.11.68-.11,3.06-.79,4.99-.91,7.03-1.02.79-.11,1.59-.11,2.38-.23,1.02-.11,3.63-.23,6.23.23,3.4.57,5.78,1.7,7.03,3.4h.23c-1.13-2.83-2.61-5.21-4.42-7.14-2.72-2.72-8.61-5.55-16.43-7.93-7.14-2.15-15.19-3.63-21.42-3.97h-.57c-2.04,0-3.51.57-4.42,1.59-1.36,1.59-.91,3.74-.91,3.85h0c-7.03-1.81-13.6-2.95-19.04-3.17-6.12-.23-10.77.57-13.49,2.38-1.47.91-2.83,3.17-3.74,6.23h0l-.23.45c.23-.23.91-1.36,2.38-2.38,1.59-1.13,4.42-2.61,8.84-3.06,4.53-.34,7.25-.11,9.75.79,2.49.91,4.87,2.49,8.27,5.21,3.4,2.61,6.35,4.65,8.95,5.89,2.27,1.13,4.42,1.59,6.12,1.25-.11,0,0,0,0,0Z"/>
      </g>
      <g id="path146">
        <path class="cls-4" d="m503.49,596.78c2.04,0,3.51-1.47,3.51-3.51s-1.47-3.51-3.51-3.51c-1.93,0-3.51,1.47-3.51,3.51s1.59,3.51,3.51,3.51Z"/>
        <path class="cls-22" d="m503.49,596.78c-1.93,0-3.51-1.59-3.51-3.51s1.59-3.51,3.51-3.51c1.02,0,1.81.34,2.49,1.02.68.68,1.02,1.59,1.02,2.49s-.34,1.81-1.02,2.49c-.68.68-1.59,1.02-2.49,1.02Zm0-7.03c-1.93,0-3.51,1.59-3.51,3.51s1.59,3.51,3.51,3.51c.91,0,1.81-.34,2.49-1.02.68-.68,1.02-1.59,1.02-2.49s-.34-1.81-1.02-2.49c-.68-.68-1.59-1.02-2.49-1.02Z"/>
      </g>
      <g id="path148">
        <path class="cls-22" d="m558.23,888.49c-1.02,0-1.93-.23-2.72-.79-2.49-1.59-3.17-5.1-3.17-5.21l1.13-.23s.68,3.17,2.72,4.53c.91.57,2.04.79,3.29.45,3.51-.91,3.17-14.85,2.15-23.35l1.02-.34c2.61,5.1,10.54,13.03,10.54,13.15l-.79.79c-.34-.34-6.12-6.12-9.41-11.22.57,6.23,1.36,20.74-3.29,21.99-.45.23-1.02.23-1.47.23Z"/>
      </g>
      <g id="_45058936" data-name=" 45058936">
        <path class="cls-8" d="m507.91,919.88c91.8-70.6,83.98-174.07,83.98-174.07-2.38.45-4.76.68-7.14.68-19.27,0-65.16-10.99-75.93-25.05-11.45,12.69-58.36,25.05-77.52,25.05-2.38,0-4.87-.23-7.14-.68-.11,0-8.05,103.47,83.75,174.07h0Z"/>
        <path class="cls-22" d="m507.91,920.56l-.34-.23c-47.48-36.49-67.77-81.82-76.5-113.44-9.41-34.34-7.71-59.95-7.59-61.08v-.68l.68.11c2.27.45,4.65.68,7.03.68,19.61,0,65.96-12.47,77.18-24.82l.45-.45.45.57c4.65,6.12,16.89,12.35,34.45,17.57,14.62,4.31,31.17,7.25,41.03,7.25,2.38,0,4.65-.23,7.03-.68l.68-.11v.68c0,.23,1.81,26.41-7.59,60.74-8.73,31.73-29.01,77.29-76.61,113.78l-.34.11Zm-83.3-174.07c-.23,4.31-1.13,28.45,7.59,60.06,8.61,31.39,28.79,76.38,75.7,112.65,47.03-36.38,67.2-81.48,75.82-112.99,8.61-31.28,7.82-55.53,7.59-59.72-2.27.45-4.42.57-6.57.57-18.81,0-64.26-10.65-75.93-24.71-12.13,12.35-58.02,24.71-77.52,24.71-2.38,0-4.53-.11-6.69-.57Z"/>
      </g>
      <g id="_71262752" data-name=" 71262752">
        <g>
          <g class="cls-2">
            <rect class="cls-20" x="428.69" y="728.24" width="158.43" height="57.46"/>
          </g>
          <g class="cls-34">
            <rect class="cls-18" x="428.69" y="785.7" width="158.43" height="1.13"/>
          </g>
          <g class="cls-37">
            <rect class="cls-19" x="428.69" y="786.94" width="158.43" height="1.13"/>
          </g>
          <g class="cls-38">
            <rect class="cls-17" x="428.69" y="788.08" width="158.43" height="1.13"/>
          </g>
          <g class="cls-36">
            <rect class="cls-5" x="428.69" y="789.21" width="158.43" height="1.13"/>
          </g>
          <g class="cls-35">
            <rect class="cls-14" x="428.69" y="790.34" width="158.43" height="1.13"/>
          </g>
          <g class="cls-32">
            <rect class="cls-15" x="428.69" y="791.48" width="158.43" height="1.13"/>
          </g>
          <g class="cls-33">
            <rect class="cls-15" x="428.69" y="792.61" width="158.43" height="2.15"/>
          </g>
          <g class="cls-27">
            <rect class="cls-12" x="428.69" y="794.76" width="158.43" height="2.15"/>
          </g>
          <g class="cls-29">
            <rect class="cls-11" x="428.69" y="797.03" width="158.43" height="2.15"/>
          </g>
          <g class="cls-28">
            <rect class="cls-6" x="428.69" y="799.18" width="158.43" height="2.15"/>
          </g>
          <g class="cls-31">
            <rect class="cls-7" x="428.69" y="801.45" width="158.43" height="2.15"/>
          </g>
          <g class="cls-30">
            <rect class="cls-9" x="428.69" y="803.6" width="158.43" height="2.15"/>
          </g>
          <g class="cls-26">
            <rect class="cls-10" x="428.69" y="805.87" width="158.43" height="2.15"/>
          </g>
          <g class="cls-24">
            <rect class="cls-10" x="428.69" y="808.02" width="158.43" height="21.42"/>
          </g>
          <g class="cls-25">
            <rect class="cls-8" x="428.69" y="829.56" width="158.43" height="21.42"/>
          </g>
          <g class="cls-23">
            <rect x="428.69" y="850.98" width="158.43" height="62.67"/>
          </g>
        </g>
      </g>
      <g id="path185">
        <path class="cls-1" d="m587.13,751.36c-.79,0-1.59.11-2.49.11-18.02,0-59.95-9.29-76.16-23.12-16.89,12.81-59.61,23.12-77.29,23.12-.79,0-1.7-.11-2.49-.23,0,4.08.23,8.27.45,12.01.91,14.28,3.4,28.56,7.25,42.39,11.9,43.29,36.38,80.12,71.51,108.12,35.13-27.99,59.61-64.82,71.62-108.23,3.85-13.71,6.35-28.11,7.25-42.39.23-3.74.45-7.82.34-11.79h0Z"/>
      </g>
      <g id="path187">
        <path class="cls-1" d="m587.13,751.36c-.79,0-1.59.11-2.49.11-18.02,0-59.95-9.29-76.16-23.12-16.89,12.81-59.61,23.12-77.29,23.12-.79,0-1.7-.11-2.49-.23,0,4.08.23,8.27.45,12.01.91,14.28,3.4,28.56,7.25,42.39,11.9,43.29,36.38,80.12,71.51,108.12,35.13-27.99,59.61-64.82,71.62-108.23,3.85-13.71,6.35-28.11,7.25-42.39.23-3.74.45-7.82.34-11.79h0Z"/>
      </g>
      <g id="path189">
        <path class="cls-22" d="m507.91,914.33l-.34-.23c-35.02-27.88-59.84-65.39-71.74-108.34-3.85-14.05-6.35-28.33-7.25-42.5-.23-3.06-.45-7.71-.45-12.13v-.68l.68.11c.91.11,1.7.23,2.38.23,18.02,0,60.52-10.54,76.95-23.01l.34-.23.34.34c16.32,14.05,58.93,23.01,75.82,23.01.79,0,1.7,0,2.38-.11h.57v.57c0,4.42-.23,8.84-.45,11.79-.91,14.05-3.4,28.33-7.25,42.5-11.9,43.07-36.72,80.58-71.74,108.46l-.23.23Zm-78.54-162.51c0,4.19.23,8.5.45,11.33.91,13.94,3.4,28.22,7.25,42.27,11.9,43.18,35.81,79.44,70.94,107.55,35.13-28.11,59.04-64.37,71.06-107.66,3.85-14.05,6.35-28.22,7.25-42.27.23-2.83.45-7.03.45-11.11h-1.93c-9.52,0-24.82-2.49-38.99-6.35-16.66-4.53-29.92-10.43-37.29-16.66-16.89,12.47-59.27,23.01-77.29,23.01-.68.11-1.25,0-1.93-.11Z"/>
      </g>
      <g id="g193">
        <g id="g195">
          <g id="g197">
            <g id="path199">
              <path class="cls-3" d="m534.09,807.8c-.34-.23-.79-.45-.91-.68-.23-.23-.11-.34.79-.11,1.47.45,2.49.23,3.4-.57l.79-.68,1.02.45c.57.23,1.13.45,1.25.45.45-.11,1.36-1.25,1.25-1.7,0-.45.34-.34.57.11.45,1.02-.23,2.27-1.25,2.49-.45.11-1.02.11-1.7-.23-.91-.34-1.13-.34-1.59,0-.79,1.02-2.27,1.13-3.63.45Z"/>
            </g>
            <g id="path201">
              <path class="cls-3" d="m537.83,804.4c-.34-.45-.79-2.15-.68-2.61.11-.34.23-.45.57-.34.57.23.68.57.68,1.93-.11,1.13-.23,1.36-.57,1.02Z"/>
            </g>
          </g>
          <g id="path203">
            <path class="cls-3" d="m494.2,803.15c-.11.79,1.47,2.95,2.27,3.29-.45.23-1.13.11-1.59.34-2.49,2.49-11.9,11.67-13.6,13.83,4.99.11,10.65-.11,15.3-.34,0-3.4,3.29-3.63,5.44-4.87,1.13,1.81,3.97,1.59,4.31,4.31v11.45h-43.07c-.79,3.29-3.74,5.89-7.93,4.87,1.25-1.36,3.51-1.81,4.31-3.74.68-4.08-1.36-6.69-2.61-8.95,2.15-.79,2.49-1.02,4.65-2.38-1.47,4.65,3.97,4.08,7.93,3.97.11-1.59.11-3.4-1.13-3.63,1.59-.57,1.81-.79,4.31-2.83v6.46c.68,0,29.81.11,29.81.11,0-1.93.57-5.44-1.02-5.44-1.47,0-.11,3.97-1.25,3.97h-23.01v-3.97c1.02-1.02.91-.91,7.48-7.59.68-.68,5.33-4.87,9.41-8.84Z"/>
          </g>
          <g id="path205">
            <path class="cls-3" d="m551.77,802.92c1.59.91,2.83,2.04,4.87,2.61-.23.79-.91,1.13-1.13,2.04v17.34c2.15.45,2.61-.79,3.74-1.47.34,2.83,2.04,5.55,2.04,7.71h-9.41c-.11-9.41-.11-18.81-.11-28.22Z"/>
          </g>
          <g id="path207">
            <path class="cls-3" d="m539.19,812.22s3.4-2.83,3.4-2.95v15.19h2.49c0-5.78-.11-11.67-.11-17,1.02-1.02,2.95-2.49,3.4-3.51v27.2h-21.65c-.34-5.67-.34-11.45,6.23-10.2v-2.27c-.23-.34-.57.11-.68-.45,1.02-1.02,1.36-1.36,4.19-3.74v9.97h2.49c.23,0,.23-11.79.23-12.24Zm-8.39,12.13c.57.91,2.49.91,2.49-.57-.34-1.25-2.95-.79-2.49.57Z"/>
          </g>
          <g id="circle209">
            <circle class="cls-3" cx="468.59" cy="834.32" r="1.36"/>
          </g>
          <g id="path215">
            <path class="cls-3" d="m509.27,802.92c1.59.91,2.83,2.04,4.87,2.61-.23.79-.91,1.13-1.13,2.04v17.34c2.15.45,2.61-.79,3.74-1.47.34,2.83,2.04,5.55,2.04,7.71h-9.41c-.11-9.41-.11-18.81-.11-28.22Z"/>
          </g>
        </g>
      </g>
      <g id="text3281-9">
        <g id="path3351">
          <path d="m638.72,1063.43l-1.93.57c.23.45.34.79.57,1.13l.34.45.57.57c.57.68,1.25,1.25,2.15,1.7-.57.11-1.02.23-1.59.11l-.91-.23-.91-.45c-1.13-.45-1.93-1.36-2.49-2.72l-17,5.1-1.13-3.85,16.43-4.87-.68-1.36c-.34-.68-1.02-1.25-1.93-1.7-.45-.34-1.25-.45-2.15-.57-.34,0-.91,0-1.59.11l-1.13.23-2.49.68c-1.81.57-3.06.79-3.63.57-.68-.23-1.02-.68-1.36-1.59l-1.13-3.63,1.13.57c.34.23,1.13.34,2.38.57h.68l.79-.11,1.02-.23.68-.23c1.47-.45,2.49-.68,2.83-.57.79-.11,1.47-.11,2.04,0,.79.11,1.47.34,2.04.68.57.34,1.36.79,2.15,1.59l1.36,1.7c.23.34.68,1.13,1.59,2.61l2.27-.68,1.02,3.85m-6.46,9.07l-1.93,3.63-3.51-1.81,1.81-3.63,3.63,1.81"/>
        </g>
        <g id="path3353">
          <path d="m617.42,1069.78l-5.21,1.36c0,1.25-.45,2.49-1.13,3.51-.68,1.02-1.7,1.81-3.06,2.15-1.47.34-2.83.34-4.19-.23-1.02-.23-2.04-1.02-3.06-2.49l-3.85,1.02-1.02-3.85,3.74-1.02c0-1.36.45-2.61,1.36-3.63.45-.57,1.02-.91,1.59-1.36.68-.34,1.25-.68,1.81-.79,1.25-.34,2.38-.23,3.51.23,1.13.45,2.15,1.36,3.06,2.61l5.33-1.36,1.13,3.85m-8.95.34c-.11-.68-.57-1.25-1.25-1.7-.68-.45-1.36-.57-2.15-.45-.68.23-1.25.57-1.7,1.25-.11.23-.23.57-.23.91s0,.68.11,1.13c.23.68.57,1.25,1.13,1.7.57.45,1.36.57,2.15.34.79-.23,1.36-.68,1.7-1.25.45-.57.45-1.25.23-1.93"/>
        </g>
        <g id="path3355">
          <path d="m597.02,1075.33l-15.19,3.06,1.7,8.5-.68.11c-.34.11-.45.11-.57.11-.91.23-1.59.23-1.93.23h-1.36l-.45-.11c-.79,0-1.36-.11-1.81-.34l-.91-.34-1.13-.45c-1.25-.45-2.27-1.13-3.17-2.04-.79-.79-1.59-1.93-2.27-3.29l-4.87.91-.79-3.85,4.99-1.02c-.23-1.25-.23-2.61.23-4.08l.57-1.59c.23-.57.45-1.02.79-1.47.45-.68,1.25-1.59,2.38-2.61.68-.34,1.7-.91,3.29-1.59l-.34-1.7-1.59-1.36,4.08-3.85,1.25,6.12c.57-.11.91-.11.91-.11h1.47l1.13.11c2.04.34,3.74,1.13,5.33,2.61l.91,1.02.34.45.57.79c.45.79.79,1.81,1.02,2.83l5.33-1.02.79,3.97m-9.75-2.15c-.45-2.61-2.04-4.19-4.76-4.87h-2.15c-.23,0-.45.11-.45.11l1.13,5.89,6.23-1.13m-9.75,1.93l-1.25-6.01c-1.02.23-1.81.57-2.49,1.25-1.81,1.47-2.38,3.4-1.93,5.89l5.67-1.13m1.7,8.61l-.91-4.76-5.21,1.02c.34.79.68,1.47,1.25,1.93.45.34,1.13.79,2.27,1.36l1.36.45h1.25"/>
        </g>
        <g id="path3357">
          <path d="m564.38,1081.56l-4.53.57.11.68c.23,1.36,0,2.72-.45,3.85-.45,1.13-1.36,2.15-2.61,3.17-1.25.91-2.49,1.47-3.74,1.7-1.7.23-3.4-.11-5.1-1.02l-.68-.34,1.13.23.91.11h1.02c1.25-.11,2.38-.68,3.4-1.36,1.02-.79,1.81-1.7,2.15-2.72.34-1.02.57-2.04.45-2.95l-.11-.68-8.84,1.13-.45-3.51-.11-1.13v-1.36c0-.23,0-.45.11-.91.11-.45.23-.91.68-1.36.34-.45.91-.79,1.47-1.02l.34-.11h.68c-.11-.45-.23-.91-.34-1.36-.11-.57-.11-.91-.11-1.02v-.34c.11-.34.34-.79.79-1.36.23-.23.45-.34.68-.57l1.02-.23h.34l.91-.23,2.04-.57c.34-.23.91-.45,1.47-.91l.68-.68,1.47,10.99,4.76-.57.45,3.85m-8.73-2.83l-.79-5.67c-.11,0-.23,0-.34.11l-.57.23c-.11,0-.23.11-.57.23l-.57.23c-.11,0-.23.11-.34.23-.11.11-.23.34-.34.57v.79c.11.57.34.91.79,1.25-.23,0-.45-.11-.68,0-.91.11-1.47.57-1.81,1.47,0,.11-.11.34-.11.68v.68l5.33-.79"/>
        </g>
        <g id="path3359">
          <path d="m541.94,1087.57c-.23,1.02-.45,1.7-.79,2.38-1.59,2.95-4.08,4.53-7.37,4.76-.79.11-1.59,0-2.38,0l-1.25-.11-.79-.23c-.34,0-.57-.11-.68-.23l-1.25-.34,1.36.11h1.36c2.27-.11,4.19-.91,5.78-2.38,1.7-1.47,2.49-3.29,2.61-5.55v-.68c-.11-1.36-.45-2.49-1.25-3.63-.68-1.13-1.47-1.81-2.38-2.15l-1.36-.34c.57-.57,1.02-1.36,1.47-2.49l.23-1.02v-1.02c0-.23-.11-.57-.23-1.02l-.11-.57-.23-.68.68.45c.57.34,1.02.68,1.47,1.02.45.34.91.79,1.36,1.25.79.79,1.59,1.93,2.27,3.17.45.79.91,1.59,1.25,2.49.34.91.45,1.81.57,2.72v3.29l-.34.79"/>
        </g>
        <g id="path3361">
          <path d="m522.34,1085.64l-11.67.23-.11-3.97,7.82-.23-.11-5.44-1.47-1.02,5.21-5.44.34,15.87m.11,6.69l-2.61-2.49-4.99,5.33-2.61-2.61,2.49-2.61,5.21,4.99,2.49-2.61"/>
        </g>
        <g id="path3363">
          <path d="m503.98,1063.77l-2.61-2.83-5.78,5.55-2.72-2.95,2.83-2.72,5.55,5.78,2.72-2.83m6.8,22.21l-18.36-.45.11-4.87v-.79l.11-1.02.11-.68.23-.68.23-.45.34-.57c.23-.57.68-1.02,1.02-1.36,1.36-1.47,3.06-2.15,4.99-2.04h.68c.45,0,.68,0,.79.11.34,0,.45,0,.57.11l.68.23.11-2.95-1.36-1.36,5.55-3.74-.45,16.55,4.87.11-.23,3.85m-8.84-4.19l.11-4.76c-.57-.45-1.25-.68-2.04-.68-1.02,0-1.81.34-2.61,1.02-.79.68-1.13,1.47-1.13,2.49v1.7l5.67.23"/>
        </g>
        <g id="path3365">
          <path d="m478.59,1061.5l-1.81.91-2.27,21.65-3.63-.34,2.95-28.11,4.76,5.89"/>
        </g>
        <g id="path3367">
          <path d="m466.46,1083.15l-8.73-1.13.57-3.97,5.21.68,2.27-17.68-1.7-1.36,6.01-4.65-3.63,28.11"/>
        </g>
        <g id="path3369">
          <path d="m457.74,1082.13l-12.47-2.27-1.7-2.15-2.15,1.47-10.77-1.93.68-3.97,9.75,1.7,8.05-4.87-.23-.68-.23-.57c-.11-.11-.23-.34-.34-.45-.11,0-.11-.11-.23-.23-.11-.11-.23-.11-.45-.23h-.23l-.34-.11c-.11-.11-.23-.11-.34-.23l-.45-.34-.45-.57-.34-.45-.45.34-.45.34-.68.34h-1.02c-.34,0-.79,0-1.47.23l-.45.34-.34.34-.23.11,2.72,3.29-2.95,1.7-1.93-2.38c-.11-.23-.34-.34-.57-.57-.34-.23-.57-.34-1.02-.34-.68,0-1.36.34-2.04,1.13l-.23-.57v-.79c.11-.57.34-.91.79-1.25.45-.34.91-.45,1.47-.34l.45.11v-.79c.11-.57.57-1.02,1.25-1.7.57-.45,1.02-.68,1.47-.79l1.7-.23c.79-.11,1.25-.23,1.59-.34.45-.11.91-.34,1.59-.79l.45-.34.45-.45.45-.45.45-.57c.11,1.13.45,1.93.91,2.38l.68.57.79.57,1.59,1.02.45.34c.11.11.34.23.57.34.34.23.68.57,1.13,1.13.57.79.79,1.47.68,2.04,0,.23-.11.34-.23.45l-.23.23h.79c.45.11.79.34,1.02.79.11.11.23.34.23.68.11.34.11.57,0,.91,0,.11-.23.57-.68,1.02,0-.45-.23-.79-.45-1.02-.23-.23-.57-.45-1.13-.68-.68-.11-1.25,0-1.81.23l-4.87,2.83,12.58,2.27-.79,4.19"/>
        </g>
        <g id="path3371">
          <path d="m430.77,1077.26l-3.74-.91c-.23.79-.57,1.81-1.13,2.95-.45.91-1.02,1.59-1.47,2.15-2.38,2.49-5.21,3.29-8.5,2.61-1.47-.34-3.06-1.13-4.76-2.27l-.45-.34.57.11c2.38.57,4.65.45,6.8-.23,2.15-.68,3.74-2.15,4.76-4.42l.23-.68c.34-1.36.34-2.61-.11-3.85-.34-1.25-.91-2.15-1.59-2.61l-1.13-.68c.68-.34,1.36-1.02,2.15-1.93l.45-1.02.34-.91.11-.45c0-.23.11-.34,0-.57v-.57c0-.23,0-.45-.11-.68l.91,1.25,1.02,1.59.57.91c.68,1.25,1.25,2.72,1.47,4.53l.11,1.36,4.31,1.02-.79,3.63"/>
        </g>
        <g id="path3373">
          <path d="m413.99,1049.83l-1.93.57-5.44,21.08-3.51-.91,7.14-27.31,3.74,6.57"/>
        </g>
        <g id="path3375">
          <path d="m404.13,1047.9l-1.7-3.17-6.35,3.63-1.81-3.17,3.17-1.7,3.51,6.35,3.17-1.93m-5.44,21.65c-.34,1.02-.79,1.93-1.36,2.72-.57.79-1.36,1.47-2.38,2.15-2.27,1.36-4.87,1.7-7.71.79-2.04-.57-3.85-1.93-5.33-3.85-1.59-2.15-2.04-4.42-1.47-6.69.23-.57.45-1.25.79-1.81l.91-1.13.68-1.02c.45-.57.68-1.13.79-1.59.11-.23.11-.45.11-.57,0-.23,0-.45-.23-.79-.23-.34-.45-.57-.79-.68h-.57c-.91.11-1.47.68-1.7,1.59l-.11-.11c-.34-.79-.34-1.7-.11-2.49.23-1.02.91-1.59,1.7-1.81l.68-.11h.68v-.45l.11-.79.23-.68c.11-.11.23-.34.45-.57.23-.23.45-.34.79-.45l1.7-.11h.57l-.45.68-.45,1.02v2.27c0,.68-.23,1.59-.45,2.61-.11.23-.57,1.13-1.7,2.83-1.02,1.59-1.7,2.95-2.04,4.08l-.23,1.25c0,1.25.57,2.61,1.7,3.85l.23.23.57.45s.23.11.45.34c.11.11.23.23.45.23l.91.45c.23.11.68.23,1.13.34,1.59.45,3.17.34,4.65-.23.45-.11,1.13-.57,1.81-1.13l.34-.34.45-.57c.11-.23.23-.45.34-.57.23-.34.23-.57.34-.68l-8.39-2.38,1.02-3.4.34-.91.11-.45c0-.23.11-.34.23-.57.23-.45.45-.79.68-1.02.11-.11.23-.23.68-.57l.79-.68c.23-.23.57-.34,1.02-.34l.68.11.57.11.45.11.11-.34v-.45l.11-.57c.11-.45.34-.91.68-1.36.34-.57.79-.91,1.47-1.13h1.02l.91.11,1.02.34c.57.23,1.36.34,2.15.45.79.11,1.47.11,1.81-.11l.34-.11-4.08,14.28-.23.23m-2.61-4.99l1.7-5.67-.45.11-.91-.11c-.34-.11-.68-.11-.91,0-.45.11-.79.57-.91,1.25l-.11.57c0,.23.11.34.23.57l-.45-.23-.34-.11h-.57c-.23,0-.68.23-1.13.57l-.23.34-.34.68-.11.68,4.53,1.36"/>
        </g>
      </g>
    </g>
  </g>
</svg>