<svg width="200" height="27" viewBox="0 0 200 27" fill="none" xmlns="http://www.w3.org/2000/svg">
<path d="M125.536 18.9233C125.536 19.3899 125.164 19.7928 124.709 19.7928H123.511C121.9 19.7928 120.496 18.7536 119.938 17.2903C119.112 18.7748 117.542 19.7928 115.724 19.7928C112.853 19.7928 110.457 17.3964 110.457 14.4486V13.3882C110.457 10.3132 112.771 8.02281 115.724 8.02281H121.053V15.5726C121.053 16.9722 122.066 18.075 123.511 18.075H124.668C125.143 18.075 125.515 18.4567 125.515 18.9445L125.536 18.9233ZM119.401 14.3213V9.7618H115.766C113.824 9.74059 112.151 11.2463 112.151 13.367V14.385C112.151 16.4209 113.783 18.0538 115.766 18.0538C117.749 18.0538 119.401 16.3784 119.401 14.3213ZM116.138 4.71449C116.138 5.37191 115.621 5.90209 114.94 5.90209C114.341 5.90209 113.804 5.37191 113.804 4.71449C113.804 4.05707 114.341 3.5481 114.94 3.5481C115.601 3.5481 116.138 4.07828 116.138 4.71449ZM119.525 4.71449C119.525 5.37191 119.009 5.90209 118.368 5.90209C117.728 5.90209 117.212 5.37191 117.212 4.71449C117.212 4.05707 117.749 3.5481 118.368 3.5481C118.988 3.5481 119.525 4.07828 119.525 4.71449Z" fill="#1FA35E"/>
<path d="M134.376 18.902C134.376 19.411 133.983 19.7927 133.529 19.7927H131.939C130.699 19.7927 129.605 19.1141 129.006 18.1386C128.407 19.1141 127.353 19.7927 126.135 19.7927H124.482C123.986 19.7927 123.615 19.4322 123.615 18.9232C123.615 18.4143 123.986 18.0537 124.482 18.0537H125.969C127.105 18.0537 128.076 17.0782 128.076 15.8906V10.3131H129.77V15.8906C129.811 17.0782 130.782 18.0537 131.939 18.0537H133.529C134.004 18.0537 134.376 18.4143 134.376 18.902ZM128.179 23.716C128.179 24.3735 127.642 24.9036 126.981 24.9036C126.32 24.9036 125.845 24.3735 125.845 23.716C125.845 23.0586 126.362 22.5497 126.981 22.5497C127.601 22.5497 128.179 23.0798 128.179 23.716ZM131.67 23.716C131.67 24.3735 131.154 24.9036 130.513 24.9036C129.873 24.9036 129.357 24.3735 129.357 23.716C129.357 23.0586 129.894 22.5497 130.513 22.5497C131.133 22.5497 131.67 23.0798 131.67 23.716Z" fill="#1FA35E"/>
<path d="M142.121 18.9021C142.121 19.4111 141.729 19.7928 141.254 19.7928H140.242C139.003 19.7928 137.908 19.1142 137.309 18.1386C136.71 19.1142 135.656 19.7928 134.438 19.7928H133.446C132.951 19.7928 132.579 19.4323 132.579 18.9233C132.579 18.4143 132.951 18.0538 133.446 18.0538H134.293C135.409 18.0538 136.379 17.0783 136.379 15.8907V10.5253H138.073V15.8907C138.114 17.0783 139.085 18.0538 140.263 18.0538H141.275C141.75 18.0538 142.142 18.4143 142.142 18.9021H142.121ZM138.404 6.36867C138.404 7.02609 137.867 7.55627 137.206 7.55627C136.545 7.55627 136.07 7.02609 136.07 6.36867C136.07 5.71124 136.586 5.20227 137.206 5.20227C137.825 5.20227 138.404 5.73245 138.404 6.36867Z" fill="#1FA35E"/>
<path d="M141.192 19.7927C140.717 19.7927 140.324 19.411 140.324 18.9444C140.324 18.4355 140.717 18.0537 141.192 18.0537H144.641C145.674 18.0537 146.48 17.2055 146.48 16.1875V8.12878H148.173V16.1875C148.173 18.1386 146.583 19.7715 144.662 19.7715H141.213L141.192 19.7927ZM144.641 23.7161C144.641 24.3735 144.125 24.9037 143.443 24.9037C142.844 24.9037 142.307 24.3735 142.307 23.7161C142.307 23.0586 142.844 22.5497 143.443 22.5497C144.104 22.5497 144.641 23.0798 144.641 23.7161ZM148.153 23.7161C148.153 24.3735 147.616 24.9037 146.955 24.9037C146.294 24.9037 145.819 24.3735 145.819 23.7161C145.819 23.0586 146.335 22.5497 146.955 22.5497C147.574 22.5497 148.153 23.0798 148.153 23.7161Z" fill="#1FA35E"/>
<path d="M163.747 19.7928H161.516V19.9625C161.516 21.6166 160.979 22.9951 159.885 24.013C158.232 25.6672 156.146 26.0277 152.676 26.0065V24.3099C154.184 24.3099 157.055 24.416 158.79 22.783C159.389 22.2316 159.74 21.3833 159.781 20.3866V19.7928H156.539C153.399 19.7928 151.086 17.1419 151.086 13.8972C151.086 10.6525 153.399 8.02283 156.539 8.02283H161.516V18.075H163.747V19.814V19.7928ZM159.823 9.76182H156.539C154.328 9.76182 152.759 11.5644 152.759 13.876C152.759 16.1876 154.349 18.0538 156.539 18.0538H159.823V9.76182Z" fill="#1FA35E"/>
<path d="M181.139 18.9233C181.139 19.3898 180.746 19.7928 180.292 19.7928H179.3C177.813 19.7928 176.553 18.7748 176.202 17.3964C175.376 18.8172 173.847 19.7928 172.092 19.7928C170.212 19.7928 168.642 18.796 167.796 17.2903C167.258 18.7324 165.854 19.7928 164.264 19.7928H163.272C162.797 19.7928 162.425 19.3898 162.425 18.9233C162.425 18.4567 162.797 18.0538 163.272 18.0538H164.264C165.627 18.0538 166.68 16.951 166.68 15.5301V8.00159H172.092C174.963 8.00159 177.317 10.3768 177.338 13.3246V16.0391C177.338 17.1419 178.226 18.0538 179.3 18.0538H180.292C180.746 18.0538 181.139 18.4355 181.139 18.9233ZM175.665 13.3882C175.644 11.3311 174.054 9.76178 171.968 9.76178H168.395V14.4486C168.395 16.4845 170.026 18.1174 171.968 18.0962C174.116 18.075 175.665 16.442 175.665 14.3849V13.4094V13.3882Z" fill="#1FA35E"/>
<path d="M189.339 18.9021C189.339 19.411 188.946 19.7928 188.492 19.7928H187.335C186.096 19.7928 185.001 19.1141 184.402 18.1386C183.803 19.1141 182.75 19.7928 181.531 19.7928H180.126C179.631 19.7928 179.259 19.4322 179.259 18.9233C179.259 18.4143 179.631 18.0538 180.126 18.0538H181.386C182.502 18.0538 183.473 17.0782 183.473 15.8906V10.398H185.166V15.8906C185.208 17.0782 186.178 18.0538 187.356 18.0538H188.512C188.987 18.0538 189.359 18.4143 189.359 18.9021H189.339ZM183.72 6.49586C183.72 7.15328 183.183 7.68346 182.522 7.68346C181.861 7.68346 181.386 7.15328 181.386 6.49586C181.386 5.83844 181.903 5.32947 182.522 5.32947C183.142 5.32947 183.72 5.85965 183.72 6.49586ZM187.108 6.49586C187.108 7.15328 186.591 7.68346 185.951 7.68346C185.311 7.68346 184.794 7.15328 184.794 6.49586C184.794 5.83844 185.332 5.32947 185.951 5.32947C186.571 5.32947 187.108 5.85965 187.108 6.49586Z" fill="#1FA35E"/>
<path d="M187.562 18.9232C187.562 18.4567 187.934 18.0537 188.388 18.0537H189.979C190.95 18.0537 191.714 17.2691 191.714 16.3147V2.08472H193.408V16.3359C193.408 18.2446 191.9 19.7927 190.041 19.7927H188.409C187.955 19.7927 187.583 19.411 187.583 18.9232H187.562Z" fill="#1FA35E"/>
<path d="M197.993 2H199.645V19.814H197.993V2Z" fill="#1FA35E"/>
<path d="M104.007 0.339355V22.3312H102.457V0.339355H104.007Z" fill="#636363"/>
<path d="M17.2882 19.7864H15.7804C14.3965 19.7864 13.1985 18.9805 12.6821 17.8565C11.7113 19.0441 10.3068 19.7864 8.69572 19.7864C7.43577 19.7864 6.32041 19.2774 5.61814 18.5988L5.57683 19.4046C5.32897 22.6705 3.11889 24.3883 0.495713 24.9185L0 22.3736C2.1068 21.9071 3.09824 20.571 3.09824 18.5775V7.63464H8.69572C11.8146 7.63464 14.3139 10.2855 14.3139 13.4666V15.7358C14.3139 16.5205 14.9542 17.1779 15.7804 17.1779H17.2882V19.8076V19.7864ZM11.794 14.124V13.4666C11.794 11.7064 10.4307 10.3067 8.69572 10.3067H5.63879V14.2301C5.63879 16.1175 7.12594 17.1779 8.69572 17.1779C10.4101 17.1779 11.7526 15.8206 11.794 14.124Z" fill="#636363"/>
<path d="M34.4318 17.1778V19.7651H16.6892V17.1778H29.1234V14.2724C29.1234 12.0245 27.3678 10.2431 25.2197 10.2431H19.395L17.9904 7.29527L23.0922 0L25.1783 1.52692L20.9441 7.61338H25.4056C28.8962 7.61338 31.726 10.5188 31.726 14.124V17.1778H34.4524H34.4318Z" fill="#636363"/>
<path d="M44.594 18.4714C44.594 19.2137 43.995 19.7863 43.3133 19.7863H42.1154C40.8554 19.7863 39.7401 19.1925 38.9965 18.3018C38.2942 19.1925 37.2408 19.7863 36.0222 19.7863H34.1839C33.4196 19.7863 32.8413 19.2349 32.8413 18.4926C32.8413 17.7504 33.4196 17.1778 34.1839 17.1778H35.7537C36.7451 17.1778 37.5713 16.3083 37.5713 15.2691V10.1158H40.1531V15.3115C40.2564 16.3507 41.1239 17.199 42.136 17.199H43.334C44.0569 17.199 44.6146 17.7504 44.6146 18.4926L44.594 18.4714ZM38.2322 5.85314C38.2322 6.72264 37.53 7.46489 36.6625 7.46489C35.795 7.46489 35.0927 6.72264 35.0927 5.85314C35.0927 4.98365 35.8156 4.28381 36.6625 4.28381C37.5093 4.28381 38.2322 5.00486 38.2322 5.85314ZM42.4252 5.85314C42.4252 6.72264 41.7023 7.46489 40.8761 7.46489C40.0499 7.46489 39.3063 6.72264 39.3063 5.85314C39.3063 4.98365 40.0086 4.28381 40.8761 4.28381C41.7436 4.28381 42.4252 5.00486 42.4252 5.85314Z" fill="#636363"/>
<path d="M43.0655 17.1779H43.8917C45.0071 17.1779 45.6267 16.4356 45.6267 15.3965V7.63464H51.3688C54.6116 7.63464 57.0489 10.2219 57.0489 13.5514V14.1877C57.0076 17.2627 54.4464 19.7651 51.4308 19.7864C49.737 19.8076 48.2292 18.9805 47.3204 17.7505C46.6182 18.9805 45.3375 19.7864 43.8917 19.7864H43.0449C42.3633 19.7651 41.7849 19.1713 41.7849 18.4715C41.8056 17.7505 42.3633 17.1779 43.0655 17.1779ZM51.3688 17.1779C53.0831 17.1567 54.4877 15.7782 54.5083 14.0816V13.4666C54.5083 11.6428 53.1038 10.2643 51.2862 10.2643H48.1879V14.1877C48.2086 15.9479 49.6544 17.1991 51.3688 17.1991V17.1779Z" fill="#636363"/>
<path d="M75.3285 18.4926C75.3285 19.2137 74.8121 19.7863 74.0685 19.7863H73.4695C71.9617 19.7863 70.5778 19.1925 69.5451 18.2169C68.7189 19.1925 67.5209 19.7863 66.2197 19.7863H59.6721V17.1566H66.2197C66.86 17.1566 67.3144 16.8597 67.5416 16.5204C67.8307 16.1811 68.0166 15.7145 67.9134 15.1419L65.9718 7.63456L68.4091 6.95593L70.4746 14.739C70.8257 16.1598 72.003 17.1566 73.4695 17.1566H74.0685C74.8121 17.1566 75.3285 17.7716 75.3285 18.4714V18.4926Z" fill="#636363"/>
<path d="M74.0065 19.7863C73.2836 19.7863 72.6846 19.1925 72.6846 18.4715C72.6846 17.7505 73.2836 17.1779 74.0065 17.1779H84.8297C84.3753 16.9022 84.0655 16.3932 84.0655 15.757V15.0147C84.0655 13.2545 83.5285 12.0033 82.5577 11.2611C80.6574 9.73415 77.6005 10.2431 75.9894 10.7945L75.1013 8.4193C77.5385 7.35894 81.4217 7.12566 84.0862 9.18276C85.3461 10.1583 86.5647 11.9397 86.5647 14.8451V15.7146C86.5647 16.5841 87.0605 17.1567 87.8247 17.1567H89.8076V19.7863H74.0065ZM80.1204 2.22681C80.9879 2.22681 81.7108 2.96906 81.7108 3.79614C81.7108 4.68684 80.9879 5.40788 80.1204 5.40788C79.2529 5.40788 78.5919 4.68684 78.5919 3.79614C78.5919 2.94785 79.2942 2.22681 80.1204 2.22681Z" fill="#636363"/>
<path d="M89.3738 19.7864C88.6509 19.7864 88.0519 19.1713 88.0519 18.4715C88.0519 17.7081 88.6509 17.1779 89.3738 17.1779H91.5839C92.3688 17.1779 92.9471 16.5417 92.9471 15.7782V7.63464H95.5083V15.7782C95.5083 17.9837 93.7527 19.8076 91.5632 19.8076H89.3945L89.3738 19.7864ZM92.3068 22.0979C93.1743 22.0979 93.8766 22.8402 93.8766 23.6673C93.8766 24.558 93.1743 25.279 92.3068 25.279C91.4393 25.279 90.737 24.558 90.737 23.6673C90.737 22.819 91.46 22.0979 92.3068 22.0979Z" fill="#636363"/>
</svg>
