<svg width="201" height="171" viewBox="0 0 201 171" fill="none" xmlns="http://www.w3.org/2000/svg">
<rect x="33.2301" y="51.147" width="136.979" height="85.0139" rx="11.9615" fill="#F4F4F7" stroke="#EDEDF1" stroke-width="1.59487"/>
<rect x="135.195" y="57.2783" width="29.0602" height="5.19653" rx="2.59826" fill="#EEEEEE"/>
<rect x="89.8721" y="57.2784" width="43.5903" height="5.19653" rx="2.59826" fill="#EEEEEE"/>
<rect x="135.195" y="65.9391" width="29.0602" height="5.19653" rx="2.59826" fill="#EEEEEE"/>
<rect x="75.3423" y="65.9391" width="58.1204" height="5.19653" rx="2.59826" fill="#EEEEEE"/>
<rect x="135.195" y="74.6001" width="29.0602" height="5.19653" rx="2.59826" fill="#EEEEEE"/>
<rect x="51.1255" y="74.6001" width="82.3372" height="5.19653" rx="2.59826" fill="#EEEEEE"/>
<rect x="135.194" y="83.2611" width="29.0602" height="5.19653" rx="2.59826" fill="#EEEEEE"/>
<rect x="58.3901" y="83.2611" width="75.0722" height="5.19653" rx="2.59826" fill="#EEEEEE"/>
<rect x="135.195" y="91.9222" width="29.0602" height="5.19653" rx="2.59826" fill="#EEEEEE"/>
<rect x="40.228" y="91.922" width="93.2348" height="5.19653" rx="2.59826" fill="#EEEEEE"/>
<rect x="39.3613" y="104.047" width="124.717" height="25.9826" rx="6.37948" fill="#EEEEEE"/>
<rect x="32.4326" y="50.3912" width="138.574" height="86.6088" rx="12.759" fill="black" fill-opacity="0.04"/>
<g filter="url(#filter0_d_6327_19456)">
<rect x="59.1627" y="2.79743" width="136.979" height="85.0139" rx="11.9615" fill="#F4F4F7" stroke="#EDEDF1" stroke-width="1.59487"/>
<rect x="65.2939" y="40.108" width="27.7148" height="31.1792" rx="6.37948" fill="#EEEEEE"/>
<rect x="169.224" y="40.1082" width="20.7861" height="5.19653" rx="2.59826" fill="#EEEEEE"/>
<rect x="136.312" y="40.1082" width="31.1792" height="5.19653" rx="2.59826" fill="#EEEEEE"/>
<rect x="169.224" y="48.7689" width="20.7861" height="5.19653" rx="2.59826" fill="#EEEEEE"/>
<rect x="125.92" y="48.7688" width="41.5722" height="5.19653" rx="2.59826" fill="#EEEEEE"/>
<rect x="169.224" y="57.4302" width="20.7861" height="5.19653" rx="2.59826" fill="#EEEEEE"/>
<rect x="108.598" y="57.4301" width="58.894" height="5.19653" rx="2.59826" fill="#EEEEEE"/>
<rect x="169.224" y="66.0909" width="20.7861" height="5.19653" rx="2.59826" fill="#EEEEEE"/>
<rect x="113.794" y="66.0907" width="53.6975" height="5.19653" rx="2.59826" fill="#EEEEEE"/>
<rect x="169.224" y="74.7517" width="20.7861" height="5.19653" rx="2.59826" fill="#EEEEEE"/>
<rect x="100.803" y="74.7516" width="66.6888" height="5.19653" rx="2.59826" fill="#EEEEEE"/>
<rect x="113.794" y="15.8573" width="27.7148" height="5.19653" rx="2.59826" fill="#EEEEEE"/>
<rect x="106.866" y="24.5183" width="41.5722" height="5.19653" rx="2.59826" fill="#EEEEEE"/>
<rect x="65.2939" y="74.7515" width="27.7148" height="5.19653" rx="2.59826" fill="#EEEEEE"/>
<path d="M181.318 8.97903C181.781 7.14792 184.382 7.14792 184.845 8.97903V8.97903C185.123 10.0781 186.327 10.6582 187.36 10.19V10.19C189.08 9.41011 190.702 11.4442 189.559 12.9476V12.9476C188.873 13.85 189.17 15.1534 190.18 15.6687V15.6687C191.862 16.5272 191.283 19.0637 189.395 19.1073V19.1073C188.262 19.1335 187.428 20.1787 187.655 21.2894V21.2894C188.032 23.14 185.688 24.2688 184.477 22.8198V22.8198C183.75 21.95 182.413 21.95 181.686 22.8198V22.8198C180.475 24.2688 178.131 23.14 178.508 21.2894V21.2894C178.735 20.1787 177.901 19.1335 176.768 19.1073V19.1073C174.88 19.0637 174.301 16.5272 175.983 15.6687V15.6687C176.993 15.1534 177.29 13.85 176.604 12.9476V12.9476C175.461 11.4442 177.083 9.41011 178.803 10.19V10.19C179.836 10.6582 181.04 10.0781 181.318 8.97903V8.97903Z" fill="#EEEEEE"/>
</g>
<path d="M39.4996 101.875C35.5496 101.875 31.5996 103.85 29.6246 107.471C27.6535 106.966 25.5858 106.978 23.6204 107.504C21.655 108.03 19.8583 109.054 18.4031 110.476C16.948 111.898 15.8836 113.67 15.3122 115.623C14.7409 117.576 14.6821 119.643 15.1412 121.625C11.8496 123.6 9.54541 127.55 9.54541 131.5C9.54541 135.45 11.8496 139.4 15.1412 141.375C14.1537 145.325 15.1412 149.604 18.4329 152.567C21.0662 155.2 25.3454 156.517 29.2954 155.858C31.2704 159.15 35.2204 161.125 39.1704 161.125C43.1204 161.125 47.0704 159.15 49.0454 155.529C52.9954 156.517 57.2746 155.529 60.2371 152.237C62.8704 149.604 64.1871 145.654 63.5287 141.375C66.8204 139.4 68.7954 135.45 68.7954 131.5C68.7954 127.55 66.8204 123.6 63.1996 121.625C64.1871 117.675 63.1996 113.396 59.9079 110.433C58.5006 109.044 56.7761 108.018 54.8836 107.445C52.991 106.871 50.9872 106.767 49.0454 107.142C47.0704 103.85 43.1204 101.875 39.1704 101.875H39.4996Z" fill="white" stroke="#1FA35E" stroke-width="6.58333" stroke-linecap="round" stroke-linejoin="round"/>
<path d="M29.625 131.5L36.2083 138.083L49.375 124.917" stroke="#1FA35E" stroke-width="6.58333" stroke-linecap="round" stroke-linejoin="round"/>
<defs>
<filter id="filter0_d_6327_19456" x="55.1755" y="0.405131" width="144.954" height="92.9882" filterUnits="userSpaceOnUse" color-interpolation-filters="sRGB">
<feFlood flood-opacity="0" result="BackgroundImageFix"/>
<feColorMatrix in="SourceAlpha" type="matrix" values="0 0 0 0 0 0 0 0 0 0 0 0 0 0 0 0 0 0 127 0" result="hardAlpha"/>
<feOffset dy="1.59487"/>
<feGaussianBlur stdDeviation="1.59487"/>
<feComposite in2="hardAlpha" operator="out"/>
<feColorMatrix type="matrix" values="0 0 0 0 0 0 0 0 0 0 0 0 0 0 0 0 0 0 0.08 0"/>
<feBlend mode="normal" in2="BackgroundImageFix" result="effect1_dropShadow_6327_19456"/>
<feBlend mode="normal" in="SourceGraphic" in2="effect1_dropShadow_6327_19456" result="shape"/>
</filter>
</defs>
</svg>
