<svg width="240" height="300" viewBox="0 0 240 300" fill="none" xmlns="http://www.w3.org/2000/svg">
<rect x="1" y="1" width="238" height="298" rx="11" fill="white" stroke="#EDEDF1" stroke-width="2"/>
<line x1="198.838" y1="33.5701" x2="170" y2="33.5701" stroke="#E1E1E1" stroke-dasharray="2 2"/>
<path d="M205.278 25.01C205.085 25.01 204.918 24.9433 204.778 24.81C204.645 24.67 204.578 24.5033 204.578 24.31C204.578 24.1233 204.648 23.9633 204.788 23.83C204.928 23.69 205.092 23.62 205.278 23.62C205.465 23.62 205.625 23.69 205.758 23.83C205.898 23.9633 205.968 24.1233 205.968 24.31C205.968 24.5033 205.898 24.67 205.758 24.81C205.625 24.9433 205.465 25.01 205.278 25.01ZM207.238 25.01C207.052 25.01 206.888 24.9433 206.748 24.81C206.615 24.67 206.548 24.5033 206.548 24.31C206.548 24.1233 206.615 23.9633 206.748 23.83C206.888 23.69 207.052 23.62 207.238 23.62C207.425 23.62 207.585 23.69 207.718 23.83C207.858 23.9633 207.928 24.1233 207.928 24.31C207.928 24.5033 207.862 24.67 207.728 24.81C207.595 24.9433 207.432 25.01 207.238 25.01ZM203.838 27.8C203.838 27.4133 203.935 27.0567 204.128 26.73C204.322 26.4033 204.582 26.1467 204.908 25.96C205.235 25.7667 205.592 25.67 205.978 25.67H206.138C206.525 25.67 206.882 25.7667 207.208 25.96C207.535 26.1467 207.792 26.4033 207.978 26.73C208.172 27.0567 208.268 27.4133 208.268 27.8V28.72C208.268 29.0933 208.175 29.44 207.988 29.76C207.808 30.0733 207.562 30.3233 207.248 30.51C206.942 30.69 206.602 30.78 206.228 30.78H205.978C205.585 30.78 205.225 30.6867 204.898 30.5C204.572 30.3067 204.312 30.05 204.118 29.73C203.932 29.4033 203.838 29.0433 203.838 28.65V27.8ZM204.998 28.64C204.998 28.9133 205.095 29.1467 205.288 29.34C205.482 29.5333 205.712 29.63 205.978 29.63H206.268C206.502 29.63 206.702 29.5467 206.868 29.38C207.035 29.2067 207.118 29.0033 207.118 28.77V27.8C207.118 27.5133 207.025 27.28 206.838 27.1C206.652 26.9133 206.418 26.82 206.138 26.82H205.978C205.698 26.82 205.465 26.9133 205.278 27.1C205.092 27.28 204.998 27.5133 204.998 27.8V28.64Z" fill="#646363"/>
<path d="M212.375 30.79H211.475V30.91C211.475 31.3167 211.379 31.6833 211.185 32.01C210.999 32.3367 210.742 32.5933 210.415 32.78C210.089 32.9733 209.722 33.07 209.315 33.07H208.815V31.92H209.315C209.609 31.92 209.849 31.8267 210.035 31.64C210.222 31.4533 210.315 31.21 210.315 30.91V25.97H211.475V29.64H212.375V30.79Z" fill="#646363"/>
<path d="M215.093 24.58V25.23H212.953V24.58H213.313C213.146 24.4 213.063 24.1867 213.063 23.94C213.063 23.6533 213.146 23.4267 213.313 23.26C213.486 23.0867 213.72 23 214.013 23C214.313 23 214.55 23.09 214.723 23.27C214.903 23.45 215.006 23.7133 215.033 24.06H214.453C214.433 23.9267 214.386 23.8233 214.313 23.75C214.24 23.6767 214.146 23.64 214.033 23.64C213.92 23.64 213.83 23.6733 213.763 23.74C213.703 23.8 213.673 23.89 213.673 24.01C213.673 24.11 213.7 24.2133 213.753 24.32C213.813 24.42 213.91 24.5067 214.043 24.58H215.093ZM213.503 26.05H214.643V29.3C214.643 29.58 214.576 29.8333 214.443 30.06C214.316 30.2867 214.14 30.4667 213.913 30.6C213.686 30.7267 213.436 30.79 213.163 30.79H212.263L211.763 30.61V29.82L212.263 29.64H212.733C213.006 29.64 213.203 29.5667 213.323 29.42C213.443 29.2667 213.503 29.0667 213.503 28.82V26.05Z" fill="#646363"/>
<path d="M215.932 30.79V23.83H217.082V30.79H215.932Z" fill="#646363"/>
<path d="M223.47 29.64V30.79H218.29V29.64H221.23V27.95C221.23 27.6233 221.127 27.36 220.92 27.16C220.72 26.9533 220.457 26.85 220.13 26.85H218.78V25.69H220.13C220.55 25.69 220.93 25.79 221.27 25.99C221.617 26.1833 221.887 26.4533 222.08 26.8C222.28 27.14 222.38 27.5233 222.38 27.95V29.64H223.47Z" fill="#646363"/>
<path d="M225.477 23.83V29.59C225.477 29.93 225.36 30.2167 225.127 30.45C224.9 30.6767 224.62 30.79 224.287 30.79H223.367L222.867 30.6V29.82L223.367 29.64H223.907C224.02 29.64 224.117 29.6033 224.197 29.53C224.283 29.45 224.327 29.3367 224.327 29.19V23.83H225.477Z" fill="#646363"/>
<path d="M226.85 30.79V23.83H228V30.79H226.85Z" fill="#646363"/>
<path d="M91.5148 35.08C91.3282 35.08 91.1648 35.0133 91.0248 34.88C90.8915 34.74 90.8248 34.5766 90.8248 34.39C90.8248 34.2033 90.8915 34.0433 91.0248 33.91C91.1648 33.77 91.3282 33.7 91.5148 33.7C91.7015 33.7 91.8648 33.77 92.0048 33.91C92.1448 34.0433 92.2148 34.2033 92.2148 34.39C92.2148 34.5766 92.1448 34.74 92.0048 34.88C91.8715 35.0133 91.7082 35.08 91.5148 35.08ZM93.4848 35.08C93.2982 35.08 93.1348 35.0133 92.9948 34.88C92.8615 34.74 92.7948 34.5766 92.7948 34.39C92.7948 34.2033 92.8615 34.0433 92.9948 33.91C93.1348 33.77 93.2982 33.7 93.4848 33.7C93.6715 33.7 93.8315 33.77 93.9648 33.91C94.1048 34.0433 94.1748 34.2033 94.1748 34.39C94.1748 34.5766 94.1082 34.74 93.9748 34.88C93.8415 35.0133 93.6782 35.08 93.4848 35.08ZM92.5248 35.64C92.9248 35.64 93.2848 35.7333 93.6048 35.92C93.9315 36.1066 94.1882 36.3633 94.3748 36.69C94.5615 37.01 94.6548 37.37 94.6548 37.77V40.1C94.6548 40.78 94.4982 41.3933 94.1848 41.94C93.8782 42.4866 93.4515 42.9133 92.9048 43.22C92.3648 43.5333 91.7548 43.69 91.0748 43.69H91.0448C90.3715 43.69 89.7615 43.5333 89.2148 43.22C88.6682 42.9133 88.2382 42.4866 87.9248 41.94C87.6182 41.3933 87.4648 40.78 87.4648 40.1V38.99H88.6248V40.1C88.6248 40.5666 88.7282 40.9833 88.9348 41.35C89.1415 41.7233 89.4282 42.0133 89.7948 42.22C90.1615 42.4266 90.5782 42.53 91.0448 42.53H91.0748C91.6682 42.53 92.1748 42.3666 92.5948 42.04C93.0215 41.7133 93.2982 41.2766 93.4248 40.73H92.3748C91.9748 40.73 91.6115 40.6366 91.2848 40.45C90.9582 40.2633 90.7015 40.01 90.5148 39.69C90.3282 39.3633 90.2348 39 90.2348 38.6V37.77C90.2348 37.37 90.3282 37.01 90.5148 36.69C90.7015 36.3633 90.9582 36.1066 91.2848 35.92C91.6115 35.7333 91.9748 35.64 92.3748 35.64H92.5248ZM93.5048 39.19V37.77C93.5048 37.4766 93.4148 37.24 93.2348 37.06C93.0548 36.88 92.8182 36.79 92.5248 36.79H92.3748C92.0815 36.79 91.8415 36.8833 91.6548 37.07C91.4748 37.25 91.3848 37.4833 91.3848 37.77V38.6C91.3848 38.8866 91.4748 39.1233 91.6548 39.31C91.8415 39.49 92.0815 39.58 92.3748 39.58H93.4948V39.19H93.5048Z" fill="#E1E1E1"/>
<path d="M95.9754 41V34.04H97.1254V41H95.9754Z" fill="#E1E1E1"/>
<path d="M101.051 41H100.151V41.12C100.151 41.5266 100.055 41.8933 99.8615 42.22C99.6748 42.5466 99.4182 42.8033 99.0915 42.99C98.7648 43.1833 98.3982 43.28 97.9915 43.28H97.4915V42.13H97.9915C98.2848 42.13 98.5248 42.0366 98.7115 41.85C98.8982 41.6633 98.9915 41.42 98.9915 41.12V36.18H100.151V39.85H101.051V41Z" fill="#E1E1E1"/>
<path d="M107.379 39.85V41H105.399C104.859 41 104.436 40.8066 104.129 40.42C103.923 40.62 103.699 40.7666 103.459 40.86C103.226 40.9533 102.996 41 102.769 41H100.939L100.449 40.81V40.03L100.939 39.85H102.479C102.586 39.85 102.743 39.83 102.949 39.79C103.163 39.75 103.306 39.7033 103.379 39.65L101.649 37.29V36.44C102.536 36.0933 103.386 35.92 104.199 35.92C104.913 35.92 105.483 36.0533 105.909 36.32C106.336 36.58 106.549 36.9433 106.549 37.41C106.549 37.6033 106.509 37.8066 106.429 38.02C106.316 38.3466 106.173 38.6166 105.999 38.83C105.833 39.0366 105.573 39.3133 105.219 39.66C105.506 39.7866 105.813 39.85 106.139 39.85H107.379ZM105.129 37.85C105.183 37.7166 105.209 37.6033 105.209 37.51C105.209 37.1633 104.863 36.99 104.169 36.99C103.716 36.99 103.283 37.07 102.869 37.23V37.28L104.239 39.14C104.486 38.88 104.673 38.6633 104.799 38.49C104.933 38.31 105.043 38.0966 105.129 37.85Z" fill="#E1E1E1"/>
<path d="M109.436 34.04V39.8C109.436 40.14 109.319 40.4266 109.086 40.66C108.859 40.8866 108.579 41 108.246 41H107.326L106.826 40.81V40.03L107.326 39.85H107.866C107.979 39.85 108.076 39.8133 108.156 39.74C108.243 39.66 108.286 39.5466 108.286 39.4V34.04H109.436Z" fill="#E1E1E1"/>
<path d="M110.809 41V34.04H111.959V41H110.809Z" fill="#E1E1E1"/>
<path d="M116.709 35.08C116.516 35.08 116.349 35.0133 116.209 34.88C116.076 34.74 116.009 34.5766 116.009 34.39C116.009 34.2033 116.079 34.0433 116.219 33.91C116.359 33.77 116.522 33.7 116.709 33.7C116.896 33.7 117.056 33.77 117.189 33.91C117.329 34.0433 117.399 34.2033 117.399 34.39C117.399 34.5766 117.329 34.74 117.189 34.88C117.056 35.0133 116.896 35.08 116.709 35.08ZM118.669 35.08C118.482 35.08 118.319 35.0133 118.179 34.88C118.046 34.74 117.979 34.5766 117.979 34.39C117.979 34.2033 118.046 34.0433 118.179 33.91C118.319 33.77 118.482 33.7 118.669 33.7C118.856 33.7 119.016 33.77 119.149 33.91C119.289 34.0433 119.359 34.2033 119.359 34.39C119.359 34.5766 119.292 34.74 119.159 34.88C119.026 35.0133 118.862 35.08 118.669 35.08ZM120.739 39.85V41H120.419C120.126 41 119.856 40.9433 119.609 40.83C119.362 40.71 119.156 40.5433 118.989 40.33C118.602 40.7566 118.082 40.97 117.429 40.97C117.042 40.97 116.686 40.87 116.359 40.67C116.032 40.47 115.772 40.2033 115.579 39.87C115.392 39.53 115.299 39.1633 115.299 38.77V38.08C115.299 37.6666 115.392 37.2933 115.579 36.96C115.772 36.6266 116.032 36.3633 116.359 36.17C116.692 35.9766 117.066 35.88 117.479 35.88H119.769V39.2C119.769 39.3933 119.829 39.55 119.949 39.67C120.069 39.79 120.226 39.85 120.419 39.85H120.739ZM118.619 37.03H117.479C117.172 37.03 116.922 37.1266 116.729 37.32C116.542 37.5133 116.449 37.7666 116.449 38.08V38.77C116.449 39.0566 116.542 39.3033 116.729 39.51C116.922 39.71 117.156 39.81 117.429 39.81C117.676 39.81 117.902 39.7633 118.109 39.67C118.316 39.5766 118.486 39.44 118.619 39.26V37.03Z" fill="#E1E1E1"/>
<path d="M122.416 39.85C122.522 39.85 122.619 39.8133 122.706 39.74C122.792 39.66 122.836 39.5466 122.836 39.4V36.26H123.986V39.8C123.986 40.14 123.869 40.4266 123.636 40.66C123.402 40.8866 123.119 41 122.786 41H120.576V39.85H122.416ZM121.576 43.34C121.382 43.34 121.216 43.27 121.076 43.13C120.942 42.9966 120.876 42.8333 120.876 42.64C120.876 42.4533 120.946 42.29 121.086 42.15C121.226 42.0166 121.389 41.95 121.576 41.95C121.762 41.95 121.922 42.0166 122.056 42.15C122.196 42.29 122.266 42.4533 122.266 42.64C122.266 42.8333 122.199 42.9966 122.066 43.13C121.932 43.27 121.769 43.34 121.576 43.34ZM123.536 43.34C123.349 43.34 123.186 43.27 123.046 43.13C122.912 42.9966 122.846 42.8333 122.846 42.64C122.846 42.4533 122.912 42.29 123.046 42.15C123.186 42.0166 123.349 41.95 123.536 41.95C123.722 41.95 123.882 42.0166 124.016 42.15C124.156 42.29 124.226 42.4533 124.226 42.64C124.226 42.8333 124.159 42.9966 124.026 43.13C123.892 43.27 123.729 43.34 123.536 43.34Z" fill="#E1E1E1"/>
<path d="M125.614 42.13C125.907 42.13 126.147 42.0366 126.334 41.85C126.527 41.6633 126.624 41.42 126.624 41.12V36.18H127.774V41.12C127.774 41.5266 127.677 41.8933 127.484 42.22C127.297 42.5466 127.04 42.8033 126.714 42.99C126.387 43.1833 126.02 43.28 125.614 43.28H125.124V42.13H125.614Z" fill="#E1E1E1"/>
<path d="M133.92 41H133.39V41.45C133.39 42.0166 133.186 42.47 132.78 42.81C132.373 43.15 131.796 43.32 131.05 43.32C130.636 43.32 130.17 43.26 129.65 43.14V42.07C130.123 42.15 130.516 42.19 130.83 42.19C131.33 42.19 131.69 42.1 131.91 41.92C132.13 41.7466 132.24 41.4966 132.24 41.17V40.99H131.03C130.643 40.99 130.286 40.89 129.96 40.69C129.64 40.49 129.383 40.2233 129.19 39.89C129.003 39.55 128.91 39.1833 128.91 38.79V38.08C128.91 37.6666 129.003 37.2933 129.19 36.96C129.383 36.6266 129.646 36.3666 129.98 36.18C130.313 35.9866 130.686 35.89 131.1 35.89H131.21C131.623 35.89 131.993 35.9866 132.32 36.18C132.653 36.3666 132.913 36.6266 133.1 36.96C133.293 37.2933 133.39 37.6666 133.39 38.08V39.85H133.92V41ZM132.24 39.84V38.08C132.24 37.7733 132.143 37.5233 131.95 37.33C131.763 37.1366 131.516 37.04 131.21 37.04H131.1C130.793 37.04 130.543 37.1366 130.35 37.33C130.156 37.5233 130.06 37.7733 130.06 38.08V38.79C130.06 39.0766 130.156 39.3233 130.35 39.53C130.55 39.7366 130.78 39.84 131.04 39.84H132.24Z" fill="#E1E1E1"/>
<path d="M140.719 39.85V41H139.469V41.29C139.469 41.99 139.286 42.5466 138.919 42.96C138.559 43.3733 138.012 43.58 137.279 43.58C136.812 43.58 136.412 43.4733 136.079 43.26C135.752 43.0466 135.502 42.7533 135.329 42.38C135.162 42.0066 135.079 41.5833 135.079 41.11V41H133.639V39.85H135.079V38.32C135.079 37.86 135.176 37.4466 135.369 37.08C135.569 36.7066 135.842 36.4166 136.189 36.21C136.536 35.9966 136.926 35.89 137.359 35.89C137.812 35.89 138.212 36 138.559 36.22C138.906 36.44 139.172 36.75 139.359 37.15C139.552 37.5433 139.649 38.0033 139.649 38.53C139.649 39.0166 139.529 39.4566 139.289 39.85H140.719ZM136.139 39.85H137.179C137.599 39.85 137.939 39.7333 138.199 39.5C138.466 39.26 138.599 38.9366 138.599 38.53C138.599 38.03 138.489 37.6433 138.269 37.37C138.049 37.0966 137.749 36.96 137.369 36.96C137.016 36.96 136.722 37.1 136.489 37.38C136.256 37.6533 136.139 38.0033 136.139 38.43V39.85ZM133.129 40.82V40.03L133.629 39.85V41L133.129 40.82ZM137.279 42.52C137.639 42.52 137.916 42.39 138.109 42.13C138.309 41.8766 138.409 41.5366 138.409 41.11V40.7C138.029 40.9 137.619 41 137.179 41H136.139V41.11C136.139 41.5433 136.232 41.8866 136.419 42.14C136.612 42.3933 136.899 42.52 137.279 42.52Z" fill="#E1E1E1"/>
<path d="M146.824 41H146.484C146.197 41 145.937 40.94 145.704 40.82C145.47 40.6933 145.284 40.5233 145.144 40.31C144.964 40.5166 144.747 40.68 144.494 40.8C144.247 40.9133 143.984 40.97 143.704 40.97C143.39 40.97 143.09 40.92 142.804 40.82C142.517 40.7133 142.26 40.5633 142.034 40.37C141.887 40.57 141.697 40.7266 141.464 40.84C141.237 40.9466 140.987 41 140.714 41H140.334L139.844 40.82V40.03L140.334 39.85H140.714C140.9 39.85 141.054 39.79 141.174 39.67C141.294 39.55 141.354 39.3933 141.354 39.2V38.08C141.354 37.6666 141.447 37.2933 141.634 36.96C141.827 36.6266 142.09 36.3633 142.424 36.17C142.757 35.9766 143.13 35.88 143.544 35.88H143.654C144.067 35.88 144.44 35.9766 144.774 36.17C145.107 36.3633 145.367 36.6266 145.554 36.96C145.747 37.2933 145.844 37.6666 145.844 38.08V39.2C145.844 39.3933 145.904 39.55 146.024 39.67C146.144 39.79 146.297 39.85 146.484 39.85H146.824V41ZM143.704 39.81C143.97 39.81 144.2 39.71 144.394 39.51C144.594 39.3033 144.694 39.0566 144.694 38.77V38.08C144.694 37.7666 144.597 37.5133 144.404 37.32C144.21 37.1266 143.96 37.03 143.654 37.03H143.544C143.237 37.03 142.987 37.1266 142.794 37.32C142.6 37.5133 142.504 37.7666 142.504 38.08V39.26C142.637 39.44 142.807 39.5766 143.014 39.67C143.227 39.7633 143.457 39.81 143.704 39.81Z" fill="#E1E1E1"/>
<path d="M151.561 38.49C151.734 38.89 151.884 39.1866 152.011 39.38C152.137 39.5733 152.241 39.6966 152.321 39.75C152.401 39.7966 152.487 39.8266 152.581 39.84V41H146.711L146.211 40.82V40.04L146.711 39.85H150.931C150.877 39.79 150.811 39.6866 150.731 39.54C150.651 39.3866 150.567 39.22 150.481 39.04C150.401 38.8666 150.337 38.7366 150.291 38.65C150.011 38.1033 149.704 37.6933 149.371 37.42C149.037 37.1466 148.654 37.01 148.221 37.01C147.901 37.01 147.551 37.0833 147.171 37.23V36.17C147.564 36.0233 147.954 35.95 148.341 35.95C149.001 35.95 149.604 36.1666 150.151 36.6C150.704 37.0333 151.174 37.6633 151.561 38.49ZM149.491 41.8C149.677 41.8 149.837 41.8666 149.971 42C150.111 42.1333 150.181 42.2933 150.181 42.48C150.181 42.6733 150.114 42.8366 149.981 42.97C149.847 43.11 149.684 43.18 149.491 43.18C149.297 43.18 149.134 43.11 149.001 42.97C148.867 42.8366 148.801 42.6733 148.801 42.48C148.801 42.2933 148.867 42.1333 149.001 42C149.141 41.8666 149.304 41.8 149.491 41.8Z" fill="#E1E1E1"/>
<path d="M94.7851 47.08C94.5918 47.08 94.4251 47.0133 94.2851 46.88C94.1518 46.74 94.0851 46.5766 94.0851 46.39C94.0851 46.2033 94.1551 46.0433 94.2951 45.91C94.4351 45.77 94.5985 45.7 94.7851 45.7C94.9718 45.7 95.1318 45.77 95.2651 45.91C95.4051 46.0433 95.4751 46.2033 95.4751 46.39C95.4751 46.5766 95.4051 46.74 95.2651 46.88C95.1318 47.0133 94.9718 47.08 94.7851 47.08ZM96.7451 47.08C96.5585 47.08 96.3951 47.0133 96.2551 46.88C96.1218 46.74 96.0551 46.5766 96.0551 46.39C96.0551 46.2033 96.1218 46.0433 96.2551 45.91C96.3951 45.77 96.5585 45.7 96.7451 45.7C96.9318 45.7 97.0918 45.77 97.2251 45.91C97.3651 46.0433 97.4351 46.2033 97.4351 46.39C97.4351 46.5766 97.3685 46.74 97.2351 46.88C97.1018 47.0133 96.9385 47.08 96.7451 47.08ZM98.8151 51.85V53H98.4951C98.2018 53 97.9318 52.9433 97.6851 52.83C97.4385 52.71 97.2318 52.5433 97.0651 52.33C96.6785 52.7566 96.1585 52.97 95.5051 52.97C95.1185 52.97 94.7618 52.87 94.4351 52.67C94.1085 52.47 93.8485 52.2033 93.6551 51.87C93.4685 51.53 93.3751 51.1633 93.3751 50.77V50.08C93.3751 49.6666 93.4685 49.2933 93.6551 48.96C93.8485 48.6266 94.1085 48.3633 94.4351 48.17C94.7685 47.9766 95.1418 47.88 95.5551 47.88H97.8451V51.2C97.8451 51.3933 97.9051 51.55 98.0251 51.67C98.1451 51.79 98.3018 51.85 98.4951 51.85H98.8151ZM96.6951 49.03H95.5551C95.2485 49.03 94.9985 49.1266 94.8051 49.32C94.6185 49.5133 94.5251 49.7666 94.5251 50.08V50.77C94.5251 51.0566 94.6185 51.3033 94.8051 51.51C94.9985 51.71 95.2318 51.81 95.5051 51.81C95.7518 51.81 95.9785 51.7633 96.1851 51.67C96.3918 51.5766 96.5618 51.44 96.6951 51.26V49.03Z" fill="#E1E1E1"/>
<path d="M103.262 51.85V53H102.232C102.012 53 101.798 52.95 101.592 52.85C101.385 52.75 101.202 52.6133 101.042 52.44C100.715 52.8133 100.265 53 99.6917 53H98.7217L98.2217 52.82V52.04L98.7217 51.85H99.7117C100.205 51.85 100.458 51.5866 100.472 51.06L100.462 48.27H101.622V50.58C101.622 50.7 101.618 50.7933 101.612 50.86V51.03C101.612 51.2766 101.672 51.4766 101.792 51.63C101.912 51.7766 102.108 51.85 102.382 51.85H103.262ZM99.8717 53.93C100.058 53.93 100.218 53.9966 100.352 54.13C100.492 54.27 100.562 54.4333 100.562 54.62C100.562 54.8066 100.492 54.97 100.352 55.11C100.218 55.25 100.058 55.32 99.8717 55.32C99.685 55.32 99.5217 55.25 99.3817 55.11C99.2417 54.9766 99.1717 54.8133 99.1717 54.62C99.1717 54.4333 99.2417 54.27 99.3817 54.13C99.5217 53.9966 99.685 53.93 99.8717 53.93ZM101.832 53.93C102.018 53.93 102.178 53.9966 102.312 54.13C102.452 54.27 102.522 54.4333 102.522 54.62C102.522 54.8133 102.452 54.9766 102.312 55.11C102.178 55.25 102.018 55.32 101.832 55.32C101.645 55.32 101.482 55.25 101.342 55.11C101.208 54.9766 101.142 54.8133 101.142 54.62C101.142 54.4333 101.208 54.27 101.342 54.13C101.482 53.9966 101.645 53.93 101.832 53.93Z" fill="#E1E1E1"/>
<path d="M106.426 51.85V53H105.946C105.726 53 105.513 52.95 105.306 52.85C105.099 52.75 104.919 52.6133 104.766 52.44C104.439 52.8133 103.989 53 103.416 53H103.146L102.656 52.81V52.03L103.146 51.85H103.426C103.933 51.85 104.186 51.5766 104.186 51.03V46.04H105.336V51.03C105.336 51.5766 105.593 51.85 106.106 51.85H106.426Z" fill="#E1E1E1"/>
<path d="M108.209 47.2C108.022 47.2 107.859 47.1333 107.719 47C107.585 46.86 107.519 46.6966 107.519 46.51C107.519 46.3233 107.585 46.1633 107.719 46.03C107.859 45.89 108.022 45.82 108.209 45.82C108.395 45.82 108.555 45.89 108.689 46.03C108.829 46.1633 108.899 46.3233 108.899 46.51C108.899 46.6966 108.832 46.86 108.699 47C108.565 47.1333 108.402 47.2 108.209 47.2ZM111.229 50.49C111.402 50.89 111.552 51.1866 111.679 51.38C111.805 51.5733 111.909 51.6966 111.989 51.75C112.069 51.7966 112.155 51.8266 112.249 51.84V53H106.379L105.879 52.82V52.04L106.379 51.85H110.599C110.545 51.79 110.479 51.6866 110.399 51.54C110.319 51.3866 110.235 51.22 110.149 51.04C110.069 50.8666 110.005 50.7366 109.959 50.65C109.679 50.1033 109.372 49.6933 109.039 49.42C108.705 49.1466 108.322 49.01 107.889 49.01C107.569 49.01 107.219 49.0833 106.839 49.23V48.17C107.232 48.0233 107.622 47.95 108.009 47.95C108.669 47.95 109.272 48.1666 109.819 48.6C110.372 49.0333 110.842 49.6633 111.229 50.49Z" fill="#E1E1E1"/>
<path d="M113.368 53V46.04H114.518V53H113.368Z" fill="#E1E1E1"/>
<path d="M120.906 51.85V53H115.726V51.85H118.666V50.16C118.666 49.8333 118.562 49.57 118.356 49.37C118.156 49.1633 117.892 49.06 117.566 49.06H116.216V47.9H117.566C117.986 47.9 118.366 48 118.706 48.2C119.052 48.3933 119.322 48.6633 119.516 49.01C119.716 49.35 119.816 49.7333 119.816 50.16V51.85H120.906Z" fill="#E1E1E1"/>
<path d="M122.912 46.04V51.8C122.912 52.14 122.796 52.4266 122.562 52.66C122.336 52.8866 122.056 53 121.722 53H120.802L120.302 52.81V52.03L120.802 51.85H121.342C121.456 51.85 121.552 51.8133 121.632 51.74C121.719 51.66 121.762 51.5466 121.762 51.4V46.04H122.912Z" fill="#E1E1E1"/>
<path d="M124.286 53V46.04H125.436V53H124.286Z" fill="#E1E1E1"/>
<path d="M130.166 47.22C129.972 47.22 129.806 47.1533 129.666 47.02C129.532 46.88 129.466 46.7133 129.466 46.52C129.466 46.3333 129.536 46.1733 129.676 46.04C129.816 45.9 129.979 45.83 130.166 45.83C130.352 45.83 130.512 45.9 130.646 46.04C130.786 46.1733 130.856 46.3333 130.856 46.52C130.856 46.7133 130.786 46.88 130.646 47.02C130.512 47.1533 130.352 47.22 130.166 47.22ZM132.126 47.22C131.939 47.22 131.776 47.1533 131.636 47.02C131.502 46.88 131.436 46.7133 131.436 46.52C131.436 46.3333 131.502 46.1733 131.636 46.04C131.776 45.9 131.939 45.83 132.126 45.83C132.312 45.83 132.472 45.9 132.606 46.04C132.746 46.1733 132.816 46.3333 132.816 46.52C132.816 46.7133 132.749 46.88 132.616 47.02C132.482 47.1533 132.319 47.22 132.126 47.22ZM128.726 50.01C128.726 49.6233 128.822 49.2666 129.016 48.94C129.209 48.6133 129.469 48.3566 129.796 48.17C130.122 47.9766 130.479 47.88 130.866 47.88H131.026C131.412 47.88 131.769 47.9766 132.096 48.17C132.422 48.3566 132.679 48.6133 132.866 48.94C133.059 49.2666 133.156 49.6233 133.156 50.01V50.93C133.156 51.3033 133.062 51.65 132.876 51.97C132.696 52.2833 132.449 52.5333 132.136 52.72C131.829 52.9 131.489 52.99 131.116 52.99H130.866C130.472 52.99 130.112 52.8966 129.786 52.71C129.459 52.5166 129.199 52.26 129.006 51.94C128.819 51.6133 128.726 51.2533 128.726 50.86V50.01ZM129.886 50.85C129.886 51.1233 129.982 51.3566 130.176 51.55C130.369 51.7433 130.599 51.84 130.866 51.84H131.156C131.389 51.84 131.589 51.7566 131.756 51.59C131.922 51.4166 132.006 51.2133 132.006 50.98V50.01C132.006 49.7233 131.912 49.49 131.726 49.31C131.539 49.1233 131.306 49.03 131.026 49.03H130.866C130.586 49.03 130.352 49.1233 130.166 49.31C129.979 49.49 129.886 49.7233 129.886 50.01V50.85Z" fill="#E1E1E1"/>
<path d="M134.002 54.13C134.296 54.13 134.536 54.0366 134.722 53.85C134.916 53.6633 135.012 53.42 135.012 53.12V48.18H136.162V53.12C136.162 53.5266 136.066 53.8933 135.872 54.22C135.686 54.5466 135.429 54.8033 135.102 54.99C134.776 55.1833 134.409 55.28 134.002 55.28H133.512V54.13H134.002Z" fill="#E1E1E1"/>
<path d="M137.518 53V46.04H138.668V53H137.518Z" fill="#E1E1E1"/>
<path d="M141.226 47.27C141.04 47.27 140.876 47.2 140.736 47.06C140.603 46.92 140.536 46.7566 140.536 46.57C140.536 46.3833 140.603 46.2233 140.736 46.09C140.876 45.95 141.04 45.88 141.226 45.88C141.413 45.88 141.576 45.95 141.716 46.09C141.856 46.2233 141.926 46.3833 141.926 46.57C141.926 46.7566 141.856 46.92 141.716 47.06C141.583 47.2 141.42 47.27 141.226 47.27ZM139.676 54.13C139.97 54.13 140.21 54.0366 140.396 53.85C140.59 53.6633 140.686 53.42 140.686 53.12V48.18H141.836V53.12C141.836 53.5266 141.74 53.8933 141.546 54.22C141.36 54.5466 141.103 54.8033 140.776 54.99C140.45 55.1833 140.083 55.28 139.676 55.28H139.186V54.13H139.676Z" fill="#E1E1E1"/>
<path d="M145.272 47.89C145.685 47.89 146.055 47.9866 146.382 48.18C146.715 48.3666 146.975 48.6266 147.162 48.96C147.355 49.2933 147.452 49.6666 147.452 50.08V53.45C147.452 54.0166 147.249 54.47 146.842 54.81C146.435 55.15 145.859 55.32 145.112 55.32C144.699 55.32 144.232 55.26 143.712 55.14V54.07C144.185 54.15 144.579 54.19 144.892 54.19C145.392 54.19 145.752 54.1 145.972 53.92C146.192 53.7466 146.302 53.4966 146.302 53.17V52.99H145.092C144.705 52.99 144.349 52.89 144.022 52.69C143.702 52.49 143.445 52.2233 143.252 51.89C143.065 51.55 142.972 51.1833 142.972 50.79V50.08C142.972 49.6666 143.065 49.2933 143.252 48.96C143.445 48.6266 143.709 48.3666 144.042 48.18C144.375 47.9866 144.749 47.89 145.162 47.89H145.272ZM146.302 50.08C146.302 49.7733 146.205 49.5233 146.012 49.33C145.825 49.1366 145.579 49.04 145.272 49.04H145.162C144.855 49.04 144.605 49.1366 144.412 49.33C144.219 49.5233 144.122 49.7733 144.122 50.08V50.79C144.122 51.0766 144.219 51.3233 144.412 51.53C144.612 51.7366 144.842 51.84 145.102 51.84H146.302V50.08Z" fill="#E1E1E1"/>
<path d="M70.7 70.488C70.4874 70.488 70.304 70.4146 70.15 70.268C70.0034 70.114 69.93 69.9343 69.93 69.729C69.93 69.5236 70.007 69.3476 70.161 69.201C70.315 69.047 70.4947 68.97 70.7 68.97C70.9054 68.97 71.0814 69.047 71.228 69.201C71.382 69.3476 71.459 69.5236 71.459 69.729C71.459 69.9343 71.382 70.114 71.228 70.268C71.0814 70.4146 70.9054 70.488 70.7 70.488ZM72.856 70.488C72.6507 70.488 72.471 70.4146 72.317 70.268C72.1704 70.114 72.097 69.9343 72.097 69.729C72.097 69.5236 72.1704 69.3476 72.317 69.201C72.471 69.047 72.6507 68.97 72.856 68.97C73.0614 68.97 73.2374 69.047 73.384 69.201C73.538 69.3476 73.615 69.5236 73.615 69.729C73.615 69.9343 73.5417 70.114 73.395 70.268C73.2484 70.4146 73.0687 70.488 72.856 70.488ZM75.133 75.735V77H74.781C74.4584 77 74.1614 76.9376 73.89 76.813C73.6187 76.681 73.3914 76.4976 73.208 76.263C72.7827 76.7323 72.2107 76.967 71.492 76.967C71.0667 76.967 70.6744 76.857 70.315 76.637C69.9557 76.417 69.6697 76.1236 69.457 75.757C69.2517 75.383 69.149 74.9796 69.149 74.547V73.788C69.149 73.3333 69.2517 72.9226 69.457 72.556C69.6697 72.1893 69.9557 71.8996 70.315 71.687C70.6817 71.4743 71.0924 71.368 71.547 71.368H74.066V75.02C74.066 75.2326 74.132 75.405 74.264 75.537C74.396 75.669 74.5684 75.735 74.781 75.735H75.133ZM72.801 72.633H71.547C71.2097 72.633 70.9347 72.7393 70.722 72.952C70.5167 73.1646 70.414 73.4433 70.414 73.788V74.547C70.414 74.8623 70.5167 75.1336 70.722 75.361C70.9347 75.581 71.1914 75.691 71.492 75.691C71.7634 75.691 72.0127 75.6396 72.24 75.537C72.4674 75.4343 72.6544 75.284 72.801 75.086V72.633Z" fill="#E1E1E1"/>
<path d="M78.7703 71.368C79.2249 71.368 79.6356 71.4743 80.0023 71.687C80.3689 71.8996 80.6549 72.1893 80.8603 72.556C81.0729 72.9226 81.1793 73.3333 81.1793 73.788V74.547C81.1793 74.9796 81.0729 75.383 80.8603 75.757C80.6476 76.1236 80.3616 76.417 80.0023 76.637C79.6429 76.857 79.2506 76.967 78.8253 76.967C78.4806 76.967 78.1506 76.912 77.8353 76.802C77.5199 76.6846 77.2376 76.5196 76.9883 76.307C76.8269 76.527 76.6179 76.6993 76.3613 76.824C76.1119 76.9413 75.8369 77 75.5363 77H75.0633L74.5133 76.802V75.933L75.0633 75.735H75.5363C75.7416 75.735 75.9103 75.669 76.0423 75.537C76.1743 75.405 76.2403 75.2326 76.2403 75.02V73.788C76.2403 73.3333 76.3429 72.9226 76.5483 72.556C76.7609 72.1893 77.0506 71.8996 77.4173 71.687C77.7839 71.4743 78.1946 71.368 78.6493 71.368H78.7703ZM79.9143 73.788C79.9143 73.4433 79.8079 73.1646 79.5953 72.952C79.3826 72.7393 79.1076 72.633 78.7703 72.633H78.6493C78.3119 72.633 78.0369 72.7393 77.8243 72.952C77.6116 73.1646 77.5053 73.4433 77.5053 73.788V75.086C77.6519 75.284 77.8389 75.4343 78.0663 75.537C78.3009 75.6396 78.5539 75.691 78.8253 75.691C79.1186 75.691 79.3716 75.581 79.5843 75.361C79.8043 75.1336 79.9143 74.8623 79.9143 74.547V73.788Z" fill="#E1E1E1"/>
<path d="M83.8224 75.24C83.8224 75.4013 83.8664 75.526 83.9544 75.614C84.0497 75.6946 84.1597 75.735 84.2844 75.735H84.8784V77H83.8774C83.5107 77 83.199 76.8753 82.9424 76.626C82.6857 76.3693 82.5574 76.054 82.5574 75.68V69.344H83.8224V75.24Z" fill="#E1E1E1"/>
<path d="M91.8582 75.735V77H89.6802C89.0862 77 88.6205 76.7873 88.2832 76.362C88.0559 76.582 87.8102 76.7433 87.5462 76.846C87.2895 76.9486 87.0365 77 86.7872 77H84.7742L84.2352 76.791V75.933L84.7742 75.735H86.4682C86.5855 75.735 86.7579 75.713 86.9852 75.669C87.2199 75.625 87.3775 75.5736 87.4582 75.515L85.5552 72.919V71.984C86.5305 71.6026 87.4655 71.412 88.3602 71.412C89.1449 71.412 89.7719 71.5586 90.2412 71.852C90.7105 72.138 90.9452 72.5376 90.9452 73.051C90.9452 73.2636 90.9012 73.4873 90.8132 73.722C90.6885 74.0813 90.5309 74.3783 90.3402 74.613C90.1569 74.8403 89.8709 75.1446 89.4822 75.526C89.7975 75.6653 90.1349 75.735 90.4942 75.735H91.8582ZM89.3832 73.535C89.4419 73.3883 89.4712 73.2636 89.4712 73.161C89.4712 72.7796 89.0899 72.589 88.3272 72.589C87.8285 72.589 87.3519 72.677 86.8972 72.853V72.908L88.4042 74.954C88.6755 74.668 88.8809 74.4296 89.0202 74.239C89.1669 74.041 89.2879 73.8063 89.3832 73.535Z" fill="#E1E1E1"/>
<path d="M94.1206 69.344V75.68C94.1206 76.054 93.9923 76.3693 93.7356 76.626C93.4863 76.8753 93.1783 77 92.8116 77H91.7996L91.2496 76.791V75.933L91.7996 75.735H92.3936C92.5183 75.735 92.6246 75.6946 92.7126 75.614C92.8079 75.526 92.8556 75.4013 92.8556 75.24V69.344H94.1206Z" fill="#E1E1E1"/>
<path d="M95.6314 77V69.344H96.8964V77H95.6314Z" fill="#E1E1E1"/>
<path d="M102.121 70.488C101.908 70.488 101.725 70.4146 101.571 70.268C101.424 70.114 101.351 69.9343 101.351 69.729C101.351 69.5236 101.428 69.3476 101.582 69.201C101.736 69.047 101.916 68.97 102.121 68.97C102.326 68.97 102.502 69.047 102.649 69.201C102.803 69.3476 102.88 69.5236 102.88 69.729C102.88 69.9343 102.803 70.114 102.649 70.268C102.502 70.4146 102.326 70.488 102.121 70.488ZM104.277 70.488C104.072 70.488 103.892 70.4146 103.738 70.268C103.591 70.114 103.518 69.9343 103.518 69.729C103.518 69.5236 103.591 69.3476 103.738 69.201C103.892 69.047 104.072 68.97 104.277 68.97C104.482 68.97 104.658 69.047 104.805 69.201C104.959 69.3476 105.036 69.5236 105.036 69.729C105.036 69.9343 104.963 70.114 104.816 70.268C104.669 70.4146 104.49 70.488 104.277 70.488ZM106.554 75.735V77H106.202C105.879 77 105.582 76.9376 105.311 76.813C105.04 76.681 104.812 76.4976 104.629 76.263C104.204 76.7323 103.632 76.967 102.913 76.967C102.488 76.967 102.095 76.857 101.736 76.637C101.377 76.417 101.091 76.1236 100.878 75.757C100.673 75.383 100.57 74.9796 100.57 74.547V73.788C100.57 73.3333 100.673 72.9226 100.878 72.556C101.091 72.1893 101.377 71.8996 101.736 71.687C102.103 71.4743 102.513 71.368 102.968 71.368H105.487V75.02C105.487 75.2326 105.553 75.405 105.685 75.537C105.817 75.669 105.989 75.735 106.202 75.735H106.554ZM104.222 72.633H102.968C102.631 72.633 102.356 72.7393 102.143 72.952C101.938 73.1646 101.835 73.4433 101.835 73.788V74.547C101.835 74.8623 101.938 75.1336 102.143 75.361C102.356 75.581 102.612 75.691 102.913 75.691C103.184 75.691 103.434 75.6396 103.661 75.537C103.888 75.4343 104.075 75.284 104.222 75.086V72.633Z" fill="#E1E1E1"/>
<path d="M111.445 75.735V77H110.312C110.07 77 109.835 76.945 109.608 76.835C109.381 76.725 109.179 76.5746 109.003 76.384C108.644 76.7946 108.149 77 107.518 77H106.451L105.901 76.802V75.944L106.451 75.735H107.54C108.083 75.735 108.362 75.4453 108.376 74.866L108.365 71.797H109.641V74.338C109.641 74.47 109.638 74.5726 109.63 74.646V74.833C109.63 75.1043 109.696 75.3243 109.828 75.493C109.96 75.6543 110.176 75.735 110.477 75.735H111.445ZM107.716 78.023C107.922 78.023 108.098 78.0963 108.244 78.243C108.398 78.397 108.475 78.5766 108.475 78.782C108.475 78.9873 108.398 79.167 108.244 79.321C108.098 79.475 107.922 79.552 107.716 79.552C107.511 79.552 107.331 79.475 107.177 79.321C107.023 79.1743 106.946 78.9946 106.946 78.782C106.946 78.5766 107.023 78.397 107.177 78.243C107.331 78.0963 107.511 78.023 107.716 78.023ZM109.872 78.023C110.077 78.023 110.253 78.0963 110.4 78.243C110.554 78.397 110.631 78.5766 110.631 78.782C110.631 78.9946 110.554 79.1743 110.4 79.321C110.253 79.475 110.077 79.552 109.872 79.552C109.667 79.552 109.487 79.475 109.333 79.321C109.187 79.1743 109.113 78.9946 109.113 78.782C109.113 78.5766 109.187 78.397 109.333 78.243C109.487 78.0963 109.667 78.023 109.872 78.023Z" fill="#E1E1E1"/>
<path d="M121.251 75.735V77H120.569C120.334 77.0073 120.118 76.9596 119.92 76.857C119.729 76.7543 119.575 76.615 119.458 76.439C119.311 76.6223 119.132 76.7616 118.919 76.857C118.714 76.9523 118.464 77 118.171 77H117.401C117.166 77 116.95 76.9486 116.752 76.846C116.554 76.736 116.404 76.6003 116.301 76.439C116.052 76.813 115.626 77 115.025 77H114.31C114.068 77 113.844 76.945 113.639 76.835C113.441 76.725 113.294 76.5856 113.199 76.417C113.06 76.615 112.876 76.7616 112.649 76.857C112.422 76.9523 112.103 77 111.692 77H111.34L110.79 76.791V75.933L111.34 75.735H111.582C111.846 75.735 112.04 75.6726 112.165 75.548C112.297 75.4233 112.363 75.2473 112.363 75.02V72.6H113.617V75.02C113.617 75.2546 113.679 75.4343 113.804 75.559C113.929 75.6763 114.094 75.735 114.299 75.735H114.794C114.999 75.735 115.164 75.669 115.289 75.537C115.421 75.405 115.487 75.2326 115.487 75.02V72.6H116.719V75.02C116.719 75.2326 116.781 75.405 116.906 75.537C117.038 75.669 117.214 75.735 117.434 75.735H117.94C118.153 75.735 118.318 75.6726 118.435 75.548C118.552 75.416 118.611 75.24 118.611 75.02V71.555H119.843V75.02C119.843 75.2326 119.909 75.405 120.041 75.537C120.173 75.669 120.349 75.735 120.569 75.735H121.251Z" fill="#E1E1E1"/>
<path d="M122.916 70.972C122.711 70.972 122.531 70.895 122.377 70.741C122.223 70.587 122.146 70.4073 122.146 70.202C122.146 69.9966 122.223 69.8206 122.377 69.674C122.531 69.52 122.711 69.443 122.916 69.443C123.122 69.443 123.298 69.52 123.444 69.674C123.598 69.8206 123.675 69.9966 123.675 70.202C123.675 70.4146 123.598 70.598 123.444 70.752C123.298 70.8986 123.122 70.972 122.916 70.972ZM124.863 75.735V77H124.335C124.093 77 123.859 76.945 123.631 76.835C123.404 76.725 123.206 76.5746 123.037 76.384C122.678 76.7946 122.183 77 121.552 77H121.189L120.639 76.802V75.944L121.189 75.735H121.563C122.121 75.735 122.399 75.4343 122.399 74.833V71.797H123.664V74.833C123.664 75.4343 123.947 75.735 124.511 75.735H124.863Z" fill="#E1E1E1"/>
<path d="M132.072 75.735V77H124.746L124.196 76.802V75.944L124.746 75.735H129.388C129.329 75.669 129.256 75.5553 129.168 75.394C129.08 75.2253 128.988 75.042 128.893 74.844C128.805 74.6533 128.735 74.5103 128.684 74.415C128.376 73.8136 128.039 73.3626 127.672 73.062C127.305 72.7613 126.884 72.611 126.407 72.611C126.055 72.611 125.67 72.6916 125.252 72.853V71.687C125.685 71.5256 126.114 71.445 126.539 71.445C127.265 71.445 127.929 71.6833 128.53 72.16C129.139 72.6366 129.656 73.3296 130.081 74.239C130.272 74.679 130.437 75.0053 130.576 75.218C130.715 75.4306 130.829 75.5663 130.917 75.625C131.005 75.6763 131.1 75.7093 131.203 75.724V75.735H132.072ZM127.958 77.88C128.171 77.88 128.35 77.9533 128.497 78.1C128.651 78.2466 128.728 78.4226 128.728 78.628C128.728 78.8406 128.651 79.0203 128.497 79.167C128.35 79.321 128.171 79.398 127.958 79.398C127.753 79.398 127.573 79.321 127.419 79.167C127.272 79.0203 127.199 78.8406 127.199 78.628C127.199 78.4226 127.272 78.2466 127.419 78.1C127.573 77.9533 127.753 77.88 127.958 77.88Z" fill="#E1E1E1"/>
<path d="M134.361 69.344V75.68C134.361 76.054 134.232 76.3693 133.976 76.626C133.726 76.8753 133.418 77 133.052 77H132.04L131.49 76.791V75.933L132.04 75.735H132.634C132.758 75.735 132.865 75.6946 132.953 75.614C133.048 75.526 133.096 75.4013 133.096 75.24V69.344H134.361Z" fill="#E1E1E1"/>
<path d="M135.872 77V69.344H137.137V77H135.872Z" fill="#E1E1E1"/>
<path d="M142.361 70.488C142.149 70.488 141.965 70.4146 141.811 70.268C141.665 70.114 141.591 69.9343 141.591 69.729C141.591 69.5236 141.668 69.3476 141.822 69.201C141.976 69.047 142.156 68.97 142.361 68.97C142.567 68.97 142.743 69.047 142.889 69.201C143.043 69.3476 143.12 69.5236 143.12 69.729C143.12 69.9343 143.043 70.114 142.889 70.268C142.743 70.4146 142.567 70.488 142.361 70.488ZM144.517 70.488C144.312 70.488 144.132 70.4146 143.978 70.268C143.832 70.114 143.758 69.9343 143.758 69.729C143.758 69.5236 143.832 69.3476 143.978 69.201C144.132 69.047 144.312 68.97 144.517 68.97C144.723 68.97 144.899 69.047 145.045 69.201C145.199 69.3476 145.276 69.5236 145.276 69.729C145.276 69.9343 145.203 70.114 145.056 70.268C144.91 70.4146 144.73 70.488 144.517 70.488ZM146.794 75.735V77H146.442C146.12 77 145.823 76.9376 145.551 76.813C145.28 76.681 145.053 76.4976 144.869 76.263C144.444 76.7323 143.872 76.967 143.153 76.967C142.728 76.967 142.336 76.857 141.976 76.637C141.617 76.417 141.331 76.1236 141.118 75.757C140.913 75.383 140.81 74.9796 140.81 74.547V73.788C140.81 73.3333 140.913 72.9226 141.118 72.556C141.331 72.1893 141.617 71.8996 141.976 71.687C142.343 71.4743 142.754 71.368 143.208 71.368H145.727V75.02C145.727 75.2326 145.793 75.405 145.925 75.537C146.057 75.669 146.23 75.735 146.442 75.735H146.794ZM144.462 72.633H143.208C142.871 72.633 142.596 72.7393 142.383 72.952C142.178 73.1646 142.075 73.4433 142.075 73.788V74.547C142.075 74.8623 142.178 75.1336 142.383 75.361C142.596 75.581 142.853 75.691 143.153 75.691C143.425 75.691 143.674 75.6396 143.901 75.537C144.129 75.4343 144.316 75.284 144.462 75.086V72.633Z" fill="#E1E1E1"/>
<path d="M148.638 75.735C148.756 75.735 148.862 75.6946 148.957 75.614C149.053 75.526 149.1 75.4013 149.1 75.24V71.786H150.365V75.68C150.365 76.054 150.237 76.3693 149.98 76.626C149.724 76.8753 149.412 77 149.045 77H146.614V75.735H148.638ZM147.714 79.574C147.502 79.574 147.318 79.497 147.164 79.343C147.018 79.1963 146.944 79.0166 146.944 78.804C146.944 78.5986 147.021 78.419 147.175 78.265C147.329 78.1183 147.509 78.045 147.714 78.045C147.92 78.045 148.096 78.1183 148.242 78.265C148.396 78.419 148.473 78.5986 148.473 78.804C148.473 79.0166 148.4 79.1963 148.253 79.343C148.107 79.497 147.927 79.574 147.714 79.574ZM149.87 79.574C149.665 79.574 149.485 79.497 149.331 79.343C149.185 79.1963 149.111 79.0166 149.111 78.804C149.111 78.5986 149.185 78.419 149.331 78.265C149.485 78.1183 149.665 78.045 149.87 78.045C150.076 78.045 150.252 78.1183 150.398 78.265C150.552 78.419 150.629 78.5986 150.629 78.804C150.629 79.0166 150.556 79.1963 150.409 79.343C150.263 79.497 150.083 79.574 149.87 79.574Z" fill="#E1E1E1"/>
<path d="M155.742 77H154.752V77.132C154.752 77.5793 154.646 77.9826 154.433 78.342C154.228 78.7013 153.946 78.9836 153.586 79.189C153.227 79.4016 152.824 79.508 152.376 79.508H151.826V78.243H152.376C152.699 78.243 152.963 78.1403 153.168 77.935C153.374 77.7296 153.476 77.462 153.476 77.132V71.698H154.752V75.735H155.742V77Z" fill="#E1E1E1"/>
<path d="M157.533 75.735C157.65 75.735 157.757 75.6946 157.852 75.614C157.947 75.526 157.995 75.4013 157.995 75.24V71.786H159.26V75.68C159.26 76.054 159.132 76.3693 158.875 76.626C158.618 76.8753 158.307 77 157.94 77H155.509V75.735H157.533ZM156.609 79.574C156.396 79.574 156.213 79.497 156.059 79.343C155.912 79.1963 155.839 79.0166 155.839 78.804C155.839 78.5986 155.916 78.419 156.07 78.265C156.224 78.1183 156.404 78.045 156.609 78.045C156.814 78.045 156.99 78.1183 157.137 78.265C157.291 78.419 157.368 78.5986 157.368 78.804C157.368 79.0166 157.295 79.1963 157.148 79.343C157.001 79.497 156.822 79.574 156.609 79.574ZM158.765 79.574C158.56 79.574 158.38 79.497 158.226 79.343C158.079 79.1963 158.006 79.0166 158.006 78.804C158.006 78.5986 158.079 78.419 158.226 78.265C158.38 78.1183 158.56 78.045 158.765 78.045C158.97 78.045 159.146 78.1183 159.293 78.265C159.447 78.419 159.524 78.5986 159.524 78.804C159.524 79.0166 159.451 79.1963 159.304 79.343C159.157 79.497 158.978 79.574 158.765 79.574Z" fill="#E1E1E1"/>
<path d="M166.357 75.735V77H160.659V75.735H163.893V73.876C163.893 73.5166 163.779 73.227 163.552 73.007C163.332 72.7796 163.042 72.666 162.683 72.666H161.198V71.39H162.683C163.145 71.39 163.563 71.5 163.937 71.72C164.318 71.9326 164.615 72.2296 164.828 72.611C165.048 72.985 165.158 73.4066 165.158 73.876V75.735H166.357Z" fill="#E1E1E1"/>
<path d="M169.95 71.368C170.405 71.368 170.815 71.4743 171.182 71.687C171.549 71.8996 171.835 72.1893 172.04 72.556C172.253 72.9226 172.359 73.3333 172.359 73.788V74.547C172.359 74.9796 172.253 75.383 172.04 75.757C171.827 76.1236 171.541 76.417 171.182 76.637C170.823 76.857 170.43 76.967 170.005 76.967C169.66 76.967 169.33 76.912 169.015 76.802C168.7 76.6846 168.417 76.5196 168.168 76.307C168.007 76.527 167.798 76.6993 167.541 76.824C167.292 76.9413 167.017 77 166.716 77H166.243L165.693 76.802V75.933L166.243 75.735H166.716C166.921 75.735 167.09 75.669 167.222 75.537C167.354 75.405 167.42 75.2326 167.42 75.02V73.788C167.42 73.3333 167.523 72.9226 167.728 72.556C167.941 72.1893 168.23 71.8996 168.597 71.687C168.964 71.4743 169.374 71.368 169.829 71.368H169.95ZM171.094 73.788C171.094 73.4433 170.988 73.1646 170.775 72.952C170.562 72.7393 170.287 72.633 169.95 72.633H169.829C169.492 72.633 169.217 72.7393 169.004 72.952C168.791 73.1646 168.685 73.4433 168.685 73.788V75.086C168.832 75.284 169.019 75.4343 169.246 75.537C169.481 75.6396 169.734 75.691 170.005 75.691C170.298 75.691 170.551 75.581 170.764 75.361C170.984 75.1336 171.094 74.8623 171.094 74.547V73.788Z" fill="#E1E1E1"/>
<line x1="195.81" y1="47.0601" x2="170" y2="47.0601" stroke="#E1E1E1" stroke-dasharray="2 2"/>
<path d="M207.78 43.96H206.7C206.654 44.46 206.497 44.9067 206.23 45.3C205.964 45.6933 205.617 46 205.19 46.22C204.77 46.4467 204.304 46.56 203.79 46.56H203.73C203.177 46.56 202.677 46.4333 202.23 46.18C201.79 45.9267 201.444 45.5767 201.19 45.13C200.937 44.6833 200.81 44.1867 200.81 43.64V41.67H201.95V43.64C201.95 44.1667 202.114 44.5933 202.44 44.92C202.774 45.2467 203.204 45.41 203.73 45.41H203.79C204.137 45.41 204.444 45.3333 204.71 45.18C204.984 45.0333 205.194 44.8267 205.34 44.56C205.494 44.2933 205.57 43.9867 205.57 43.64V37H206.72V42.81H207.78V43.96Z" fill="#646363"/>
<path d="M214.402 42.81V43.96H207.742L207.242 43.78V43L207.742 42.81H211.962C211.908 42.75 211.842 42.6467 211.762 42.5C211.682 42.3467 211.598 42.18 211.512 42C211.432 41.8267 211.368 41.6967 211.322 41.61C211.042 41.0633 210.735 40.6533 210.402 40.38C210.068 40.1067 209.685 39.97 209.252 39.97C208.932 39.97 208.582 40.0433 208.202 40.19V39.13C208.595 38.9833 208.985 38.91 209.372 38.91C210.032 38.91 210.635 39.1267 211.182 39.56C211.735 39.9933 212.205 40.6233 212.592 41.45C212.765 41.85 212.915 42.1467 213.042 42.34C213.168 42.5333 213.272 42.6567 213.352 42.71C213.432 42.7567 213.518 42.7867 213.612 42.8V42.81H214.402ZM210.662 44.76C210.855 44.76 211.018 44.8267 211.152 44.96C211.292 45.0933 211.362 45.2533 211.362 45.44C211.362 45.6333 211.292 45.7967 211.152 45.93C211.018 46.07 210.855 46.14 210.662 46.14C210.475 46.14 210.312 46.07 210.172 45.93C210.038 45.7967 209.972 45.6333 209.972 45.44C209.972 45.2533 210.038 45.0933 210.172 44.96C210.312 44.8267 210.475 44.76 210.662 44.76Z" fill="#646363"/>
<path d="M223.392 42.81V43.96H222.772C222.559 43.9667 222.362 43.9233 222.182 43.83C222.009 43.7367 221.869 43.61 221.762 43.45C221.629 43.6167 221.466 43.7433 221.272 43.83C221.086 43.9167 220.859 43.96 220.592 43.96H219.892C219.679 43.96 219.482 43.9133 219.302 43.82C219.122 43.72 218.986 43.5967 218.892 43.45C218.666 43.79 218.279 43.96 217.732 43.96H217.082C216.862 43.96 216.659 43.91 216.472 43.81C216.292 43.71 216.159 43.5833 216.072 43.43C215.946 43.61 215.779 43.7433 215.572 43.83C215.366 43.9167 215.076 43.96 214.702 43.96H214.382L213.882 43.77V42.99L214.382 42.81H214.602C214.842 42.81 215.019 42.7533 215.132 42.64C215.252 42.5267 215.312 42.3667 215.312 42.16V39.96H216.452V42.16C216.452 42.3733 216.509 42.5367 216.622 42.65C216.736 42.7567 216.886 42.81 217.072 42.81H217.522C217.709 42.81 217.859 42.75 217.972 42.63C218.092 42.51 218.152 42.3533 218.152 42.16V39.96H219.272V42.16C219.272 42.3533 219.329 42.51 219.442 42.63C219.562 42.75 219.722 42.81 219.922 42.81H220.382C220.576 42.81 220.726 42.7533 220.832 42.64C220.939 42.52 220.992 42.36 220.992 42.16V39.01H222.112V42.16C222.112 42.3533 222.172 42.51 222.292 42.63C222.412 42.75 222.572 42.81 222.772 42.81H223.392Z" fill="#646363"/>
<path d="M225.477 37V42.76C225.477 43.1 225.36 43.3867 225.127 43.62C224.9 43.8467 224.62 43.96 224.287 43.96H223.367L222.867 43.77V42.99L223.367 42.81H223.907C224.02 42.81 224.117 42.7733 224.197 42.7C224.283 42.62 224.327 42.5067 224.327 42.36V37H225.477Z" fill="#646363"/>
<path d="M226.85 43.96V37H228V43.96H226.85Z" fill="#646363"/>
<path d="M22.362 31.4C22.1687 31.4 22.002 31.3333 21.862 31.2C21.7287 31.06 21.662 30.8967 21.662 30.71C21.662 30.5233 21.732 30.3633 21.872 30.23C22.012 30.09 22.1754 30.02 22.362 30.02C22.5487 30.02 22.7087 30.09 22.842 30.23C22.982 30.3633 23.052 30.5233 23.052 30.71C23.052 30.8967 22.982 31.06 22.842 31.2C22.7087 31.3333 22.5487 31.4 22.362 31.4ZM24.322 31.4C24.1354 31.4 23.972 31.3333 23.832 31.2C23.6987 31.06 23.632 30.8967 23.632 30.71C23.632 30.5233 23.6987 30.3633 23.832 30.23C23.972 30.09 24.1354 30.02 24.322 30.02C24.5087 30.02 24.6687 30.09 24.802 30.23C24.942 30.3633 25.012 30.5233 25.012 30.71C25.012 30.8967 24.9454 31.06 24.812 31.2C24.6787 31.3333 24.5154 31.4 24.322 31.4ZM26.392 36.17V37.32H26.072C25.7787 37.32 25.5087 37.2633 25.262 37.15C25.0154 37.03 24.8087 36.8633 24.642 36.65C24.2554 37.0767 23.7354 37.29 23.082 37.29C22.6954 37.29 22.3387 37.19 22.012 36.99C21.6854 36.79 21.4254 36.5233 21.232 36.19C21.0454 35.85 20.952 35.4833 20.952 35.09V34.4C20.952 33.9867 21.0454 33.6133 21.232 33.28C21.4254 32.9467 21.6854 32.6833 22.012 32.49C22.3454 32.2967 22.7187 32.2 23.132 32.2H25.422V35.52C25.422 35.7133 25.482 35.87 25.602 35.99C25.722 36.11 25.8787 36.17 26.072 36.17H26.392ZM24.272 33.35H23.132C22.8254 33.35 22.5754 33.4467 22.382 33.64C22.1954 33.8333 22.102 34.0867 22.102 34.4V35.09C22.102 35.3767 22.1954 35.6233 22.382 35.83C22.5754 36.03 22.8087 36.13 23.082 36.13C23.3287 36.13 23.5554 36.0833 23.762 35.99C23.9687 35.8967 24.1387 35.76 24.272 35.58V33.35Z" fill="#646363"/>
<path d="M28.0686 36.17C28.1753 36.17 28.2719 36.1333 28.3586 36.06C28.4453 35.98 28.4886 35.8667 28.4886 35.72V32.58H29.6386V36.12C29.6386 36.46 29.5219 36.7467 29.2886 36.98C29.0553 37.2067 28.7719 37.32 28.4386 37.32H26.2286V36.17H28.0686ZM27.2286 39.66C27.0353 39.66 26.8686 39.59 26.7286 39.45C26.5953 39.3167 26.5286 39.1533 26.5286 38.96C26.5286 38.7733 26.5986 38.61 26.7386 38.47C26.8786 38.3367 27.0419 38.27 27.2286 38.27C27.4153 38.27 27.5753 38.3367 27.7086 38.47C27.8486 38.61 27.9186 38.7733 27.9186 38.96C27.9186 39.1533 27.8519 39.3167 27.7186 39.45C27.5853 39.59 27.4219 39.66 27.2286 39.66ZM29.1886 39.66C29.0019 39.66 28.8386 39.59 28.6986 39.45C28.5653 39.3167 28.4986 39.1533 28.4986 38.96C28.4986 38.7733 28.5653 38.61 28.6986 38.47C28.8386 38.3367 29.0019 38.27 29.1886 38.27C29.3753 38.27 29.5353 38.3367 29.6686 38.47C29.8086 38.61 29.8786 38.7733 29.8786 38.96C29.8786 39.1533 29.8119 39.3167 29.6786 39.45C29.5453 39.59 29.3819 39.66 29.1886 39.66Z" fill="#646363"/>
<path d="M35.9302 37.32H35.4002V37.77C35.4002 38.3367 35.1968 38.79 34.7902 39.13C34.3835 39.47 33.8068 39.64 33.0602 39.64C32.6468 39.64 32.1802 39.58 31.6602 39.46V38.39C32.1335 38.47 32.5268 38.51 32.8402 38.51C33.3402 38.51 33.7002 38.42 33.9202 38.24C34.1402 38.0667 34.2502 37.8167 34.2502 37.49V37.31H33.0402C32.6535 37.31 32.2968 37.21 31.9702 37.01C31.6502 36.81 31.3935 36.5433 31.2002 36.21C31.0135 35.87 30.9202 35.5033 30.9202 35.11V34.4C30.9202 33.9867 31.0135 33.6133 31.2002 33.28C31.3935 32.9467 31.6568 32.6867 31.9902 32.5C32.3235 32.3067 32.6968 32.21 33.1102 32.21H33.2202C33.6335 32.21 34.0035 32.3067 34.3302 32.5C34.6635 32.6867 34.9235 32.9467 35.1102 33.28C35.3035 33.6133 35.4002 33.9867 35.4002 34.4V36.17H35.9302V37.32ZM34.2502 36.16V34.4C34.2502 34.0933 34.1535 33.8433 33.9602 33.65C33.7735 33.4567 33.5268 33.36 33.2202 33.36H33.1102C32.8035 33.36 32.5535 33.4567 32.3602 33.65C32.1668 33.8433 32.0702 34.0933 32.0702 34.4V35.11C32.0702 35.3967 32.1668 35.6433 32.3602 35.85C32.5602 36.0567 32.7902 36.16 33.0502 36.16H34.2502Z" fill="#646363"/>
<path d="M42.7296 36.17V37.32H41.4796V37.61C41.4796 38.31 41.2963 38.8667 40.9296 39.28C40.5696 39.6933 40.0229 39.9 39.2896 39.9C38.8229 39.9 38.4229 39.7933 38.0896 39.58C37.7629 39.3667 37.5129 39.0733 37.3396 38.7C37.1729 38.3267 37.0896 37.9033 37.0896 37.43V37.32H35.6496V36.17H37.0896V34.64C37.0896 34.18 37.1863 33.7667 37.3796 33.4C37.5796 33.0267 37.8529 32.7367 38.1996 32.53C38.5463 32.3167 38.9363 32.21 39.3696 32.21C39.8229 32.21 40.2229 32.32 40.5696 32.54C40.9163 32.76 41.1829 33.07 41.3696 33.47C41.5629 33.8633 41.6596 34.3233 41.6596 34.85C41.6596 35.3367 41.5396 35.7767 41.2996 36.17H42.7296ZM38.1496 36.17H39.1896C39.6096 36.17 39.9496 36.0533 40.2096 35.82C40.4763 35.58 40.6096 35.2567 40.6096 34.85C40.6096 34.35 40.4996 33.9633 40.2796 33.69C40.0596 33.4167 39.7596 33.28 39.3796 33.28C39.0263 33.28 38.7329 33.42 38.4996 33.7C38.2663 33.9733 38.1496 34.3233 38.1496 34.75V36.17ZM35.1396 37.14V36.35L35.6396 36.17V37.32L35.1396 37.14ZM39.2896 38.84C39.6496 38.84 39.9263 38.71 40.1196 38.45C40.3196 38.1967 40.4196 37.8567 40.4196 37.43V37.02C40.0396 37.22 39.6296 37.32 39.1896 37.32H38.1496V37.43C38.1496 37.8633 38.2429 38.2067 38.4296 38.46C38.6229 38.7133 38.9096 38.84 39.2896 38.84Z" fill="#646363"/>
<path d="M44.464 30.36V36.12C44.464 36.46 44.3473 36.7467 44.114 36.98C43.8873 37.2067 43.6073 37.32 43.274 37.32H42.354L41.854 37.13V36.35L42.354 36.17H42.894C43.0073 36.17 43.104 36.1333 43.184 36.06C43.2706 35.98 43.314 35.8667 43.314 35.72V30.36H44.464Z" fill="#646363"/>
<path d="M45.8374 37.32V30.36H46.9874V37.32H45.8374Z" fill="#646363"/>
<path d="M57.007 37.32H56.687C56.427 37.32 56.1904 37.27 55.977 37.17C55.7704 37.0633 55.597 36.92 55.457 36.74C55.2704 36.9733 55.037 37.1567 54.757 37.29C54.4837 37.4167 54.1804 37.48 53.847 37.48C53.4404 37.48 53.087 37.4267 52.787 37.32C52.487 37.2067 52.2204 37.03 51.987 36.79C51.7737 36.81 51.607 36.89 51.487 37.03C51.3737 37.1633 51.317 37.3333 51.317 37.54V39.89H50.157V37.54C50.157 37.08 50.2937 36.68 50.567 36.34C50.8404 36 51.1937 35.7833 51.627 35.69L51.637 34.39C51.637 33.97 51.7304 33.5933 51.917 33.26C52.1104 32.92 52.3737 32.6533 52.707 32.46C53.047 32.2667 53.427 32.17 53.847 32.17C54.267 32.17 54.6437 32.2667 54.977 32.46C55.317 32.6533 55.5837 32.92 55.777 33.26C55.9704 33.5933 56.067 33.97 56.067 34.39V35.54C56.067 35.7267 56.1237 35.88 56.237 36C56.3504 36.1133 56.5004 36.17 56.687 36.17H57.007V37.32ZM53.847 36.33C54.167 36.33 54.4237 36.2333 54.617 36.04C54.817 35.84 54.917 35.58 54.917 35.26V34.39C54.917 34.0767 54.817 33.82 54.617 33.62C54.4237 33.42 54.167 33.32 53.847 33.32C53.5337 33.32 53.277 33.42 53.077 33.62C52.8837 33.82 52.787 34.0767 52.787 34.39V35.95C52.907 36.0833 53.047 36.18 53.207 36.24C53.3737 36.3 53.587 36.33 53.847 36.33Z" fill="#646363"/>
<path d="M58.7736 31.39C58.5803 31.39 58.4169 31.3233 58.2836 31.19C58.1503 31.05 58.0836 30.8833 58.0836 30.69C58.0836 30.5033 58.1503 30.3433 58.2836 30.21C58.4236 30.07 58.5869 30 58.7736 30C58.9603 30 59.1203 30.07 59.2536 30.21C59.3936 30.3433 59.4636 30.5033 59.4636 30.69C59.4636 30.8833 59.3969 31.05 59.2636 31.19C59.1303 31.3233 58.9669 31.39 58.7736 31.39ZM60.7436 31.39C60.5503 31.39 60.3836 31.3233 60.2436 31.19C60.1103 31.05 60.0436 30.8833 60.0436 30.69C60.0436 30.5033 60.1136 30.3433 60.2536 30.21C60.3936 30.07 60.5569 30 60.7436 30C60.9303 30 61.0903 30.07 61.2236 30.21C61.3636 30.3433 61.4336 30.5033 61.4336 30.69C61.4336 30.8833 61.3636 31.05 61.2236 31.19C61.0903 31.3233 60.9303 31.39 60.7436 31.39ZM59.8436 32.21C60.2503 32.21 60.6203 32.3067 60.9536 32.5C61.2869 32.6933 61.5503 32.96 61.7436 33.3C61.9369 33.6333 62.0336 34.0033 62.0336 34.41V35.28C62.0336 35.6467 61.9403 35.9867 61.7536 36.3C61.5736 36.6133 61.3269 36.8633 61.0136 37.05C60.7003 37.23 60.3603 37.32 59.9936 37.32H56.9536L56.4536 37.13V36.35L56.9536 36.16H57.9536C57.8269 36.0267 57.7269 35.87 57.6536 35.69C57.5803 35.5033 57.5436 35.31 57.5436 35.11V34.41C57.5436 34.0033 57.6403 33.6333 57.8336 33.3C58.0269 32.96 58.2903 32.6933 58.6236 32.5C58.9569 32.3067 59.3269 32.21 59.7336 32.21H59.8436ZM60.8836 34.41C60.8836 34.1033 60.7836 33.8533 60.5836 33.66C60.3903 33.4667 60.1436 33.37 59.8436 33.37H59.7336C59.4336 33.37 59.1869 33.4667 58.9936 33.66C58.8003 33.8533 58.7036 34.1033 58.7036 34.41V35.11C58.7036 35.3967 58.8003 35.6433 58.9936 35.85C59.1869 36.0567 59.4136 36.16 59.6736 36.16H59.8836C60.1569 36.16 60.3903 36.0633 60.5836 35.87C60.7836 35.6767 60.8836 35.4433 60.8836 35.17V34.41Z" fill="#646363"/>
<path d="M62.8879 38.45C63.1812 38.45 63.4212 38.3567 63.6079 38.17C63.8012 37.9833 63.8979 37.74 63.8979 37.44V32.5H65.0479V37.44C65.0479 37.8467 64.9512 38.2133 64.7579 38.54C64.5712 38.8667 64.3146 39.1233 63.9879 39.31C63.6612 39.5033 63.2946 39.6 62.8879 39.6H62.3979V38.45H62.8879Z" fill="#646363"/>
<line x1="72" y1="55.3999" x2="14" y2="55.3999" stroke="#E1E1E1" stroke-dasharray="2 2"/>
<line x1="188.195" y1="61.1201" x2="170" y2="61.1201" stroke="#E1E1E1" stroke-dasharray="2 2"/>
<path d="M194.605 52.38C194.412 52.38 194.245 52.3133 194.105 52.18C193.972 52.04 193.905 51.8767 193.905 51.69C193.905 51.5033 193.975 51.3433 194.115 51.21C194.255 51.07 194.418 51 194.605 51C194.792 51 194.952 51.07 195.085 51.21C195.225 51.3433 195.295 51.5033 195.295 51.69C195.295 51.8767 195.225 52.04 195.085 52.18C194.952 52.3133 194.792 52.38 194.605 52.38ZM196.565 52.38C196.378 52.38 196.215 52.3133 196.075 52.18C195.942 52.04 195.875 51.8767 195.875 51.69C195.875 51.5033 195.942 51.3433 196.075 51.21C196.215 51.07 196.378 51 196.565 51C196.752 51 196.912 51.07 197.045 51.21C197.185 51.3433 197.255 51.5033 197.255 51.69C197.255 51.8767 197.188 52.04 197.055 52.18C196.922 52.3133 196.758 52.38 196.565 52.38ZM198.635 57.15V58.3H198.315C198.022 58.3 197.752 58.2433 197.505 58.13C197.258 58.01 197.052 57.8433 196.885 57.63C196.498 58.0567 195.978 58.27 195.325 58.27C194.938 58.27 194.582 58.17 194.255 57.97C193.928 57.77 193.668 57.5033 193.475 57.17C193.288 56.83 193.195 56.4633 193.195 56.07V55.38C193.195 54.9667 193.288 54.5933 193.475 54.26C193.668 53.9267 193.928 53.6633 194.255 53.47C194.588 53.2767 194.962 53.18 195.375 53.18H197.665V56.5C197.665 56.6933 197.725 56.85 197.845 56.97C197.965 57.09 198.122 57.15 198.315 57.15H198.635ZM196.515 54.33H195.375C195.068 54.33 194.818 54.4267 194.625 54.62C194.438 54.8133 194.345 55.0667 194.345 55.38V56.07C194.345 56.3567 194.438 56.6033 194.625 56.81C194.818 57.01 195.052 57.11 195.325 57.11C195.572 57.11 195.798 57.0633 196.005 56.97C196.212 56.8767 196.382 56.74 196.515 56.56V54.33Z" fill="#646363"/>
<path d="M201.432 52.44C201.245 52.44 201.082 52.37 200.942 52.23C200.808 52.09 200.742 51.9267 200.742 51.74C200.742 51.5533 200.808 51.3933 200.942 51.26C201.082 51.12 201.245 51.05 201.432 51.05C201.618 51.05 201.778 51.12 201.912 51.26C202.052 51.3933 202.122 51.5533 202.122 51.74C202.122 51.9333 202.052 52.1 201.912 52.24C201.778 52.3733 201.618 52.44 201.432 52.44ZM204.472 57.15V58.3H198.462L197.962 58.11V57.33L198.462 57.15H199.672C199.545 57.01 199.445 56.85 199.372 56.67C199.305 56.49 199.272 56.3 199.272 56.1V55.39C199.272 54.9767 199.365 54.6033 199.552 54.27C199.738 53.9367 199.998 53.6767 200.332 53.49C200.672 53.2967 201.062 53.2 201.502 53.2C201.942 53.2 202.332 53.2933 202.672 53.48C203.012 53.6667 203.272 53.9267 203.452 54.26C203.638 54.5933 203.732 54.97 203.732 55.39V56.1C203.732 56.3 203.695 56.49 203.622 56.67C203.548 56.85 203.448 57.01 203.322 57.15H204.472ZM202.582 55.39C202.582 55.0767 202.485 54.8267 202.292 54.64C202.105 54.4467 201.845 54.35 201.512 54.35C201.165 54.35 200.895 54.4433 200.702 54.63C200.515 54.81 200.422 55.0633 200.422 55.39V56.1C200.422 56.3867 200.528 56.6333 200.742 56.84C200.962 57.0467 201.215 57.15 201.502 57.15C201.835 57.15 202.098 57.05 202.292 56.85C202.485 56.65 202.582 56.4 202.582 56.1V55.39Z" fill="#646363"/>
<path d="M208.873 57.15V58.3H207.843C207.623 58.3 207.409 58.25 207.203 58.15C206.996 58.05 206.813 57.9133 206.653 57.74C206.326 58.1133 205.876 58.3 205.303 58.3H204.333L203.833 58.12V57.34L204.333 57.15H205.323C205.816 57.15 206.069 56.8867 206.083 56.36L206.073 53.57H207.233V55.88C207.233 56 207.229 56.0933 207.223 56.16V56.33C207.223 56.5767 207.283 56.7767 207.403 56.93C207.523 57.0767 207.719 57.15 207.993 57.15H208.873ZM205.483 59.23C205.669 59.23 205.829 59.2967 205.963 59.43C206.103 59.57 206.173 59.7333 206.173 59.92C206.173 60.1067 206.103 60.27 205.963 60.41C205.829 60.55 205.669 60.62 205.483 60.62C205.296 60.62 205.133 60.55 204.993 60.41C204.853 60.2767 204.783 60.1133 204.783 59.92C204.783 59.7333 204.853 59.57 204.993 59.43C205.133 59.2967 205.296 59.23 205.483 59.23ZM207.443 59.23C207.629 59.23 207.789 59.2967 207.923 59.43C208.063 59.57 208.133 59.7333 208.133 59.92C208.133 60.1133 208.063 60.2767 207.923 60.41C207.789 60.55 207.629 60.62 207.443 60.62C207.256 60.62 207.093 60.55 206.953 60.41C206.819 60.2767 206.753 60.1133 206.753 59.92C206.753 59.7333 206.819 59.57 206.953 59.43C207.093 59.2967 207.256 59.23 207.443 59.23Z" fill="#646363"/>
<path d="M215.447 57.15V58.3H208.787L208.287 58.12V57.34L208.787 57.15H213.007C212.954 57.09 212.887 56.9867 212.807 56.84C212.727 56.6867 212.644 56.52 212.557 56.34C212.477 56.1667 212.414 56.0367 212.367 55.95C212.08 55.4033 211.77 54.9933 211.437 54.72C211.11 54.4467 210.73 54.31 210.297 54.31C209.977 54.31 209.627 54.3833 209.247 54.53V53.47C209.64 53.3233 210.03 53.25 210.417 53.25C211.07 53.25 211.67 53.4667 212.217 53.9C212.77 54.3333 213.24 54.9633 213.627 55.79C213.8 56.19 213.95 56.4867 214.077 56.68C214.204 56.8733 214.307 56.9967 214.387 57.05C214.467 57.0967 214.557 57.1267 214.657 57.14V57.15H215.447Z" fill="#646363"/>
<path d="M223.417 57.15V58.3H215.417V58.29L214.927 58.11V57.33L215.417 57.16V57.15H216.217V53.76H217.367V54.91C218.334 53.81 219.284 53.26 220.217 53.26C221.071 53.26 221.707 53.5067 222.127 54C222.554 54.4933 222.767 55.25 222.767 56.27V57.15H223.417ZM221.657 56.27C221.657 55.63 221.517 55.16 221.237 54.86C220.957 54.5533 220.571 54.4 220.077 54.4C219.177 54.4 218.274 54.9333 217.367 56V57.15H221.657V56.27Z" fill="#646363"/>
<path d="M225.477 51.34V57.1C225.477 57.44 225.36 57.7267 225.127 57.96C224.9 58.1867 224.62 58.3 224.287 58.3H223.367L222.867 58.11V57.33L223.367 57.15H223.907C224.02 57.15 224.117 57.1133 224.197 57.04C224.283 56.96 224.327 56.8467 224.327 56.7V51.34H225.477Z" fill="#646363"/>
<path d="M226.85 58.3V51.34H228V58.3H226.85Z" fill="#646363"/>
<rect x="13" y="94" width="215" height="13" rx="6.5" fill="#E1E1E1"/>
<rect x="87" y="122" width="141" height="13" rx="6.5" fill="#E1E1E1"/>
<rect x="14" y="122" width="66" height="87" rx="9.41496" fill="#E1E1E1"/>
<rect x="25" y="197" width="44" height="58" rx="9.41496" fill="#D2D2D2"/>
<rect x="87" y="142" width="141" height="13" rx="6.5" fill="#E1E1E1"/>
<rect x="87" y="162" width="141" height="13" rx="6.5" fill="#E1E1E1"/>
<rect x="87" y="182" width="141" height="13" rx="6.5" fill="#E1E1E1"/>
<rect x="87" y="202" width="141" height="13" rx="6.5" fill="#E1E1E1"/>
<rect x="87" y="222" width="141" height="13" rx="6.5" fill="#E1E1E1"/>
<rect x="87" y="242" width="141" height="13" rx="6.5" fill="#E1E1E1"/>
<rect x="87" y="262" width="141" height="13" rx="6.5" fill="#E1E1E1"/>
<rect x="165.5" y="36.5" width="32" height="16" rx="4.5" fill="#1FA35E" fill-opacity="0.17" stroke="url(#paint0_linear_3266_30729)"/>
<defs>
<linearGradient id="paint0_linear_3266_30729" x1="152.284" y1="56.7237" x2="193.428" y2="29.2376" gradientUnits="userSpaceOnUse">
<stop stop-color="#1FA35E"/>
<stop offset="1" stop-color="#74CBA1"/>
</linearGradient>
</defs>
</svg>
