<svg width="116" height="293" viewBox="0 0 116 293" fill="none" xmlns="http://www.w3.org/2000/svg">
<mask id="mask0_3438_26994" style="mask-type:alpha" maskUnits="userSpaceOnUse" x="-268" y="0" width="384" height="293">
<path d="M59.4895 113.535C51.2553 95.8935 34.5492 87.6965 34.5492 87.6965C39.2007 93.9136 34.0742 114.267 38.3299 123.415C44.842 137.353 58.6384 139.314 58.6384 139.314C58.6384 139.314 65.2495 125.89 59.4895 113.535Z" fill="#FFC000"/>
<path d="M30.7089 165.212C34.5291 180.121 47.7119 184.595 47.7119 184.595C47.7119 184.595 56.6983 172.617 53.3136 159.43C48.4839 140.581 33.579 129.414 33.579 129.414C37.0034 136.384 28.1952 155.451 30.6892 165.212H30.7089Z" fill="#FFC000"/>
<path d="M10.8559 196.178C13.7655 211.285 26.6513 216.551 26.6513 216.551C26.6513 216.551 36.3504 205.147 33.7772 191.762C30.0955 172.656 15.9033 160.618 15.9033 160.618C18.8921 167.785 8.95564 186.278 10.8559 196.178Z" fill="#FFC000"/>
<path d="M49.137 83.7763C49.137 83.7763 53.1751 70.4711 46.0295 60.017C35.8356 45.0882 19.288 40.0988 19.288 40.0988C24.4937 45.0882 22.8508 64.5312 28.1358 72.253C36.1919 84.0535 49.137 83.7565 49.137 83.7565V83.7763Z" fill="#FFC000"/>
<path d="M36.4689 34.3124C41.6945 48.0532 54.6991 50.9043 54.6991 50.9043C54.6991 50.9043 61.9436 38.5693 57.3316 26.3926C50.7402 9.00874 35.3803 0 35.3803 0C39.3786 6.25662 33.0446 25.3037 36.4689 34.3124Z" fill="#FFC000"/>
<path d="M49.0383 254.329C31.7385 257.833 25.84 272.683 25.84 272.683C25.84 272.683 39.0226 283.671 54.343 280.583C76.2153 276.167 89.8532 259.734 89.8532 259.734C81.6586 263.258 60.3604 252.032 49.0383 254.329Z" fill="#FFC000"/>
<path d="M56.1243 239.024C56.1243 239.024 72.4741 244.27 85.4984 235.678C104.124 223.382 110.637 203.048 110.637 203.048C104.362 209.384 80.4114 206.949 70.752 213.324C56.0253 223.045 56.1243 239.024 56.1243 239.024Z" fill="#FFC000"/>
<path d="M85.3995 166.716C75.4036 177.586 78.6895 190.555 78.6895 190.555C78.6895 190.555 93.0201 191.525 101.888 181.902C114.536 168.162 115.724 150.322 115.724 150.322C111.903 156.737 91.9512 159.608 85.3995 166.716Z" fill="#FFC000"/>
<path d="M87.082 125.672C78.6498 138.522 84.2317 151.273 84.2317 151.273C84.2317 151.273 99.1166 149.847 106.579 138.462C117.228 122.207 115.427 103.714 115.427 103.714C112.596 110.941 92.6045 117.257 87.082 125.672Z" fill="#FFC000"/>
<path d="M89.1008 112.505C89.1008 112.505 102.937 107.199 107.054 94.3692C112.933 76.0349 106.322 58.849 106.322 58.849C105.53 66.4916 88.1112 77.8168 85.0629 87.3008C80.4114 101.794 89.1008 112.486 89.1008 112.486V112.505Z" fill="#FFC000"/>
<path d="M79.6987 77.6779C79.6987 77.6779 91.1 69.0454 91.4761 56.0173C92.0105 37.4257 81.2427 23.2493 81.2427 23.2493C82.5491 30.5553 69.4456 45.7414 69.1685 55.3837C68.7528 70.0947 79.6987 77.6779 79.6987 77.6779Z" fill="#FFC000"/>
<path d="M78.076 166.261C85.8154 126.009 77.205 86.4295 56.9559 54.295C70.6928 83.123 75.7007 116.426 69.2083 150.203C55.3724 222.115 -6.04794 272.742 -76.138 275.811C-146.208 272.742 -207.648 222.115 -221.484 150.203C-227.977 116.426 -222.969 83.123 -209.232 54.295C-229.501 86.4295 -238.091 126.009 -230.352 166.261C-215.942 241.182 -149.85 293.017 -76.138 291.987C-2.42567 293.017 63.6661 241.182 78.076 166.261Z" fill="#FFC000"/>
</mask>
<g mask="url(#mask0_3438_26994)">
<rect y="-43" width="125" height="337" fill="#FFC000"/>
</g>
</svg>
