<svg width="158" height="140" viewBox="0 0 158 140" fill="none" xmlns="http://www.w3.org/2000/svg">
<g clip-path="url(#clip0_3429_27114)">
<path d="M9.33057 13.9962L12.1762 10.216C13.4151 11.7087 15.196 13.1238 16.6285 13.8023L20.4033 9.3437C18.9902 8.41321 16.6866 6.68793 15.4671 5.05957L12.1956 9.26616C10.8405 8.33567 9.1757 6.61039 8.24652 5.23404L4.47171 9.75079C5.57512 11.4761 7.80129 13.2789 9.34993 13.9574L9.33057 13.9962Z" fill="#1FA35E"/>
<path d="M7.16246 41.4455C9.69836 41.4455 10.7437 40.515 12.6021 37.9756L13.899 36.1728C15.138 41.0772 18.5256 43.733 23.0941 43.733C30.0823 43.733 34.825 42.8025 37.9223 40.2049C40.7679 37.9174 43.1103 32.3926 43.1103 27.1974C43.1103 18.3384 38.1159 11.7086 33.6055 11.7086C29.521 11.7086 25.4558 17.3497 25.4558 22.2348C25.4558 27.1199 29.5984 31.656 34.3605 31.656C35.9672 31.656 38.3676 30.9775 38.987 30.2215C39.0451 30.8418 39.1032 31.7723 39.1032 32.3926C36.3156 34.5638 30.4501 35.2423 23.1135 35.2423C20.4614 35.2423 19.1644 34.0016 18.2933 29.3492C16.9383 22.0409 16.0091 18.571 14.5766 15.5275L10.0662 20.8584L10.9373 23.3397C5.94291 25.8792 2.59397 28.7288 1.29699 30.4541C0.619457 31.4428 0.058075 32.9354 0.058075 34.5444C0.058075 37.9562 3.69738 41.4262 7.16246 41.4262V41.4455ZM35.0186 24.6579C31.9213 24.6579 29.6371 23.3591 28.6498 21.6145C29.2112 20.0636 30.9341 18.8811 32.6569 18.8811C35.1348 18.8811 37.5932 20.8003 38.6386 24.2121C37.903 24.4641 36.2382 24.6386 34.9993 24.6386L35.0186 24.6579ZM12.2343 28.6125C12.4859 29.9695 12.9699 31.8886 13.1634 33.3813C12.544 33.6914 11.6148 34.1955 10.1436 34.1955C7.54962 34.1955 5.51703 32.8967 4.52977 31.8499C5.82676 30.8031 8.84661 29.3685 12.2536 28.6319L12.2343 28.6125Z" fill="#1FA35E"/>
<path d="M30.0243 8.91717L32.8699 5.13706C34.1088 6.62972 35.8897 8.04484 37.3222 8.72332L41.097 4.26472C39.6839 3.33423 37.3803 1.60895 36.1607 -0.0194092L32.8892 4.18718C31.5342 3.25669 29.8694 1.53141 28.9402 0.155058L25.1654 4.67181C26.2688 6.3971 28.495 8.19992 30.0436 8.8784L30.0243 8.91717Z" fill="#1FA35E"/>
<path d="M121.317 56.8761L125.208 51.9717C123.659 51.1575 121.259 49.3159 119.826 47.6294L115.935 52.5339C117.174 54.3948 119.71 56.062 121.317 56.8761Z" fill="#1FA35E"/>
<path d="M139.726 4.82686L133.609 7.98665C133.667 8.80082 134.093 10.0996 134.538 10.8363C134.538 16.0315 135.041 20.0055 135.642 24.8905C135.951 27.43 136.203 30.8418 136.513 34.4862C135.583 34.9127 133.183 35.2229 130.647 35.2229C125.769 35.2229 122.439 33.0517 120.523 26.5577H120.271L117.619 29.7175L117.929 32.3926C116.071 34.3118 113.419 35.2423 109.469 35.2423C108.289 35.2423 106.508 35.2422 105.52 34.9902C106.624 33.013 107.243 30.9581 107.243 29.9695C107.243 24.5804 103.294 19.6178 98.9 19.6178C93.3443 19.6178 87.7305 24.9487 82.9684 33.9822H82.7748C83.2781 32.0631 83.9556 27.8565 83.9556 25.1813V14.9653L87.4788 12.8523C85.5043 11.3015 83.0265 7.57956 82.2909 4.78809L76.4834 7.94788C76.5415 8.76205 76.9093 10.0609 77.4126 10.7393C77.5288 13.7053 77.7224 15.2561 78.1482 18.4159C78.5741 21.692 79.0194 24.9293 79.0194 29.6981C79.0194 31.6754 79.0194 33.2262 78.9613 33.9822L78.458 35.2229H60.0485C56.2737 35.2229 54.8606 33.7884 54.8606 27.2943C54.8606 19.1719 54.667 11.5535 54.0669 5.85427H54.0088L48.0853 10.6812C48.8789 14.8878 49.1306 21.9634 49.1306 28.9614C49.1306 35.9595 49.8662 38.6928 51.531 40.6701C53.4474 42.8994 56.0414 43.7136 60.0485 43.7136H80.568C92.9765 43.7136 98.5322 42.2209 101.939 39.4295C103.798 42.2791 106.14 43.7136 109.469 43.7136C114.096 43.7136 117.309 41.2323 119.226 37.142H119.342C121.684 41.2904 125.014 43.7136 130.647 43.7136C134.848 43.7136 137.81 42.2209 139.9 38.8091C141.197 36.7543 141.817 34.0985 141.817 32.2375C141.817 30.3766 141.701 27.8953 141.507 24.5028C141.313 21.0329 141.255 17.9894 141.255 15.0235L144.895 12.9105C142.92 11.3597 140.442 7.63771 139.707 4.78809L139.726 4.82686ZM90.247 35.2423H84.4396C87.653 31.7723 93.1507 28.1279 97.2933 28.1279C100.391 28.1279 102.655 30.2409 103.585 32.7028C101.668 34.0016 96.1125 35.2423 90.247 35.2423Z" fill="#1FA35E"/>
<path d="M152.135 44.9155H153.935C155.483 43.3065 156.78 41.1936 157.264 39.6427C157.574 38.5959 157.884 36.8513 157.884 33.5752C157.884 30.1052 157.632 27.3138 157.458 22.6613C157.264 17.6987 157.032 12.5034 157.032 7.67653V5.87371L156.974 5.81555L150.489 10.8363C150.489 12.0188 151.109 19.3852 151.592 24.5804C152.018 29.0972 152.154 35.8626 152.154 44.8961L152.135 44.9155Z" fill="#1FA35E"/>
<path d="M8.11101 66.2586L10.5695 62.9825C11.6342 64.2813 13.2022 65.5026 14.4217 66.1035L17.6932 62.2265C16.4543 61.4317 14.4798 59.9197 13.4151 58.5239L10.5695 62.1683C9.38864 61.3736 7.93679 59.8615 7.14311 58.679L3.87161 62.5948C4.83951 64.1069 6.75595 65.6577 8.11101 66.2392V66.2586Z" fill="#1FA35E"/>
<path d="M32.0569 95.4333L29.2112 99.0777C28.0304 98.283 26.5785 96.7709 25.7849 95.5884L22.5134 99.5042C23.4813 101.016 25.3977 102.567 26.7528 103.149L29.2112 99.8725C30.2759 101.171 31.8439 102.393 33.0635 102.994L36.335 99.1165C35.0961 98.3217 33.1215 96.8097 32.0569 95.4139V95.4333Z" fill="#1FA35E"/>
<path d="M45.2203 58.3107L41.852 62.556C42.9167 64.165 45.1235 65.6189 46.5173 66.3168L49.8856 62.0714C48.5499 61.3735 46.4592 59.7646 45.2203 58.3107Z" fill="#1FA35E"/>
<path d="M60.7454 76.6879C62.4683 77.9285 64.9267 80.9332 65.5075 83.085C64.2299 84.2093 60.3583 84.694 56.777 84.694C52.0537 84.694 49.0145 80.9332 47.5045 68.4685L47.2335 68.3716L44.0201 72.016C44.0782 75.0208 44.5621 78.9366 45.0848 81.0883C43.6329 83.3952 41.1745 84.694 38.3869 84.694C34.1475 84.694 31.2632 82.8136 29.5984 77.1725H29.3855L27.0819 79.9058L27.3529 82.2127C25.7461 83.8798 23.4425 84.694 20.0162 84.694C17.7126 84.694 16.5898 83.6278 15.8349 79.5957C14.654 73.2567 13.8603 70.252 12.6214 67.6156L8.71111 72.2293L9.46607 74.381C5.12988 76.5909 2.24554 79.0529 1.10342 80.5649C0.503319 81.4179 0.0387268 82.7167 0.0387268 84.1124C0.0387268 87.059 3.19408 90.0831 6.19457 90.0831C8.38202 90.0831 9.29185 89.2883 10.9179 87.0783L12.0407 85.5275C13.1054 89.7729 16.0672 92.0797 20.0162 92.0797C23.9652 92.0797 26.8108 89.928 28.4756 86.3805H28.5724C30.605 89.9861 33.4893 92.0797 38.3676 92.0797C42.394 92.0797 45.0074 89.6566 46.4011 85.1011H46.6141C48.3369 89.676 51.531 92.0797 56.7383 92.0797C61.3455 92.0797 64.8299 90.4126 66.8045 87.1947C68.295 84.6746 68.9919 82.6198 68.9919 79.46C68.9919 75.8543 66.9013 71.9967 64.7525 69.5154L60.6873 76.7073L60.7454 76.6879ZM8.78854 83.7829C6.54301 83.7829 4.76208 82.6585 3.91033 81.7474C5.03309 80.8363 7.66578 79.5957 10.6082 78.9559C10.8211 80.1384 11.247 81.8056 11.4019 83.085C10.8598 83.3564 10.0662 83.7829 8.76919 83.7829H8.78854Z" fill="#1FA35E"/>
<path d="M61.7714 95.4333L58.9258 99.0777C57.7449 98.283 56.2931 96.7709 55.4994 95.5884L52.2279 99.5042C53.1958 101.016 55.1122 102.567 56.4673 103.149L58.9258 99.8725C59.9905 101.171 61.5585 102.393 62.778 102.994L66.0495 99.1165C64.8106 98.3217 62.8361 96.8097 61.7714 95.4139V95.4333Z" fill="#1FA35E"/>
<path d="M117.522 67.6544C118.49 69.1664 120.407 70.7172 121.762 71.2988L124.22 68.0227C125.285 69.3215 126.853 70.5428 128.073 71.1437L131.344 67.2667C130.105 66.4719 128.131 64.9598 127.066 63.5641L124.22 67.2085C123.039 66.4137 121.588 64.9017 120.794 63.7192L117.522 67.635V67.6544Z" fill="#1FA35E"/>
<path d="M142.262 58.3107L136.958 61.044C137.016 61.7419 137.384 62.8662 137.752 63.5253C137.752 68.042 138.177 71.4732 138.719 75.7186C138.99 77.9285 139.203 80.8751 139.474 84.0348C138.681 84.4032 136.59 84.6746 134.383 84.6746C130.144 84.6746 127.26 82.7942 125.595 77.1531H125.382L123.078 79.8864L123.349 82.1933C121.742 83.8604 119.439 84.6746 116.013 84.6746C113.554 84.6746 111.831 83.9185 109.102 80.7587C106.701 77.9673 105.075 76.9399 103.159 76.9399C101.339 76.9399 99.6163 77.7928 97.003 80.8557C94.6026 83.7053 92.9765 84.6746 90.6729 84.6746H89.3953C88.7565 78.006 85.4269 73.5474 81.9424 73.5474C78.458 73.5474 75.0897 77.851 75.0897 82.3096C75.0897 87.6793 79.5808 91.6145 85.4269 92.0409C84.0331 94.3478 78.9419 97.1974 69.8437 98.8064L71.0245 100.532L81.2455 102.955C86.5496 98.9227 88.3693 95.162 89.163 92.0603H90.6535C92.5313 92.0603 94.5058 91.2074 96.0157 88.9393C98.0483 92.545 100.72 95.162 103.836 95.162C105.869 95.162 108.444 92.2542 109.237 88.9393C110.902 90.8778 113.206 92.0603 115.993 92.0603C120.02 92.0603 122.788 89.9086 124.453 86.3611H124.549C126.582 89.9667 129.466 92.0603 134.345 92.0603C137.984 92.0603 140.558 90.7615 142.378 87.815C143.501 86.0509 144.043 83.7247 144.043 82.1157C144.043 80.5067 143.946 78.355 143.772 75.4084C143.617 72.4037 143.559 69.7673 143.559 67.1891L146.714 65.3669C144.991 64.0293 142.862 60.792 142.223 58.3301L142.262 58.3107ZM83.8782 84.9653C80.9358 84.9653 78.4774 83.7828 77.6643 82.4453C78.1483 80.9332 79.6388 79.8089 81.1488 79.8089C83.3362 79.8089 85.3882 81.476 86.4528 84.6939C85.9108 84.849 84.73 84.9653 83.8782 84.9653ZM104.34 88.7261C102.578 88.7261 101.339 88.2996 98.4548 85.3918C99.5776 83.8798 100.758 83.085 102.249 83.085C104.069 83.085 106.217 84.6939 107.766 87.214C106.972 88.067 105.617 88.7261 104.34 88.7261Z" fill="#1FA35E"/>
<path d="M157.264 60.792V59.2411L157.206 59.183L151.573 63.5253C151.573 64.5527 152.115 70.9304 152.541 75.4472C152.909 79.363 153.025 85.2173 153.025 93.0683H154.574C155.909 91.6726 157.032 89.8504 157.458 88.4934C157.729 87.5823 158 86.0703 158 83.2206C158 80.2159 157.787 77.7928 157.632 73.7607C157.477 69.4571 157.264 64.9598 157.264 60.7532V60.792Z" fill="#1FA35E"/>
<path d="M6.87209 128.446C7.23989 130.365 7.7432 130.85 8.92404 130.85C9.34991 130.85 9.81451 131.47 9.81451 132.362C9.81451 133.254 9.34991 133.816 8.92404 133.816C7.06567 133.816 5.82676 132.847 5.34281 130.928L4.82014 131.606C4.1039 132.517 3.6393 132.827 2.74884 132.827C1.39378 132.827 0 131.529 0 130.307C0 129.726 0.212938 129.105 0.503308 128.718C0.9679 128.097 2.26489 127.031 4.25876 126.043L3.8716 124.957L5.4396 123.096C6.00098 124.279 6.34942 125.577 6.89145 128.446H6.87209ZM1.54864 129.261C1.9358 129.784 2.72948 130.327 3.79417 130.327C4.39427 130.327 4.82014 130.133 5.09115 129.958C5.01372 129.299 4.85886 128.485 4.70399 127.884C3.25214 128.252 2.05195 128.815 1.54864 129.261ZM4.6072 120.944L3.58123 122.34C3.00049 122.107 2.1681 121.448 1.76158 120.789L3.136 119.103C3.5038 119.607 4.12325 120.227 4.62656 120.576L5.8074 119.006C6.27199 119.607 7.12374 120.227 7.66577 120.576L6.29135 122.243C5.76868 122.01 5.09115 121.468 4.62656 120.944H4.6072Z" fill="#1FA35E"/>
<path d="M13.0473 127.458C13.7442 129.958 15.0218 130.85 16.977 130.85C17.3448 130.85 17.6932 131.47 17.6932 132.362C17.6932 133.254 17.3254 133.816 16.977 133.816C14.8282 133.816 13.57 132.924 12.6795 131.315H12.6601C11.9052 132.886 10.705 133.816 8.96277 133.816C8.59496 133.816 8.24652 133.331 8.24652 132.323C8.24652 131.315 8.57561 130.85 8.96277 130.85C10.434 130.85 11.4406 130.482 12.1762 129.648L12.0407 128.582L13.0086 127.458H13.086H13.0473ZM12.9699 137.228L11.9439 138.643C11.3632 138.372 10.5501 137.732 10.1242 137.092L11.518 135.406C11.8471 135.91 12.4859 136.53 12.9892 136.879L14.1894 135.309C14.654 135.89 15.4864 136.53 16.0091 136.86L14.6347 138.546C14.112 138.275 13.4345 137.771 12.9699 137.228Z" fill="#1FA35E"/>
<path d="M22.9392 128.718C22.6489 129.086 21.739 129.377 21.0809 129.377C19.3193 129.377 17.8287 127.787 17.8287 125.965C17.8287 124.143 19.3193 122.069 20.8292 122.069C22.5327 122.069 24.4104 124.569 24.4104 127.942C24.4104 129.823 23.6748 131.626 22.6489 132.42C21.4487 133.428 19.5903 133.835 16.9189 133.835C16.5898 133.835 16.2607 133.312 16.2607 132.362C16.2607 131.374 16.5511 130.87 16.9189 130.87C19.6871 130.87 21.8939 130.579 22.9779 129.745C22.9779 129.416 22.9392 129.009 22.9005 128.737L22.9392 128.718ZM20.5388 119.51L19.5129 120.906C18.9321 120.673 18.1191 120.014 17.6932 119.355L19.0676 117.668C19.4354 118.172 20.0549 118.793 20.5582 119.141L21.739 117.571C22.223 118.172 23.0554 118.793 23.5974 119.141L22.223 120.809C21.7003 120.576 21.0228 120.033 20.5582 119.51H20.5388ZM21.3325 126.896C21.8358 126.896 22.5133 126.799 22.7844 126.682C22.4166 125.364 21.4874 124.589 20.5388 124.589C19.8613 124.589 19.2225 125.093 18.9708 125.752C19.358 126.43 20.1904 126.915 21.3325 126.915V126.896Z" fill="#1FA35E"/>
<path d="M29.0757 125.636C29.1532 127.438 29.2499 128.679 29.2499 130.017C29.2499 131.296 29.1532 131.916 29.037 132.323C28.8434 132.886 28.4176 133.622 27.9142 134.204H27.2561C27.2561 130.715 27.1593 128.156 26.9851 126.333C26.8108 124.317 26.5979 121.759 26.5979 120.886L28.8821 119.083H28.9015V119.801C28.9015 121.681 28.9983 123.697 29.0757 125.636Z" fill="#1FA35E"/>
<path d="M37.6707 130.87C38.1353 130.87 38.5805 131.49 38.5805 132.382C38.5805 133.273 38.1159 133.836 37.6707 133.836C36.9931 133.836 36.4705 133.661 35.8704 133.273L35.8317 133.312C35.9284 133.603 36.0252 134.146 36.0252 134.592C36.0252 136.084 35.2896 138.081 32.928 139.981L28.7273 139.07L28.2433 138.372C31.8826 137.344 34.2056 135.716 34.825 134.107C34.7863 133.448 34.2056 132.323 33.0247 131.025L34.3024 128.563C35.8123 130.269 36.6834 130.85 37.69 130.85L37.6707 130.87Z" fill="#1FA35E"/>
<path d="M39.529 128.543L40.1098 126.644C41.2132 126.314 42.4134 126.062 43.5749 126.062C45.0267 126.062 46.014 126.624 46.014 127.38C46.014 128.291 45.4526 129.28 44.3879 130.288C45.0654 130.598 46.1108 130.85 48.2401 130.85C48.7047 130.85 49.15 131.47 49.15 132.362C49.15 133.254 48.6854 133.816 48.2401 133.816C45.9946 133.816 44.3685 133.138 43.0522 131.936C41.581 133.196 39.7807 133.816 37.7094 133.816C37.3803 133.816 37.0512 133.312 37.0512 132.343C37.0512 131.47 37.3416 130.85 37.7094 130.85C39.3935 130.85 41.0583 130.637 41.6971 130.288C41.4648 129.571 40.4195 128.834 39.5484 128.524L39.529 128.543Z" fill="#1FA35E"/>
<path d="M53.4474 121.758L52.073 122.573C52.073 123.736 52.1117 124.957 52.1892 126.314C52.2666 127.632 52.3247 128.698 52.3247 129.454C52.3247 130.249 52.1117 131.315 51.6084 132.11C50.8341 133.312 49.7501 133.835 48.2014 133.835C47.8336 133.835 47.5432 133.254 47.5432 132.362C47.5432 131.374 47.8336 130.869 48.2014 130.869C49.1887 130.869 50.0791 130.753 50.4663 130.559C50.3695 129.144 50.2727 127.613 50.1372 126.411C49.9049 124.434 49.7307 122.766 49.7113 120.964C49.5371 120.673 49.421 120.227 49.4016 119.936L51.5697 118.715C51.8407 119.781 52.7312 121.196 53.4668 121.778L53.4474 121.758Z" fill="#1FA35E"/>
<path d="M58.1902 125.636C58.2676 127.438 58.3644 128.679 58.3644 130.017C58.3644 131.296 58.2676 131.916 58.1514 132.323C57.9579 132.886 57.532 133.622 57.0287 134.204H56.3705C56.3705 130.715 56.2737 128.156 56.0995 126.333C55.9253 124.317 55.7123 121.759 55.7123 120.886L57.9966 119.083H58.0159V119.801C58.0159 121.681 58.1127 123.697 58.1902 125.636Z" fill="#1FA35E"/>
<path d="M71.0051 130.094C71.0051 132.207 69.5533 133.835 67.211 133.835C65.3332 133.835 64.1524 132.323 64.1524 130.462C64.1524 128.601 65.0622 126.876 66.8432 125.558L67.269 124.259C69.5533 125.345 71.0051 127.768 71.0051 130.114V130.094ZM67.269 121.875L66.2431 123.271C65.6623 122.999 64.8299 122.379 64.4234 121.72L65.7978 120.033C66.1269 120.537 66.7657 121.158 67.269 121.506L68.4692 119.936C68.9338 120.537 69.7856 121.158 70.3276 121.506L68.9338 123.174C68.4305 122.941 67.753 122.398 67.3078 121.875H67.269ZM65.7785 129.687C65.7785 130.385 66.3979 130.87 67.2884 130.87C68.1789 130.87 68.9532 130.598 69.4371 130.133C69.0113 129.067 68.2176 128.136 67.269 127.652C66.3399 128.175 65.7785 128.95 65.7785 129.706V129.687Z" fill="#1FA35E"/>
<path d="M78.2257 132.459C78.2257 134.805 76.9287 137.092 74.567 138.72L70.3663 137.79L69.8824 137.112C73.5217 136.045 76.3673 134.456 76.9868 132.866C76.7545 131.936 75.6898 130.598 74.1218 129.416L75.5156 126.508C77.1223 128 78.2257 130.075 78.2257 132.459Z" fill="#1FA35E"/>
<path d="M82.8716 127.593C82.8716 130.366 83.4523 130.87 84.8848 130.87C85.3494 130.87 85.7946 131.49 85.7946 132.382C85.7946 133.273 85.3301 133.835 84.8848 133.835C83.3749 133.835 82.3876 133.467 81.7295 132.711C81.1294 131.936 80.839 131.044 80.839 128.136C80.839 125.422 80.7422 122.689 80.4518 120.867L82.5231 119.141H82.5425C82.7748 121.351 82.8522 124.414 82.8522 127.613L82.8716 127.593Z" fill="#1FA35E"/>
<path d="M85.7366 127.904C85.7366 127.303 86.0269 126.527 86.627 125.81C87.2465 125.093 88.2531 124.511 89.0081 124.511C89.8598 124.511 90.7116 124.802 92.6474 125.713C94.738 126.682 95.4543 126.799 97.545 126.876L96.4609 129.358C95.2026 129.358 94.5638 129.435 94.1186 129.629C94.0992 129.706 94.0799 129.803 94.0799 129.9C94.0799 130.637 95.2414 130.889 98.1838 130.889C98.6484 130.889 98.9 131.49 98.9 132.362C98.9 133.235 98.629 133.855 98.1838 133.855C94.6413 133.855 92.9571 133.002 92.9571 131.044C92.9571 130.734 93.0345 130.327 93.0926 130.075H93.0733C92.4538 130.307 91.9699 130.656 90.2083 131.994C88.3305 133.448 86.9561 133.816 84.8848 133.855C84.4783 133.855 84.1686 133.331 84.1686 132.362C84.1686 131.393 84.4977 130.889 84.8848 130.889C88.0208 130.889 90.2276 130.191 92.6087 128.601V128.563C91.5053 127.981 89.9373 127.497 88.7758 127.38C88.0789 127.574 86.627 128.311 86.0269 128.776C85.8334 128.64 85.6979 128.291 85.6979 127.923L85.7366 127.904ZM90.0921 136.666L91.544 134.882C92.0473 135.483 92.9378 136.162 93.5185 136.472L92.0666 138.255C91.4859 137.965 90.5567 137.344 90.0921 136.666Z" fill="#1FA35E"/>
<path d="M102.307 127.458C103.004 129.958 104.282 130.85 106.217 130.85C106.585 130.85 106.934 131.47 106.934 132.362C106.934 133.254 106.566 133.816 106.217 133.816C104.069 133.816 102.81 132.924 101.92 131.315H101.9C101.146 132.886 99.9453 133.816 98.2031 133.816C97.8353 133.816 97.4869 133.331 97.4869 132.323C97.4869 131.315 97.816 130.85 98.2031 130.85C99.6743 130.85 100.681 130.482 101.417 129.648L101.281 128.582L102.249 127.458H102.326H102.307ZM101.746 123.658L100.72 125.054C100.139 124.821 99.3259 124.162 98.9 123.503L100.294 121.817C100.623 122.321 101.262 122.941 101.765 123.29L102.965 121.72C103.43 122.321 104.262 122.941 104.804 123.29L103.43 124.957C102.907 124.724 102.23 124.182 101.765 123.658H101.746Z" fill="#1FA35E"/>
<path d="M111.483 121.758L110.108 122.573C110.108 123.736 110.166 124.957 110.224 126.314C110.302 127.632 110.36 128.698 110.36 129.454C110.36 130.249 110.147 131.315 109.644 132.11C108.869 133.312 107.785 133.835 106.237 133.835C105.869 133.835 105.579 133.254 105.579 132.362C105.579 131.374 105.869 130.869 106.237 130.869C107.224 130.869 108.114 130.753 108.502 130.559C108.405 129.144 108.308 127.613 108.172 126.411C107.94 124.434 107.766 122.766 107.747 120.964C107.572 120.673 107.456 120.227 107.437 119.936L109.605 118.715C109.876 119.781 110.766 121.196 111.502 121.778L111.483 121.758Z" fill="#1FA35E"/>
<path d="M116.206 125.636C116.284 127.438 116.38 128.679 116.38 130.017C116.38 131.296 116.284 131.916 116.167 132.323C115.974 132.886 115.548 133.622 115.045 134.204H114.406C114.406 130.715 114.309 128.156 114.135 126.333C113.961 124.317 113.748 121.759 113.748 120.886L116.032 119.083H116.051V119.801C116.051 121.681 116.148 123.697 116.225 125.636H116.206Z" fill="#1FA35E"/>
<path d="M129.04 130.094C129.04 132.207 127.589 133.835 125.246 133.835C123.369 133.835 122.188 132.323 122.188 130.462C122.188 128.601 123.098 126.876 124.878 125.558L125.304 124.259C127.589 125.345 129.04 127.768 129.04 130.114V130.094ZM125.304 121.875L124.278 123.271C123.698 122.999 122.865 122.379 122.439 121.72L123.814 120.033C124.143 120.537 124.782 121.158 125.285 121.506L126.485 119.936C126.95 120.537 127.802 121.158 128.344 121.506L126.95 123.174C126.446 122.941 125.769 122.398 125.324 121.875H125.304ZM123.814 129.687C123.814 130.385 124.433 130.87 125.324 130.87C126.214 130.87 126.988 130.598 127.472 130.133C127.047 129.067 126.253 128.136 125.304 127.652C124.375 128.175 123.814 128.95 123.814 129.706V129.687Z" fill="#1FA35E"/>
<path d="M136.261 132.459C136.261 134.805 134.964 137.092 132.602 138.72L128.402 137.79L127.918 137.112C131.557 136.045 134.422 134.456 135.022 132.866C134.79 131.936 133.725 130.598 132.157 129.416L133.551 126.508C135.158 128 136.261 130.075 136.261 132.459Z" fill="#1FA35E"/>
<path d="M141.12 125.636C141.197 127.438 141.294 128.679 141.294 130.017C141.294 131.296 141.197 131.916 141.081 132.323C140.888 132.886 140.462 133.622 139.958 134.204H139.32C139.32 130.715 139.223 128.156 139.049 126.333C138.874 124.317 138.661 121.759 138.661 120.886L140.946 119.083H140.965V119.801C140.965 121.681 141.062 123.697 141.139 125.636H141.12Z" fill="#1FA35E"/>
<path d="M148.631 132.459C148.631 134.805 147.334 137.092 144.972 138.721L140.771 137.79L140.287 137.112C143.927 136.045 146.772 134.456 147.372 132.866C147.14 131.936 146.075 130.598 144.507 129.416L145.901 126.508C147.508 128.001 148.611 130.075 148.611 132.459H148.631ZM143.907 123.639L145.321 121.855C145.843 122.476 146.734 123.154 147.295 123.445L145.882 125.228C145.282 124.938 144.372 124.337 143.907 123.639Z" fill="#1FA35E"/>
<path d="M156.49 132.866C156.161 133.08 155.619 133.332 154.825 133.332C153.064 133.332 151.554 131.742 151.554 129.881C151.554 128.02 153.044 126.004 154.593 126.004C156.277 126.004 157.961 128.485 157.961 131.626C157.961 134.592 156.471 137.092 154.109 138.74L149.908 137.809L149.424 137.131C153.315 136.162 155.813 134.65 156.49 132.886V132.866ZM155.077 130.87C155.716 130.87 156.238 130.753 156.509 130.637C156.142 129.319 155.212 128.563 154.264 128.563C153.567 128.563 152.909 129.047 152.696 129.726C153.083 130.404 153.896 130.889 155.058 130.889L155.077 130.87Z" fill="#1FA35E"/>
<path d="M157.071 111.194H0.890459C0.445225 111.194 0.0774231 110.825 0.0774231 110.379C0.0774231 109.934 0.445225 109.565 0.890459 109.565H157.071C157.516 109.565 157.884 109.934 157.884 110.379C157.884 110.825 157.516 111.194 157.071 111.194Z" fill="#1FA35E"/>
</g>
<defs>
<clipPath id="clip0_3429_27114">
<rect width="158" height="140" fill="white"/>
</clipPath>
</defs>
</svg>
