<svg width="273" height="119" viewBox="0 0 273 119" fill="none" xmlns="http://www.w3.org/2000/svg">
<g clip-path="url(#clip0_11150_9070)">
<path opacity="0.1" d="M20.3941 89.8102L19.6268 89.4867C15.1717 87.5705 11.1126 84.5595 7.91974 80.8516C5.69218 78.2884 3.91013 75.4267 2.59835 72.3409L2.27659 71.5695C1.58357 69.8275 1.06381 68.0358 0.667796 66.1943C-0.61924 72.4654 -0.0994752 79.0848 2.27659 84.9825L2.59835 85.7539C3.91013 88.8397 5.69218 91.7014 7.91974 94.2646C11.1126 97.9974 15.1717 100.984 19.6268 102.9L20.3941 103.223C24.2304 104.766 28.2648 105.562 32.4477 105.562V92.1494C28.2896 92.1494 24.2304 91.3779 20.3941 89.8102Z" fill="#15A05D"/>
<path opacity="0.4" d="M20.3942 76.3971L19.627 76.0736C15.1718 74.1575 11.1127 71.1713 7.91989 67.4385C5.84083 65.0247 4.15779 62.362 2.87075 59.4753C2.7965 59.3011 2.6975 59.102 2.62324 58.9278L2.30149 58.1564C1.60847 56.4145 1.0887 54.6227 0.692691 52.7812C-0.223084 57.2108 -0.223084 61.8145 0.692691 66.1943C1.06395 68.0357 1.60847 69.8275 2.30149 71.5694L2.62324 72.3408C3.93503 75.4266 5.71708 78.2884 7.94464 80.8515C11.1375 84.5843 15.1966 87.5705 19.6517 89.4866L20.419 89.8101C24.2553 91.353 28.2897 92.1493 32.4726 92.1493V78.7363C28.3145 78.7363 24.2553 77.9649 20.419 76.3971H20.3942Z" fill="#15A05D"/>
<path opacity="0.7" d="M20.3942 62.9586L19.627 62.6351C15.1718 60.719 11.1127 57.7079 7.91989 54C7.57338 53.6019 7.25162 53.1788 6.92986 52.7558C5.29632 50.6654 3.93503 48.4258 2.87075 46.0368C2.7965 45.8626 2.6975 45.6636 2.62324 45.4894L2.30148 44.7179C1.60847 42.976 1.0887 41.1843 0.692691 39.3428C-0.223084 43.7723 -0.223084 48.376 0.692691 52.7558C1.06395 54.5973 1.60847 56.389 2.30148 58.1309L2.62324 58.9024C2.6975 59.0766 2.7965 59.2756 2.87075 59.4498C4.15779 62.3116 5.84083 64.9992 7.91989 67.413C11.1127 71.1458 15.1718 74.132 19.627 76.0481L20.3942 76.3716C24.2306 77.9145 28.2649 78.7108 32.4478 78.7108V65.2978C28.2897 65.2978 24.2306 64.5264 20.3942 62.9586Z" fill="#15A05D"/>
<path d="M20.3947 2.33919C20.3947 2.33919 20.2957 2.38896 20.2215 2.41384C20.073 2.46361 19.9245 2.51338 19.8007 2.58804C19.7512 2.58804 19.7017 2.63781 19.6522 2.66269C12.0785 5.92263 5.86608 12.1688 2.64849 19.7089L2.30198 20.555C-0.0740845 26.4776 -0.593849 33.1219 0.693186 39.368C1.06445 41.2095 1.60896 43.0013 2.30198 44.7432L2.62374 45.5146C2.69799 45.6888 2.79699 45.8879 2.87125 46.0621C3.93553 48.4511 5.29681 50.6907 6.93036 52.7811C7.25212 53.2041 7.57387 53.6271 7.92038 54.0253C11.1132 57.7581 15.1723 60.7443 19.6275 62.6604L20.3947 62.9839C24.2311 64.5268 28.2654 65.3231 32.4483 65.3231V0C28.2902 0 24.2311 0.771435 20.3947 2.33919Z" fill="#15A05D"/>
<path opacity="0.1" d="M49.452 103.248L50.2193 102.924C54.6744 101.008 58.7335 97.997 61.9264 94.2891C64.1539 91.7259 65.936 88.8642 67.2478 85.7784L67.5695 85.007C68.2625 83.265 68.7823 81.4733 69.1783 79.6318C70.4653 85.9029 69.9456 92.5223 67.5695 98.42L67.2478 99.1914C65.936 102.277 64.1539 105.139 61.9264 107.702C58.7335 111.435 54.6744 114.421 50.2193 116.337L49.452 116.661C45.6157 118.204 41.5813 119 37.3984 119V105.587C41.5566 105.587 45.6157 104.815 49.452 103.248Z" fill="#F9BD15"/>
<path opacity="0.4" d="M49.4514 89.8102L50.2187 89.4867C54.6738 87.5705 58.7329 84.5843 61.9257 80.8516C64.0048 78.4378 65.6878 75.7751 66.9749 72.8884C67.0491 72.7142 67.1481 72.5151 67.2224 72.3409L67.5441 71.5695C68.2371 69.8275 68.7569 68.0358 69.1529 66.1943C70.0687 70.6239 70.0687 75.2276 69.1529 79.6073C68.7817 81.4488 68.2371 83.2406 67.5441 84.9825L67.2224 85.7539C65.9106 88.8397 64.1285 91.7014 61.901 94.2646C58.7081 97.9974 54.649 100.984 50.1939 102.9L49.4266 103.223C45.5903 104.766 41.5559 105.562 37.373 105.562V92.1494C41.5312 92.1494 45.5903 91.3779 49.4266 89.8102H49.4514Z" fill="#F9BD15"/>
<path opacity="0.7" d="M49.452 76.3971L50.2193 76.0736C54.6744 74.1575 58.7335 71.1464 61.9264 67.4385C62.2729 67.0403 62.5946 66.6173 62.9164 66.1943C64.5499 64.1039 65.9112 61.8643 66.9755 59.4753C67.0497 59.3011 67.1488 59.102 67.223 58.9278L67.5448 58.1564C68.2378 56.4145 68.7575 54.6227 69.1536 52.7812C70.0693 57.2108 70.0693 61.8145 69.1536 66.1943C68.7823 68.0357 68.2378 69.8275 67.5448 71.5694L67.223 72.3408C67.1488 72.515 67.0497 72.7141 66.9755 72.8883C65.6885 75.7501 64.0054 78.4377 61.9264 80.8515C58.7335 84.5843 54.6744 87.5705 50.2193 89.4866L49.452 89.8101C45.6157 91.353 41.5813 92.1493 37.3984 92.1493V78.7363C41.5566 78.7363 45.6157 77.9649 49.452 76.3971Z" fill="#F9BD15"/>
<path d="M49.452 15.7523C49.452 15.7523 49.551 15.8021 49.6253 15.827C49.7738 15.8768 49.9223 15.9265 50.046 16.0012C50.0955 16.0012 50.145 16.051 50.1945 16.0758C57.7682 19.3358 63.9807 25.5819 67.1983 33.1221L67.5448 33.9682C69.9208 39.9405 70.4406 46.5848 69.1536 52.8061C68.7823 54.6476 68.2378 56.4393 67.5448 58.1812L67.223 58.9527C67.1488 59.1269 67.0498 59.326 66.9755 59.5001C65.9112 61.8891 64.5499 64.1288 62.9164 66.2191C62.5946 66.6421 62.2729 67.0652 61.9264 67.4633C58.7335 71.1961 54.6744 74.1823 50.2193 76.0984L49.452 76.4219C45.6157 77.9648 41.5813 78.7611 37.3984 78.7611V53.7517V40.3387V26.9257V13.5127C41.5566 13.5127 45.6157 14.2841 49.452 15.8519V15.7523Z" fill="#F9BD15"/>
<path d="M132.367 54.7723C136.055 52.3585 138.926 49.4967 141.029 46.187C143.133 42.8773 144.173 39.1446 144.173 34.9888C144.173 30.833 143.108 27.3491 141.005 24.8855C138.876 22.397 136.055 20.6799 132.54 19.6845C129.025 18.6891 124.892 18.2163 120.165 18.2412L104.101 18.3407H97.2207V93.6427H107.269V25.7067H120.363C123.308 25.7067 125.758 26.0799 127.714 26.8514C129.669 27.5979 131.154 28.7675 132.144 30.3353C133.134 31.903 133.629 33.9187 133.629 36.4072C133.629 39.6671 132.738 42.5787 130.981 45.1169C129.223 47.6552 126.773 49.8949 123.63 51.811C120.486 53.7272 116.551 55.5686 111.824 57.3355L111.873 59.4507L135.832 93.5929H148.083L122.887 59.6747C126.427 58.2313 129.57 56.5889 132.317 54.7723H132.367Z" fill="#4D4D4D"/>
<path d="M173.057 33.794C174.22 32.1019 175.408 30.8078 176.596 29.8622L176.843 29.6631C178.353 28.4935 180.185 27.6226 182.363 27.0751C184.541 26.5276 187.462 26.2539 191.149 26.2539C194.639 26.2539 197.807 26.4778 200.703 26.9009C203.574 27.3239 206.247 27.8465 208.747 28.4686L208.376 18.863C203.475 17.6934 198.822 17.1211 194.367 17.1211C185.877 17.1211 178.997 18.7137 173.725 21.9239C168.453 25.1092 164.592 29.6134 162.216 35.4116C159.815 41.2098 158.627 48.1776 158.627 56.3149C158.627 65.4229 160.137 72.8635 163.156 78.587C166.176 84.3354 170.235 88.4912 175.334 91.0793C180.432 93.6673 186.249 94.9364 192.832 94.9364C195.728 94.9364 198.476 94.7125 201.025 94.2646C203.574 93.8166 205.802 93.294 207.732 92.7217L208.104 92.5724L208.772 83.7631C206.693 84.5096 204.391 85.1318 201.916 85.5797C199.441 86.0276 196.941 86.2516 194.392 86.2516C189.838 86.2516 185.655 85.2811 181.818 83.3649C177.982 81.4488 174.839 78.0644 172.388 73.2119C169.938 68.3593 168.7 61.7648 168.7 53.4034C168.7 48.5259 169.146 44.4448 170.012 41.2098C170.879 37.9498 171.893 35.4862 173.057 33.8189V33.794Z" fill="#4D4D4D"/>
<path d="M269.931 18.3906H260.377L247.457 57.1117H246.838L234.067 18.3906H223.969L220.875 93.6428H229.34L231.097 33.5456H231.765L244.834 73.5109H248.843L261.417 33.5456H262.184L264.387 93.6428H273L269.931 18.3906Z" fill="#4D4D4D"/>
</g>
<defs>
<clipPath id="clip0_11150_9070">
<rect width="273" height="119" fill="white"/>
</clipPath>
</defs>
</svg>
