<svg width="106" height="117" viewBox="0 0 106 117" fill="none" xmlns="http://www.w3.org/2000/svg">
<path fill-rule="evenodd" clip-rule="evenodd" d="M52.5394 0.246782C52.1889 0.451075 52.1395 0.872686 52.1395 3.66766V6.85545H50.988C49.1085 6.85545 45.5918 7.29763 42.5418 7.91759C38.3977 8.7599 33.8498 10.328 29.9518 12.2587C3.94395 25.1401 -6.64478 55.931 6.11714 81.5657C9.60086 88.5633 14.1289 94.1852 20.2616 99.1278C23.4978 101.736 24.7398 102.154 26.5357 101.238C27.8771 100.553 28.4881 99.5473 28.4881 98.0231C28.4881 96.3623 28.1805 95.9302 25.4633 93.7748C22.5129 91.4343 20.6763 89.6729 18.5856 87.1787C11.2169 78.3877 7.53988 67.2172 8.28027 55.8721C8.68154 49.7218 10.0371 44.6798 12.7651 39.1904C18.9597 26.7253 30.6451 17.8724 44.5962 15.0747C46.8807 14.6165 51.6048 14.1412 51.9681 14.3329C52.0623 14.3828 52.1395 15.7929 52.1395 17.467C52.1395 20.7746 52.2629 21.124 53.3797 20.9827C54.0414 20.8991 67.8737 11.5499 68.0622 11.059C68.4167 10.1351 67.8632 9.65934 60.8398 4.85069C56.9434 2.18277 53.5718 0.00318428 53.3474 0.00684053C53.1228 0.0107253 52.7595 0.118585 52.5394 0.246782ZM79.7901 15.5672C78.4369 16.1069 77.5047 17.4979 77.5047 18.978C77.5047 20.4466 78.0703 21.3347 79.8671 22.6882C84.2638 25.9998 87.3451 29.2351 90.3249 33.669C95.321 41.1031 97.8506 49.4229 97.8381 58.3798C97.8218 70.0396 93.4046 80.7825 85.2121 89.0877C82.6143 91.7211 80.5575 93.4247 77.7332 95.2823C71.1211 99.6314 63.5527 102.15 55.5101 102.678L53.9676 102.779V99.737C53.9676 96.4599 53.8097 95.9765 52.7391 95.9765C52.4514 95.9765 49.441 97.8828 45.8428 100.343C37.4178 106.105 37.9313 105.697 38.0159 106.559C38.0803 107.217 38.6361 107.65 45.1698 112.128C49.066 114.799 52.4692 116.987 52.7325 116.992C53.7652 117.01 53.9676 116.388 53.9676 113.203V110.242L57.3382 109.967C79.4832 108.155 98.4114 92.1695 103.786 70.7391C105.712 63.0593 105.789 54.3611 104.001 46.6821C101.3 35.0874 94.8424 25.0426 85.16 17.3745C82.6018 15.3485 81.3744 14.9355 79.7901 15.5672ZM70.3945 42.5907C69.2366 43.0043 69.5416 42.763 56.2669 53.7743L44.284 63.714L41.4397 59.9074C37.8995 55.1694 37.6619 54.9095 36.2577 54.2457C34.0561 53.205 31.0745 53.7313 29.4728 55.4434C27.9605 57.0599 27.4692 59.8914 28.3606 61.8546C28.5992 62.3802 30.9554 65.6815 33.5968 69.1911C38.6169 75.8615 39.2798 76.5374 41.4877 77.2401C42.8245 77.6656 45.4054 77.4295 46.7155 76.7618C47.3112 76.4583 49.1044 75.1302 50.7001 73.8105C68.0876 59.4319 75.4771 53.2866 76.2182 52.5901C79.4119 49.5872 78.5529 44.5674 74.534 42.7505C73.3556 42.2176 71.6255 42.1508 70.3945 42.5907Z" fill="#30C175"/>
<path fill-rule="evenodd" clip-rule="evenodd" d="M52.6474 0.355799C52.1655 0.693088 52.1394 0.868588 52.1394 3.76708V6.82256L50.9397 6.94368C50.28 7.0104 49.0145 7.1194 48.1278 7.18613C40.2173 7.78119 31.1745 11.0113 24.032 15.7927C1.93086 30.5884 -5.47441 58.7687 6.56379 82.2656C9.87453 88.7274 15.3237 95.2714 20.9578 99.551C23.2802 101.315 23.6437 101.5 24.8306 101.518C26.8258 101.548 28.3738 99.9831 28.3738 97.9359C28.3738 96.382 27.8882 95.7323 25.1746 93.6555C16.5252 87.0359 10.4232 76.7589 8.57473 65.6982C7.99293 62.2184 7.99841 54.7754 8.58501 51.5303C11.4261 35.8095 21.9868 22.9969 36.9141 17.1606C40.8612 15.6174 45.632 14.5578 50.0256 14.2484L52.1394 14.0996V17.1832C52.1394 19.8806 52.1917 20.3144 52.5574 20.6452C52.7872 20.8532 53.1229 21.0234 53.3035 21.0234C53.7609 21.0234 67.2397 11.7841 67.7589 11.1145C68.082 10.698 68.1266 10.4651 67.9477 10.1308C67.7351 9.73362 64.6877 7.57689 56.4241 1.97506C54.8215 0.888697 53.4305 0 53.3327 0C53.2351 0 52.9266 0.160189 52.6474 0.355799ZM80.3371 15.5272C78.623 15.9355 77.3307 17.7877 77.5972 19.4535C77.8058 20.7579 78.2587 21.3358 80.2249 22.8047C85.6169 26.833 90.4992 32.7689 93.514 38.9619C103.345 59.1565 96.5158 83.254 77.4592 95.6148C75.1208 97.1317 70.1147 99.5803 67.6664 100.405C63.7914 101.709 57.9263 102.832 54.9842 102.832H53.9675V99.8613C53.9675 97.1516 53.9255 96.8486 53.4895 96.4126C53.2141 96.1372 52.8318 95.9811 52.5884 96.0449C52.356 96.1057 49.0204 98.3003 45.1761 100.922C37.6844 106.031 37.4148 106.286 38.4554 107.281C39.7182 108.487 52.2399 116.829 52.7888 116.829C53.7891 116.829 53.9675 116.262 53.9675 113.088V110.177L55.1672 110.061C62.3993 109.36 64.9164 108.88 69.654 107.3C88.9569 100.861 102.741 83.7757 104.937 63.5666C105.326 59.9858 105.108 53.2515 104.488 49.7021C102.208 36.6528 95.1778 25.0855 84.7502 17.2257C83.5194 16.2982 82.3195 15.5391 82.0839 15.5391C81.8483 15.5391 81.5183 15.4984 81.351 15.4486C81.1835 15.399 80.7274 15.4342 80.3371 15.5272ZM32.2572 53.9011C30.6372 54.4322 29.2643 55.6004 28.4624 57.1289C27.8861 58.2281 27.8861 60.8359 28.4627 61.909C29.2335 63.3441 38.3914 75.3587 39.1581 75.9408C41.1953 77.4876 44.1564 77.8194 46.4347 76.7561C47.4032 76.3043 51.2107 73.3946 53.5843 71.293C53.6878 71.2014 53.0951 70.7475 52.2674 70.2848C48.3888 68.1157 45.1279 65.0221 41.2909 59.8711C38.3638 55.9418 37.474 54.961 36.274 54.3419C35.2946 53.8367 33.1657 53.6031 32.2572 53.9011Z" fill="#1FA35E"/>
</svg>
