<svg width="247" height="257" viewBox="0 0 247 257" fill="none" xmlns="http://www.w3.org/2000/svg">
<g clip-path="url(#clip0_210_771)" filter="url(#filter0_f_210_771)">
<g style="mix-blend-mode:multiply" opacity="0.05">
<path d="M59.257 16.0587C58.5424 15.8593 57.813 16.0363 57.2789 16.4708C56.9433 16.7445 56.6852 17.1209 56.5584 17.5687L6.08204 196.771C5.85976 197.558 6.10143 198.366 6.64293 198.906C6.88609 199.149 7.18891 199.338 7.53948 199.445L14.8073 201.694C14.8252 201.7 14.8446 201.706 14.864 201.711L147.686 238.921C148.814 239.237 149.987 238.582 150.303 237.456L199.265 63.6298C199.367 63.2713 199.368 62.9083 199.288 62.5691L197.726 56.0172C197.632 55.623 197.429 55.2614 197.143 54.9758C196.886 54.7199 196.562 54.525 196.188 54.4194L59.257 16.0587Z" fill="#191817"/>
</g>
<path d="M144.527 237.823L7.59624 199.462C6.43268 199.137 5.75542 197.932 6.08211 196.771L56.5585 17.5684C56.8852 16.408 58.0935 15.7326 59.2571 16.0584L196.186 54.4191C197.35 54.7449 198.027 55.95 197.701 57.1104L147.224 236.313C146.897 237.474 145.689 238.149 144.526 237.823H144.527Z" fill="#EDEEEE"/>
<path d="M123.939 214.027C131.207 214.027 137.1 208.151 137.1 200.903C137.1 193.654 131.207 187.778 123.939 187.778C116.671 187.778 110.779 193.654 110.779 200.903C110.779 208.151 116.671 214.027 123.939 214.027Z" fill="#87909F" fill-opacity="0.4"/>
<path d="M123.918 218.34C122.361 218.34 120.781 218.13 119.21 217.69C109.957 215.097 104.542 205.48 107.142 196.25C109.742 187.021 119.385 181.622 128.64 184.215C133.122 185.47 136.847 188.392 139.127 192.442C141.406 196.491 141.969 201.184 140.708 205.654C138.549 213.316 131.535 218.34 123.92 218.34H123.918ZM123.929 185.265C117.056 185.265 110.728 189.797 108.78 196.712C106.435 205.04 111.319 213.718 119.67 216.056C128.019 218.395 136.722 213.524 139.067 205.196C140.204 201.161 139.697 196.927 137.64 193.275C135.582 189.621 132.223 186.985 128.177 185.851C126.76 185.454 125.333 185.265 123.929 185.265Z" fill="#87909F" fill-opacity="0.4"/>
<path d="M75.5409 74.8603L58.2112 70.0059L63.0788 52.7231L80.4084 57.5776L75.5409 74.8603ZM60.7859 68.5628L74.0939 72.2911L77.8322 59.0192L64.5243 55.2909L60.7859 68.5628Z" fill="#DEDFDF"/>
<path d="M96.1324 61.9738L95.5386 64.0821L173.543 85.934L174.136 83.8257L96.1324 61.9738Z" fill="#DEDFDF"/>
<path d="M93.9947 69.5691L93.4009 71.6774L171.405 93.5294L171.999 91.4211L93.9947 69.5691Z" fill="#DEDFDF"/>
<path d="M91.8416 77.2066L91.2478 79.3149L169.252 101.167L169.846 99.0585L91.8416 77.2066Z" fill="#DEDFDF"/>
<path d="M67.0482 68.783L63.8738 63.6579L65.9622 62.371L67.7121 65.1976L73.8163 60.5515L75.3066 62.4974L67.0482 68.783Z" fill="#87909F" fill-opacity="0.4"/>
<path d="M65.5135 110.463L48.1838 105.608L53.0514 88.3256L70.3811 93.18L65.5135 110.463ZM50.7586 104.165L64.0665 107.894L67.8048 94.6216L54.4969 90.8934L50.7586 104.165Z" fill="#DEDFDF"/>
<path d="M86.1043 97.5751L85.5105 99.6834L163.514 121.535L164.108 119.427L86.1043 97.5751Z" fill="#DEDFDF"/>
<path d="M83.9666 105.17L83.3728 107.279L161.377 129.131L161.971 127.022L83.9666 105.17Z" fill="#DEDFDF"/>
<path d="M81.8145 112.81L81.2207 114.918L159.225 136.77L159.818 134.662L81.8145 112.81Z" fill="#DEDFDF"/>
<path d="M57.0194 104.386L53.845 99.2603L55.9334 97.9735L57.6847 100.8L63.789 96.154L65.2777 98.0999L57.0194 104.386Z" fill="#87909F" fill-opacity="0.4"/>
<path d="M55.4845 146.065L38.1548 141.211L43.0224 123.928L60.352 128.783L55.4845 146.065ZM40.7295 139.768L54.0375 143.496L57.7758 130.224L44.4679 126.496L40.7295 139.768Z" fill="#DEDFDF"/>
<path d="M76.0785 133.178L75.4846 135.287L153.489 157.139L154.082 155.03L76.0785 133.178Z" fill="#DEDFDF"/>
<path d="M73.9378 140.773L73.344 142.882L151.348 164.734L151.942 162.625L73.9378 140.773Z" fill="#DEDFDF"/>
<path d="M71.7877 148.413L71.1938 150.521L149.198 172.373L149.792 170.265L71.7877 148.413Z" fill="#DEDFDF"/>
<path d="M46.9918 139.988L43.8174 134.863L45.9058 133.576L47.6557 136.403L53.7599 131.757L55.2502 133.702L46.9918 139.988Z" fill="#87909F" fill-opacity="0.4"/>
<path d="M120.687 208.078L116.123 200.709L119.125 198.858L121.642 202.923L130.417 196.243L132.559 199.041L120.687 208.078Z" fill="#F5F5F5"/>
<g style="mix-blend-mode:multiply" opacity="0.05">
<path d="M42.9863 50.6793C42.7253 50.7655 42.4896 50.8965 42.2882 51.0601C41.6065 51.615 41.3036 52.5523 41.596 53.436L100.24 230.148C100.35 230.483 100.535 230.772 100.768 231.005C101.081 231.318 101.482 231.527 101.916 231.609L107.511 232.651C107.851 232.715 108.213 232.695 108.565 232.579L239.541 189.349C240.654 188.982 241.256 187.784 240.889 186.674L184.008 15.2612C183.991 15.2106 183.972 15.1615 183.952 15.1139L180.721 7.34508C180.609 7.07432 180.447 6.83777 180.25 6.64139C179.683 6.07606 178.827 5.84398 178.014 6.11176L42.9863 50.6793Z" fill="#191817"/>
</g>
<path d="M238.033 186.966L103.006 231.533C101.858 231.912 100.62 231.291 100.241 230.147L41.5976 53.4358C41.2187 52.2917 41.8408 51.0569 42.9879 50.679L178.014 6.11155C179.161 5.73218 180.399 6.35405 180.778 7.4981L239.422 184.21C239.802 185.354 239.179 186.589 238.031 186.967L238.033 186.966Z" fill="#EDEEEE"/>
<path d="M213.409 168.289C213.659 161.044 207.973 154.97 200.709 154.721C193.445 154.471 187.354 160.142 187.104 167.386C186.854 174.631 192.54 180.705 199.804 180.954C207.068 181.204 213.159 175.533 213.409 168.289Z" fill="#87909F" fill-opacity="0.4"/>
<path d="M200.262 185.285C197.579 185.285 194.915 184.66 192.449 183.423C188.289 181.338 185.192 177.761 183.729 173.353C180.708 164.253 185.675 154.398 194.8 151.385C203.925 148.373 213.807 153.327 216.828 162.427C218.291 166.835 217.945 171.548 215.853 175.698C213.762 179.847 210.176 182.935 205.756 184.395C203.955 184.988 202.104 185.285 200.262 185.285ZM200.268 152.202C198.633 152.202 196.972 152.458 195.337 152.998C187.103 155.716 182.622 164.608 185.347 172.819C186.667 176.797 189.461 180.024 193.216 181.906C196.971 183.788 201.234 184.099 205.223 182.782C209.212 181.466 212.448 178.679 214.335 174.935C216.222 171.191 216.534 166.938 215.213 162.96C213.03 156.378 206.867 152.201 200.269 152.201L200.268 152.202Z" fill="#87909F" fill-opacity="0.4"/>
<path d="M72.3723 95.9845L66.717 78.9412L83.8065 73.3013L89.4618 90.3445L72.3723 95.9845ZM69.3559 80.2653L73.6999 93.3527L86.8229 89.0205L82.4789 75.933L69.3559 80.2653Z" fill="#DEDFDF"/>
<path d="M176.227 42.7955L99.3064 68.1807L99.9962 70.2597L176.917 44.8745L176.227 42.7955Z" fill="#DEDFDF"/>
<path d="M178.713 50.2857L101.792 75.6708L102.482 77.7499L179.403 52.3647L178.713 50.2857Z" fill="#DEDFDF"/>
<path d="M181.213 57.8181L104.292 83.2033L104.982 85.2824L181.903 59.8972L181.213 57.8181Z" fill="#DEDFDF"/>
<path d="M79.0122 90.0425L73.5061 87.564L74.516 85.3324L77.5532 86.6996L80.0072 79.444L82.3328 80.2266L79.0122 90.0425Z" fill="#87909F" fill-opacity="0.4"/>
<path d="M84.0229 131.093L78.3677 114.05L95.4572 108.41L101.112 125.453L84.0229 131.093ZM81.0066 115.374L85.3506 128.461L98.4735 124.129L94.1295 111.042L81.0066 115.374Z" fill="#DEDFDF"/>
<path d="M187.877 77.9035L110.956 103.289L111.646 105.368L188.567 79.9825L187.877 77.9035Z" fill="#DEDFDF"/>
<path d="M190.362 85.3937L113.442 110.779L114.131 112.858L191.052 87.4728L190.362 85.3937Z" fill="#DEDFDF"/>
<path d="M192.862 92.9232L115.941 118.308L116.631 120.387L193.552 95.0023L192.862 92.9232Z" fill="#DEDFDF"/>
<path d="M90.6628 125.15L85.1567 122.671L86.1667 120.439L89.2039 121.807L91.6578 114.551L93.9849 115.334L90.6628 125.15Z" fill="#87909F" fill-opacity="0.4"/>
<path d="M95.6735 166.2L90.0183 149.157L107.108 143.517L112.763 160.56L95.6735 166.2ZM92.6572 150.481L97.0012 163.568L110.124 159.236L105.78 146.149L92.6572 150.481Z" fill="#DEDFDF"/>
<path d="M199.523 113.02L122.603 138.406L123.292 140.485L200.213 115.1L199.523 113.02Z" fill="#DEDFDF"/>
<path d="M202.009 120.511L125.088 145.896L125.778 147.975L202.699 122.59L202.009 120.511Z" fill="#DEDFDF"/>
<path d="M204.507 128.043L127.587 153.428L128.277 155.507L205.197 130.122L204.507 128.043Z" fill="#DEDFDF"/>
<path d="M102.313 160.258L96.8074 157.78L97.8188 155.548L100.854 156.915L103.308 149.66L105.636 150.442L102.313 160.258Z" fill="#87909F" fill-opacity="0.4"/>
<path d="M201.589 175.604L193.674 172.039L195.126 168.832L199.49 170.797L203.02 160.365L206.363 161.492L201.589 175.604Z" fill="#F5F5F5"/>
<g style="mix-blend-mode:multiply" opacity="0.05">
<path d="M56.9372 17.6696C56.4121 17.6696 55.9302 17.8541 55.5528 18.1621C55.062 18.5622 54.7488 19.1707 54.7488 19.8521V205.991C54.7488 206.593 54.9934 207.139 55.3902 207.533C55.6707 207.813 56.0272 208.018 56.427 208.112L63.0131 209.682C63.1712 209.719 63.3383 209.74 63.5083 209.74H201.471C202.644 209.74 203.594 208.792 203.594 207.623V27.069C203.594 26.8518 203.561 26.642 203.5 26.4442L201.26 19.2079C201.154 18.8643 200.964 18.5578 200.715 18.3093C200.32 17.9151 199.772 17.6696 199.168 17.6696H56.9372Z" fill="#191817"/>
</g>
<path d="M199.168 17.6696H56.9389C55.7303 17.6696 54.7505 18.6467 54.7505 19.8521V205.991C54.7505 207.196 55.7303 208.173 56.9389 208.173H199.168C200.377 208.173 201.357 207.196 201.357 205.991V19.8521C201.357 18.6467 200.377 17.6696 199.168 17.6696Z" fill="#F5F5F5"/>
<path d="M169.336 191.305C176.604 191.305 182.496 185.429 182.496 178.181C182.496 170.932 176.604 165.056 169.336 165.056C162.068 165.056 156.176 170.932 156.176 178.181C156.176 185.429 162.068 191.305 169.336 191.305Z" fill="#87909F" fill-opacity="0.4"/>
<path d="M169.336 195.618C159.723 195.618 151.904 187.82 151.904 178.233C151.904 168.646 159.723 160.847 169.336 160.847C178.949 160.847 186.769 168.646 186.769 178.233C186.769 187.82 178.949 195.618 169.336 195.618ZM169.336 162.546C160.663 162.546 153.607 169.583 153.607 178.233C153.607 186.882 160.663 193.919 169.336 193.919C178.009 193.919 185.065 186.882 185.065 178.233C185.065 169.583 178.009 162.546 169.336 162.546Z" fill="#87909F" fill-opacity="0.4"/>
<path d="M88.5622 69.89H70.5613V51.9377H88.5622V69.89ZM72.6497 67.8072H86.4738V54.0205H72.6497V67.8072Z" fill="#DEDFDF"/>
<path d="M185.915 51.9287H104.892V54.1186H185.915V51.9287Z" fill="#DEDFDF"/>
<path d="M185.915 59.8181H104.892V62.008H185.915V59.8181Z" fill="#DEDFDF"/>
<path d="M185.915 67.7535H104.892V69.9435H185.915V67.7535Z" fill="#DEDFDF"/>
<path d="M78.7377 66.3283L74.2908 62.2505L75.9526 60.4489L78.405 62.6968L83.0205 56.5778L84.9822 58.0507L78.7377 66.3283Z" fill="#87909F" fill-opacity="0.4"/>
<path d="M88.5622 106.87H70.5613V88.9178H88.5622V106.87ZM72.6497 104.787H86.4738V91.0006H72.6497V104.787Z" fill="#DEDFDF"/>
<path d="M185.915 88.9103H104.892V91.1003H185.915V88.9103Z" fill="#DEDFDF"/>
<path d="M185.915 96.7997H104.892V98.9896H185.915V96.7997Z" fill="#DEDFDF"/>
<path d="M185.915 104.734H104.892V106.924H185.915V104.734Z" fill="#DEDFDF"/>
<path d="M78.7377 103.31L74.2908 99.2306L75.9526 97.429L78.405 99.6784L83.0205 93.5594L84.9822 95.0308L78.7377 103.31Z" fill="#87909F" fill-opacity="0.4"/>
<path d="M88.5622 143.85H70.5613V125.898H88.5622V143.85ZM72.6497 141.767H86.4738V127.981H72.6497V141.767Z" fill="#DEDFDF"/>
<path d="M185.915 125.891H104.892V128.08H185.915V125.891Z" fill="#DEDFDF"/>
<path d="M185.915 133.78H104.892V135.97H185.915V133.78Z" fill="#DEDFDF"/>
<path d="M185.915 141.714H104.892V143.904H185.915V141.714Z" fill="#DEDFDF"/>
<path d="M78.7377 140.29L74.2908 136.212L75.9526 134.409L78.405 136.659L83.0205 130.54L84.9822 132.011L78.7377 140.29Z" fill="#87909F" fill-opacity="0.4"/>
<path d="M168.15 185.966L161.758 180.103L164.146 177.511L167.671 180.746L174.308 171.949L177.129 174.064L168.15 185.966Z" fill="#F5F5F5"/>
</g>
<path d="M141.333 248.583H149.75C151.854 248.583 153.958 247.742 155.642 246.058C157.325 244.375 158.167 242.271 158.167 240.167V187.563L135.021 164.417H99.2499C97.1458 164.417 95.0416 165.258 93.3583 166.942C91.6749 168.625 90.8333 170.729 90.8333 172.833V185.458" stroke="#FFB400" stroke-width="5.42" stroke-linecap="round" stroke-linejoin="round"/>
<path d="M132.917 164.417V189.667H158.167" stroke="#FFB400" stroke-width="5.42" stroke-linecap="round" stroke-linejoin="round"/>
<path d="M107.667 248.583C121.612 248.583 132.917 237.278 132.917 223.333C132.917 209.388 121.612 198.083 107.667 198.083C93.7216 198.083 82.4167 209.388 82.4167 223.333C82.4167 237.278 93.7216 248.583 107.667 248.583Z" stroke="#FFB400" stroke-width="5.42" stroke-linecap="round" stroke-linejoin="round"/>
<path d="M113.979 229.646L107.667 224.385V214.917" stroke="#FFB400" stroke-width="5.42" stroke-linecap="round" stroke-linejoin="round"/>
<defs>
<filter id="filter0_f_210_771" x="0" y="0" width="247" height="245" filterUnits="userSpaceOnUse" color-interpolation-filters="sRGB">
<feFlood flood-opacity="0" result="BackgroundImageFix"/>
<feBlend mode="normal" in="SourceGraphic" in2="BackgroundImageFix" result="shape"/>
<feGaussianBlur stdDeviation="3" result="effect1_foregroundBlur_210_771"/>
</filter>
<clipPath id="clip0_210_771">
<rect width="235" height="233" fill="white" transform="translate(6 6)"/>
</clipPath>
</defs>
</svg>
