<svg width="24" height="24" viewBox="0 0 24 24" fill="none" xmlns="http://www.w3.org/2000/svg">
<g clip-path="url(#clip0_10860_5565)">
<path fill-rule="evenodd" clip-rule="evenodd" d="M10.9922 0.781491C9.46397 0.971569 8.41318 1.27724 7.14849 1.89965C3.79491 3.54998 1.47422 6.79776 1.00618 10.4957C0.895271 11.3721 0.929303 12.9495 1.07705 13.7812C1.27257 14.8816 1.67963 16.0907 2.16708 17.0191L2.40277 17.4679L1.62188 20.3195C1.19236 21.8879 0.846896 23.1857 0.854115 23.2035C0.861334 23.2214 2.18527 22.89 3.79613 22.4674L6.72507 21.6988L7.218 21.932C9.69404 23.1032 12.2122 23.3524 14.8658 22.6888C17.6394 21.9951 20.1465 20.1022 21.6751 17.5476C22.4435 16.2636 22.9847 14.6481 23.1567 13.1249C23.2304 12.473 23.218 11.1307 23.1323 10.4784C22.8379 8.23738 21.9656 6.29376 20.4808 4.57026C18.6587 2.4554 16.0554 1.09635 13.2558 0.798366C12.8323 0.753319 11.3101 0.741928 10.9922 0.781491ZM11.1329 2.67641C6.76974 3.13012 3.3143 6.5938 2.86036 10.9687C2.65346 12.9628 3.13168 15.0147 4.22054 16.8046L4.44868 17.1796L3.98513 18.8662C3.73018 19.7938 3.52641 20.5576 3.53232 20.5634C3.53822 20.5693 4.30154 20.3749 5.22858 20.1314C6.15563 19.8878 6.94182 19.6883 6.97566 19.688C7.00955 19.6877 7.26268 19.8132 7.53816 19.967C8.43338 20.4665 9.48361 20.8408 10.5001 21.0227C11.0936 21.1288 12.4546 21.1681 13.0803 21.0971C17.3672 20.6106 20.7526 17.2525 21.2587 12.9846C21.7781 8.60507 19.1477 4.46901 14.971 3.09763C13.7344 2.69165 12.3975 2.54493 11.1329 2.67641ZM7.6965 6.84997C7.30833 7.04212 6.74382 7.80351 6.55482 8.38987C6.41799 8.81427 6.38438 9.69876 6.48826 10.142C6.65715 10.8627 7.00285 11.5454 7.66613 12.4687C8.20894 13.2242 8.7143 13.8139 9.33432 14.4153C10.7012 15.7411 11.8228 16.4161 13.6407 17.0068C14.3942 17.2516 15.0113 17.3115 15.636 17.2005C16.1039 17.1173 16.7512 16.7658 17.1384 16.3846C17.4335 16.0941 17.486 16.0154 17.5775 15.7265C17.6371 15.5384 17.692 15.2152 17.7062 14.9692L17.7311 14.5401L17.5492 14.4279C17.2621 14.2507 15.3237 13.326 15.1301 13.2739C15.034 13.248 14.913 13.238 14.8612 13.2516C14.8093 13.2651 14.5888 13.5006 14.3711 13.7748C13.6868 14.6368 13.6311 14.6915 13.4438 14.6862C13.2166 14.6797 12.274 14.2234 11.7041 13.844C10.894 13.3048 9.97922 12.3371 9.45108 11.4609C9.35785 11.3062 9.28149 11.1341 9.28144 11.0785C9.28135 11.0228 9.37538 10.8618 9.49036 10.7206C9.93629 10.1732 10.2188 9.74094 10.2188 9.60604C10.2188 9.5323 10.0159 8.98082 9.76796 8.38049C9.23921 7.10043 9.21418 7.04769 9.05626 6.87885C8.93874 6.75327 8.92233 6.74994 8.41707 6.74999C7.98216 6.74999 7.86591 6.76616 7.6965 6.84997Z" fill="#1FA35E"/>
</g>
<defs>
<clipPath id="clip0_10860_5565">
<rect width="24" height="24" fill="white"/>
</clipPath>
</defs>
</svg>
